<svg width="90" height="83" viewBox="0 0 90 83" fill="none" xmlns="http://www.w3.org/2000/svg">
<path d="M89.1797 31.5165L64.3733 54.7364L51.6626 41.2462L76.4688 18.0264L89.1797 31.5165Z" fill="#3F467B"/>
<path d="M76.3715 20.2012L53.8403 41.306L64.4243 52.5382L86.9559 31.4334L76.3715 20.2012Z" stroke="#FCFFFD" stroke-width="0.266209"/>
<path d="M76.345 21.0679L54.71 41.3329L64.4516 51.6712L86.0864 31.4063L76.345 21.0679Z" stroke="#FCFFFD" stroke-width="0.133105"/>
<path d="M66.3823 35.0722L67.7355 33.0689L68.3094 32.5376L72.9428 37.443L73.5992 36.83L74.7881 38.0971L72.0819 40.6317L70.893 39.3645L71.6309 38.6695L68.1867 34.9904L67.202 35.8897L66.3823 35.0722Z" fill="#FCFFFD"/>
<path d="M60.6416 41.2841C59.4115 42.4695 59.3298 44.391 60.5187 45.6582C61.7078 46.9253 63.6349 46.9663 64.906 45.7806C66.1769 44.5952 66.2182 42.674 65.0288 41.4065C63.8399 40.1801 61.8718 40.1394 60.6416 41.2841ZM62.1998 43.4915C62.2818 43.4915 62.4047 43.4505 62.5687 43.4098C62.8557 43.287 63.102 43.2463 63.2659 43.2463C63.4709 43.2463 63.6349 43.328 63.7989 43.4915C63.9629 43.6549 64.0449 43.8184 64.0039 44.0228C64.0039 44.2273 63.9219 44.391 63.7579 44.5952L64.0039 44.8814L63.7579 45.0858L63.5119 44.7996C63.3069 44.9631 63.102 45.0451 62.8967 45.0451C62.6917 45.0451 62.4867 44.9224 62.2818 44.7179L62.6917 44.309C62.8147 44.4317 62.938 44.5135 63.0197 44.5135C63.1429 44.5135 63.2247 44.4725 63.3069 44.391C63.3889 44.309 63.4299 44.2273 63.4299 44.1456C63.4299 44.0638 63.3889 43.9821 63.3069 43.9004C63.2247 43.8184 63.1429 43.7777 63.0607 43.7777C62.9787 43.7777 62.8557 43.7777 62.6917 43.8594C62.4047 43.9821 62.1588 44.0638 61.9948 44.0638C61.7898 44.0638 61.6258 43.9821 61.4618 43.8184C61.2979 43.6549 61.2156 43.4915 61.2566 43.287C61.2566 43.0826 61.3388 42.9191 61.5028 42.7147L61.2156 42.4285L61.4618 42.2241L61.7488 42.5512C61.9538 42.4285 62.1588 42.3468 62.3228 42.3878C62.5277 42.4285 62.7327 42.5102 62.8967 42.7147L62.4867 43.1236C62.3638 43.0009 62.2818 42.9601 62.1588 42.9191C62.0768 42.9191 61.9538 42.9191 61.8718 43.0009C61.7898 43.0826 61.7488 43.1643 61.7488 43.2463C61.7488 43.328 61.7898 43.4098 61.8718 43.4915C62.0358 43.4505 62.1178 43.4915 62.1998 43.4915Z" fill="#FCFFFD"/>
<path d="M75.8947 26.9802C74.6654 28.1659 74.5829 30.0871 75.772 31.3545C76.9609 32.5807 78.888 32.6627 80.1597 31.477C81.4303 30.2915 81.4716 28.37 80.2824 27.1029C79.0935 25.8765 77.1252 25.8356 75.8947 26.9802ZM77.4947 29.1878C77.5761 29.1878 77.6991 29.1468 77.8631 29.1061C78.1501 28.9834 78.3966 28.9424 78.5598 28.9424C78.7653 28.9424 78.9293 29.0241 79.0935 29.1878C79.2575 29.3513 79.339 29.5147 79.2988 29.7192C79.2988 29.9236 79.2162 30.0871 79.0522 30.2915L79.2988 30.5777L79.0522 30.7822L78.8065 30.496C78.601 30.6594 78.3966 30.7412 78.1913 30.7412C77.9858 30.7412 77.7816 30.6184 77.5761 30.4143L77.9858 30.0054C78.1088 30.1281 78.2326 30.2098 78.314 30.2098C78.437 30.2098 78.5196 30.1688 78.601 30.0871C78.6835 30.0054 78.724 29.9236 78.724 29.8419C78.724 29.7602 78.6835 29.6782 78.601 29.5965C78.5196 29.5147 78.437 29.474 78.3553 29.474C78.2728 29.474 78.1501 29.474 77.9858 29.5557C77.6991 29.6782 77.4534 29.7602 77.2891 29.7602C77.0839 29.7602 76.9196 29.6782 76.7565 29.5147C76.5925 29.3513 76.5099 29.1878 76.5512 28.9834C76.5512 28.7789 76.6327 28.6155 76.7969 28.411L76.5099 28.1249L76.7565 27.9204L77.0434 28.2476C77.2479 28.1249 77.4534 28.0431 77.6174 28.0841C77.8218 28.1249 78.0271 28.2066 78.1913 28.411L77.7816 28.8199C77.6586 28.6972 77.5761 28.6562 77.4534 28.6155C77.3709 28.6155 77.2479 28.6155 77.1664 28.6972C77.0839 28.7789 77.0434 28.8607 77.0434 28.9424C77.0434 29.0241 77.0839 29.1061 77.1664 29.1878C77.3304 29.1468 77.3709 29.1878 77.4947 29.1878Z" fill="#FCFFFD"/>
<path d="M55.8447 40.2625C56.4189 40.8758 56.4189 41.8568 55.7627 42.4291C55.1478 43.0015 54.1636 43.0015 53.5897 42.3474C53.0157 41.7341 53.0157 40.7531 53.6717 40.1807C54.2869 39.6084 55.2708 39.6494 55.8447 40.2625Z" fill="#FCFFFD"/>
<path d="M64.4551 53.2192C65.3157 53.2192 66.0137 52.5236 66.0137 51.6656C66.0137 50.8079 65.3157 50.1123 64.4551 50.1123C63.5947 50.1123 62.897 50.8079 62.897 51.6656C62.897 52.5236 63.5947 53.2192 64.4551 53.2192Z" fill="#FCFFFD"/>
<path d="M77.4947 19.9912C78.0686 20.6044 78.0686 21.5855 77.4122 22.1578C76.7568 22.7302 75.8133 22.7302 75.2396 22.0761C74.6657 21.4629 74.6657 20.4818 75.3211 19.9094C75.9363 19.378 76.9199 19.378 77.4947 19.9912Z" fill="#FCFFFD"/>
<path d="M86.104 32.9475C86.9646 32.9475 87.6624 32.2521 87.6624 31.3942C87.6624 30.5362 86.9646 29.8408 86.104 29.8408C85.2441 29.8408 84.5464 30.5362 84.5464 31.3942C84.5464 32.2521 85.2441 32.9475 86.104 32.9475Z" fill="#FCFFFD"/>
<path d="M74.5826 32.4559C76.7562 34.7451 76.6332 38.3426 74.3369 40.5093C72.0403 42.676 68.4329 42.5533 66.2593 40.2639C64.0863 37.9747 64.2093 34.3772 66.5059 32.2105C68.8014 30.0848 72.4098 30.1665 74.5826 32.4559Z" stroke="#FCFFFD" stroke-width="0.266209"/>
<path d="M23.2893 54.7367L0 30.0043L13.5308 17.3315L36.8202 42.0638L23.2893 54.7367Z" fill="#3F467B"/>
<path d="M34.622 41.9865L13.4541 19.5225L2.18848 30.0749L23.3565 52.539L34.622 41.9865Z" stroke="#FCFFFD" stroke-width="0.266209"/>
<path d="M13.4366 20.3604L3.06738 30.0731L23.3931 51.6435L33.7623 41.9308L13.4366 20.3604Z" stroke="#FCFFFD" stroke-width="0.133105"/>
<path d="M19.7223 32.0063L21.7315 33.3552L22.2645 33.9276L17.3442 38.5471L17.9593 39.2012L16.6882 40.3866L14.146 37.6886L15.4171 36.5029L16.1141 37.239L19.8044 33.8049L18.8613 32.8239L19.7223 32.0063Z" fill="#FCFFFD"/>
<path d="M13.4489 26.2848C12.2598 25.0584 10.3327 24.9767 9.06161 26.1621C7.83159 27.3477 7.74952 29.2689 8.93857 30.5363C10.1277 31.7627 12.0547 31.8445 13.3258 30.659C14.556 29.4733 14.6379 27.5111 13.4489 26.2848ZM11.2347 27.8383C11.2347 27.92 11.2758 28.0427 11.3167 28.2062C11.4398 28.4924 11.4808 28.7375 11.4808 28.9013C11.4808 29.1054 11.3987 29.2689 11.2347 29.4326C11.0707 29.5961 10.9067 29.6778 10.7017 29.6368C10.4967 29.6368 10.3327 29.5553 10.1277 29.3916L9.84067 29.6368L9.63569 29.3916L9.92261 29.1464C9.7586 28.942 9.67666 28.7375 9.67666 28.5333C9.67666 28.3286 9.7997 28.1245 10.0047 27.92L10.4146 28.3286C10.2917 28.4514 10.2097 28.5741 10.2097 28.6558C10.2097 28.7785 10.2506 28.8603 10.3327 28.942C10.4146 29.0237 10.4967 29.0647 10.5787 29.0647C10.6607 29.0647 10.7427 29.0237 10.8247 28.942C10.9067 28.8603 10.9478 28.7785 10.9478 28.6968C10.9478 28.6148 10.9478 28.4924 10.8657 28.3286C10.7427 28.0427 10.6607 27.7973 10.6607 27.6338C10.6607 27.4294 10.7427 27.2659 10.9067 27.1025C11.0707 26.9388 11.2347 26.857 11.4398 26.898C11.6448 26.898 11.8088 26.9798 12.0138 27.1432L12.3008 26.857L12.5058 27.1025L12.3008 27.4704C12.4238 27.6746 12.5058 27.8793 12.4648 28.0427C12.4238 28.2472 12.3418 28.4514 12.1368 28.6148L11.7267 28.2062C11.8498 28.0835 11.8907 28.0017 11.9318 27.8793C11.9318 27.7973 11.9318 27.6746 11.8498 27.5928C11.7678 27.5111 11.6857 27.4704 11.6038 27.4704C11.5217 27.4704 11.4398 27.5111 11.3577 27.5928C11.3167 27.6746 11.2758 27.7566 11.2347 27.8383Z" fill="#FCFFFD"/>
<path d="M27.7996 41.4884C26.6104 40.262 24.6833 40.1803 23.4122 41.3657C22.1822 42.5511 22.1001 44.4726 23.2891 45.7398C24.4783 46.9662 26.4053 47.0479 27.6763 45.8625C28.9064 44.6768 28.9884 42.7556 27.7996 41.4884ZM25.5853 43.0825C25.5853 43.1645 25.6264 43.2869 25.6673 43.4507C25.7904 43.7366 25.8313 43.982 25.8313 44.1455C25.8313 44.3499 25.7493 44.5134 25.5853 44.6768C25.4213 44.8405 25.2573 44.9223 25.0523 44.8813C24.8473 44.8813 24.6833 44.7995 24.4783 44.6361L24.1912 44.8813L23.9863 44.6361L24.2732 44.3906C24.1092 44.1865 24.0272 43.982 24.0272 43.7776C24.0272 43.5731 24.1503 43.3687 24.3553 43.1645L24.7652 43.5731C24.6423 43.6958 24.5602 43.8186 24.5602 43.9003C24.5602 44.0227 24.6012 44.1047 24.6833 44.1865C24.7652 44.2682 24.8473 44.3089 24.9292 44.3089C25.0113 44.3089 25.0932 44.2682 25.1753 44.1865C25.2573 44.1047 25.2983 44.0227 25.2983 43.941C25.2983 43.8593 25.2983 43.7366 25.2163 43.5731C25.0932 43.2869 25.0113 43.0418 25.0113 42.8783C25.0113 42.6739 25.0932 42.5104 25.2573 42.3467C25.4213 42.1832 25.5853 42.1015 25.7904 42.1425C25.9953 42.1425 26.1594 42.2242 26.3643 42.3877L26.6514 42.1015L26.8564 42.3467L26.6514 42.6739C26.7744 42.8783 26.8564 43.0825 26.8154 43.2462C26.7744 43.4507 26.6924 43.6548 26.4874 43.8186L26.0773 43.4097C26.2003 43.2869 26.2413 43.2052 26.2824 43.0825C26.2824 43.0008 26.2824 42.8783 26.2003 42.7966C26.1184 42.7146 26.0363 42.6739 25.9544 42.6739C25.8723 42.6739 25.7904 42.7146 25.7083 42.7966C25.6264 42.919 25.5853 43.0008 25.5853 43.0825Z" fill="#FCFFFD"/>
<path d="M14.4738 21.5039C13.8587 22.0762 12.8747 22.0762 12.3007 21.4221C11.7266 20.8089 11.7266 19.8278 12.3827 19.2555C12.9977 18.6831 13.9818 18.6831 14.5557 19.3372C15.1298 19.9505 15.1298 20.9316 14.4738 21.5039Z" fill="#FCFFFD"/>
<path d="M4.10079 31.2309C3.48571 31.8033 2.50166 31.8033 1.92758 31.1492C1.3536 30.5361 1.3536 29.5549 2.00963 28.9825C2.62469 28.4102 3.60875 28.4102 4.18273 29.0643C4.75681 29.7183 4.75681 30.6179 4.10079 31.2309Z" fill="#FCFFFD"/>
<path d="M34.1537 43.4394C34.9835 43.2123 35.4715 42.3575 35.2436 41.5302C35.0157 40.7028 34.1585 40.2164 33.3287 40.4435C32.499 40.6706 32.0107 41.5254 32.2386 42.3528C32.4665 43.1801 33.3239 43.6665 34.1537 43.4394Z" fill="#FCFFFD"/>
<path d="M24.4372 52.769C23.8221 53.3414 22.8381 53.3414 22.264 52.6873C21.69 52.0742 21.69 51.093 22.3461 50.5206C22.9611 49.9483 23.9452 49.9483 24.5192 50.6024C25.0932 51.2157 25.0522 52.1967 24.4372 52.769Z" fill="#FCFFFD"/>
<path d="M22.3052 40.1822C20.009 42.3489 16.4008 42.2262 14.2278 39.9368C12.0546 37.6477 12.1776 34.0501 14.4737 31.8837C16.7698 29.717 20.378 29.8398 22.5511 32.1289C24.7243 34.4183 24.6013 38.0156 22.3052 40.1822Z" stroke="#FCFFFD" stroke-width="0.266209"/>
<path d="M66.4644 71.2805L83.4392 57.1363C83.4392 57.0953 81.7589 74.9598 66.4644 71.2805Z" fill="#0066FF"/>
<path d="M66.4643 71.2797L83.4391 57.1352C83.4391 57.0945 65.4801 55.6229 66.4643 71.2797Z" fill="#418DFF"/>
<path d="M65.1938 73.9779L80.0363 73.1196C80.0363 73.1196 71.9588 82.1132 65.1938 73.9779Z" fill="#0066FF"/>
<path d="M65.1938 73.9785L80.0363 73.12C80.0363 73.12 70.9751 65.1484 65.1938 73.9785Z" fill="#418DFF"/>
<path d="M26.9798 67.9318L11.0298 58.7747C11.0298 58.7747 25.5037 54.973 26.9798 67.9318Z" fill="#418DFF"/>
<path d="M26.9798 67.9317L11.0298 58.7744C11.0298 58.7744 15.0071 73.1234 26.9798 67.9317Z" fill="#0066FF"/>
<path d="M28.3738 71.1577L5.08447 71.8935C5.08447 71.8935 18.1232 58.1989 28.3738 71.1577Z" fill="#418DFF"/>
<path d="M28.3738 71.1572L5.08447 71.893C5.08447 71.893 18.9433 84.7294 28.3738 71.1572Z" fill="#0066FF"/>
<path d="M58.715 76.7167C64.3762 76.7167 68.9654 74.9965 68.9654 72.874C68.9654 70.7518 64.3762 69.0312 58.715 69.0312C53.0538 69.0312 48.4644 70.7518 48.4644 72.874C48.4644 74.9965 53.0538 76.7167 58.715 76.7167Z" fill="#FFCE5B"/>
<path d="M48.4644 76.1037C48.4644 78.2296 53.0567 79.9461 58.715 79.9461C64.3733 79.9461 68.9654 78.2296 68.9654 76.1037V72.874C68.9654 75 64.3733 76.717 58.715 76.717C53.0567 76.717 48.4644 75 48.4644 72.874V76.1037Z" fill="#FFE7AD"/>
<path d="M55.0248 76.4718C51.1706 75.8992 48.4644 74.5093 48.4644 72.874V76.1037C48.4644 77.7387 51.1706 79.1291 55.0248 79.7012V76.4718Z" fill="#F7BF30"/>
<path d="M58.7147 76.7173H57.4438V79.9467H58.7147V76.7173Z" fill="#FFC234"/>
<path d="M58.3056 72.6293C63.9668 72.6293 68.5559 70.9088 68.5559 68.7866C68.5559 66.6644 63.9668 64.9438 58.3056 64.9438C52.6444 64.9438 48.0552 66.6644 48.0552 68.7866C48.0552 70.9088 52.6444 72.6293 58.3056 72.6293Z" fill="#FFCE5B"/>
<path d="M48.0552 72.0158C48.0552 74.1415 52.6473 75.8585 58.3056 75.8585C63.9638 75.8585 68.5559 74.1415 68.5559 72.0158V68.7861C68.5559 70.9118 63.9638 72.6289 58.3056 72.6289C52.6473 72.6289 48.0552 70.9118 48.0552 68.7861V72.0158Z" fill="#FFE7AD"/>
<path d="M54.6154 72.3837C50.7612 71.8113 48.0552 70.4215 48.0552 68.7861V72.0158C48.0552 73.6508 50.7612 75.0407 54.6154 75.6131V72.3837Z" fill="#F7BF30"/>
<path d="M58.3051 72.6289H57.0342V75.8583H58.3051V72.6289Z" fill="#FFC234"/>
<path d="M60.7648 68.7904C66.4265 68.7904 71.0155 67.0699 71.0155 64.9477C71.0155 62.8255 66.4265 61.105 60.7648 61.105C55.1036 61.105 50.5142 62.8255 50.5142 64.9477C50.5142 67.0699 55.1036 68.7904 60.7648 68.7904Z" fill="#FFCE5B"/>
<path d="M50.5142 68.1732C50.5142 70.2992 55.1065 72.016 60.7648 72.016C66.4236 72.016 71.0155 70.2992 71.0155 68.1732V64.9438C71.0155 67.0695 66.4236 68.7866 60.7648 68.7866C55.1065 68.7866 50.5142 67.0695 50.5142 64.9438V68.1732Z" fill="#FFE7AD"/>
<path d="M57.0746 68.5414C53.2204 67.969 50.5142 66.5792 50.5142 64.9438V68.1732C50.5142 69.8085 53.2204 71.1984 57.0746 71.7708V68.5414Z" fill="#F7BF30"/>
<path d="M60.7658 68.7861H59.4946V72.0158H60.7658V68.7861Z" fill="#FFC234"/>
<path d="M58.715 64.7035C64.3762 64.7035 68.9654 62.983 68.9654 60.8608C68.9654 58.7383 64.3762 57.0181 58.715 57.0181C53.0538 57.0181 48.4644 58.7383 48.4644 60.8608C48.4644 62.983 53.0538 64.7035 58.715 64.7035Z" fill="#FFCE5B"/>
<path d="M48.4644 64.089C48.4644 66.2147 53.0567 67.9318 58.715 67.9318C64.3733 67.9318 68.9654 66.2147 68.9654 64.089V60.8594C68.9654 62.9853 64.3733 64.7024 58.715 64.7024C53.0567 64.7024 48.4644 62.9853 48.4644 60.8594V64.089Z" fill="#FFE7AD"/>
<path d="M55.0248 64.4574C51.1706 63.8851 48.4644 62.4952 48.4644 60.8599V64.0895C48.4644 65.7248 51.1706 67.1147 55.0248 67.6871V64.4574Z" fill="#F7BF30"/>
<path d="M58.7147 64.7026H57.4438V67.932H58.7147V64.7026Z" fill="#FFC234"/>
<path d="M57.4848 60.1259C63.1462 60.1259 67.7359 58.4054 67.7359 56.2832C67.7359 54.1609 63.1462 52.4404 57.4848 52.4404C51.8236 52.4404 47.2344 54.1609 47.2344 56.2832C47.2344 58.4054 51.8236 60.1259 57.4848 60.1259Z" fill="#FFCE5B"/>
<path d="M47.2344 59.5121C47.2344 61.6378 51.8265 63.3548 57.4848 63.3548C63.143 63.3548 67.7359 61.6378 67.7359 59.5121V56.2827C67.7359 58.4084 63.143 60.1252 57.4848 60.1252C51.8265 60.1252 47.2344 58.4084 47.2344 56.2827V59.5121Z" fill="#FFE7AD"/>
<path d="M57.485 60.1255H56.2139V63.3549H57.485V60.1255Z" fill="#FFC234"/>
<path d="M59.5358 56.039C65.197 56.039 69.7862 54.3185 69.7862 52.1962C69.7862 50.074 65.197 48.3535 59.5358 48.3535C53.8746 48.3535 49.2852 50.074 49.2852 52.1962C49.2852 54.3185 53.8746 56.039 59.5358 56.039Z" fill="#FFCE5B"/>
<path d="M49.2852 55.425C49.2852 57.5506 53.8773 59.2674 59.5358 59.2674C65.1941 59.2674 69.7862 57.5506 69.7862 55.425V52.1953C69.7862 54.321 65.1941 56.038 59.5358 56.038C53.8773 56.038 49.2852 54.321 49.2852 52.1953V55.425Z" fill="#FFE7AD"/>
<path d="M55.8453 55.7929C51.9912 55.2205 49.2852 53.8306 49.2852 52.1953V55.425C49.2852 57.06 51.9912 58.4499 55.8453 59.0222V55.7929Z" fill="#F7BF30"/>
<path d="M59.5353 56.0376H58.2642V59.267H59.5353V56.0376Z" fill="#FFC234"/>
<path d="M56.6649 52.1972C62.3261 52.1972 66.9156 50.4767 66.9156 48.3542C66.9156 46.232 62.3261 44.5117 56.6649 44.5117C51.0037 44.5117 46.4146 46.232 46.4146 48.3542C46.4146 50.4767 51.0037 52.1972 56.6649 52.1972Z" fill="#FFCE5B"/>
<path d="M46.4146 51.5839C46.4146 53.7098 51.0067 55.4266 56.6649 55.4266C62.3232 55.4266 66.9156 53.7098 66.9156 51.5839V48.3545C66.9156 50.4802 62.3232 52.1972 56.6649 52.1972C51.0067 52.1972 46.4146 50.4802 46.4146 48.3545V51.5839Z" fill="#FFE7AD"/>
<path d="M52.9747 51.9518C49.1206 51.3797 46.4146 49.9895 46.4146 48.3545V51.5839C46.4146 53.2192 49.1206 54.6091 52.9747 55.1814V51.9518Z" fill="#F7BF30"/>
<path d="M56.6652 52.1963H55.394V55.4257H56.6652V52.1963Z" fill="#FFC234"/>
<path d="M57.8952 48.1107C63.5564 48.1107 68.1458 46.3902 68.1458 44.268C68.1458 42.1458 63.5564 40.4253 57.8952 40.4253C52.234 40.4253 47.6445 42.1458 47.6445 44.268C47.6445 46.3902 52.234 48.1107 57.8952 48.1107Z" fill="#FFCE5B"/>
<path d="M57.8948 42.2245C61.913 42.2245 65.2342 43.1648 65.6445 44.3502C65.6852 44.2685 65.6852 44.1867 65.6852 44.105C65.6852 42.7969 62.2002 41.7339 57.8948 41.7339C53.5897 41.7339 50.1045 42.7969 50.1045 44.105C50.1045 44.1867 50.1045 44.2685 50.1455 44.3502C50.5145 43.1648 53.8357 42.2245 57.8948 42.2245Z" fill="#FFE7AD"/>
<path d="M47.6445 47.496C47.6445 49.6217 52.2369 51.3387 57.8952 51.3387C63.5535 51.3387 68.1458 49.6217 68.1458 47.496V44.2666C68.1458 46.3923 63.5535 48.1093 57.8952 48.1093C52.2369 48.1093 47.6445 46.3923 47.6445 44.2666V47.496Z" fill="#FFE7AD"/>
<path d="M54.205 47.8639C50.3505 47.2915 47.6445 45.9017 47.6445 44.2666V47.496C47.6445 49.1313 50.3505 50.5212 54.205 51.0935V47.8639Z" fill="#F7BF30"/>
<path d="M65.6852 44.104C65.6852 45.4122 62.2002 46.4752 57.8948 46.4752C53.5897 46.4752 50.1045 45.4122 50.1045 44.104C50.1045 42.7959 53.5897 41.7329 57.8948 41.7329C62.2002 41.7329 65.6852 42.7959 65.6852 44.104Z" fill="#FFE7AD"/>
<path d="M57.8952 48.1094H56.624V51.3388H57.8952V48.1094Z" fill="#FFC234"/>
<path d="M56.952 43.6141L56.993 42.6738H56.46C56.255 42.6738 56.0911 42.6738 55.9268 42.7146C55.7628 42.7556 55.5988 42.7556 55.4758 42.7966C55.2299 42.8783 55.0659 43.001 55.0249 43.1235C54.9839 43.3686 55.5988 43.6141 56.378 43.6141H56.952Z" fill="#FFE7AD"/>
<path d="M58.0999 45.0444H59.4937C60.3139 45.0444 60.9699 44.7993 60.9289 44.5131C60.8879 44.3496 60.6419 44.1862 60.2319 44.1042C59.9857 44.0635 59.6987 44.0225 59.4117 44.0225H58.0586L58.0999 45.0444Z" fill="#FFE7AD"/>
<path d="M53.6309 44.6768C53.5489 45.1266 54.4919 45.4945 55.763 45.4945H56.8702L56.8292 46.0669H58.1001V45.4945H59.5352C61.0523 45.4945 62.2415 45.0446 62.1595 44.5133C62.0775 44.0227 60.8473 43.614 59.4122 43.614H58.1001V42.6738H58.7973C59.2072 42.6738 59.6172 42.7555 59.8222 42.8372C59.9452 42.919 60.0274 42.96 60.0684 43.0827H61.1753C61.1343 42.6738 60.0274 42.3466 58.7973 42.3059H58.1001V41.938H56.9932V42.3059H56.4602C55.1071 42.3059 53.9589 42.6738 53.8769 43.1234C53.7949 43.573 54.9018 43.9819 56.337 43.9819H56.9112L56.8702 45.0039H55.804C55.2301 45.0039 54.7791 44.8405 54.8201 44.636H53.6309V44.6768ZM60.2324 44.1047C60.6424 44.1864 60.8883 44.3498 60.9293 44.5133C60.9703 44.7995 60.3141 45.0446 59.4942 45.0446H58.1001V44.0227H59.4532C59.6992 44.0227 59.9862 44.0637 60.2324 44.1047ZM55.0251 43.1644C55.0251 43.0417 55.1891 42.919 55.476 42.8372C55.599 42.7965 55.763 42.7555 55.927 42.7555C56.091 42.7145 56.255 42.7145 56.4602 42.7145H56.9932L56.9522 43.6548H56.4192C55.599 43.614 54.9841 43.4096 55.0251 43.1644Z" fill="#FFC234"/>
<path d="M32.7203 76.7174C38.3815 76.7174 42.971 74.9972 42.971 72.875C42.971 70.7525 38.3815 69.0322 32.7203 69.0322C27.0591 69.0322 22.4697 70.7525 22.4697 72.875C22.4697 74.9972 27.0591 76.7174 32.7203 76.7174Z" fill="#FFCE5B"/>
<path d="M22.4697 76.1039C22.4697 78.2298 27.062 79.9464 32.7203 79.9464C38.3786 79.9464 42.971 78.2298 42.971 76.1039V72.8745C42.971 75.0002 38.3786 76.7172 32.7203 76.7172C27.062 76.7172 22.4697 75.0002 22.4697 72.8745V76.1039Z" fill="#FFE7AD"/>
<path d="M29.0301 76.4723C25.1759 75.8994 22.4697 74.5096 22.4697 72.8745V76.1039C22.4697 77.739 25.1759 79.1294 29.0301 79.7015V76.4723Z" fill="#F7BF30"/>
<path d="M32.7201 76.7173H31.4492V79.9467H32.7201V76.7173Z" fill="#FFC234"/>
<path d="M32.3102 72.6293C37.9714 72.6293 42.5608 70.9091 42.5608 68.7866C42.5608 66.6644 37.9714 64.9438 32.3102 64.9438C26.649 64.9438 22.0596 66.6644 22.0596 68.7866C22.0596 70.9091 26.649 72.6293 32.3102 72.6293Z" fill="#FFCE5B"/>
<path d="M22.0596 72.0158C22.0596 74.1415 26.6519 75.8585 32.3102 75.8585C37.9684 75.8585 42.5608 74.1415 42.5608 72.0158V68.7861C42.5608 70.9118 37.9684 72.6289 32.3102 72.6289C26.6519 72.6289 22.0596 70.9118 22.0596 68.7861V72.0158Z" fill="#FFE7AD"/>
<path d="M28.62 72.3837C24.7657 71.8113 22.0596 70.4215 22.0596 68.7861V72.0158C22.0596 73.6508 24.7657 75.041 28.62 75.6131V72.3837Z" fill="#F7BF30"/>
<path d="M32.3109 72.6294H31.04V75.8588H32.3109V72.6294Z" fill="#FFC234"/>
<path d="M34.7699 68.7904C40.4311 68.7904 45.0206 67.0699 45.0206 64.9477C45.0206 62.8255 40.4311 61.105 34.7699 61.105C29.1087 61.105 24.5195 62.8255 24.5195 64.9477C24.5195 67.0699 29.1087 68.7904 34.7699 68.7904Z" fill="#FFCE5B"/>
<path d="M24.5195 68.1735C24.5195 70.2992 29.1117 72.0162 34.7699 72.0162C40.4285 72.0162 45.0206 70.2992 45.0206 68.1735V64.9438C45.0206 67.0698 40.4285 68.7866 34.7699 68.7866C29.1117 68.7866 24.5195 67.0698 24.5195 64.9438V68.1735Z" fill="#FFE7AD"/>
<path d="M31.08 68.5414C27.2256 67.969 24.5195 66.5792 24.5195 64.9438V68.1735C24.5195 69.8085 27.2256 71.1984 31.08 71.7708V68.5414Z" fill="#F7BF30"/>
<path d="M34.7704 68.7861H33.4995V72.0158H34.7704V68.7861Z" fill="#FFC234"/>
<path d="M32.7203 64.7035C38.3815 64.7035 42.971 62.983 42.971 60.8608C42.971 58.7383 38.3815 57.0181 32.7203 57.0181C27.0591 57.0181 22.4697 58.7383 22.4697 60.8608C22.4697 62.983 27.0591 64.7035 32.7203 64.7035Z" fill="#FFCE5B"/>
<path d="M22.4697 64.0892C22.4697 66.2152 27.062 67.932 32.7203 67.932C38.3786 67.932 42.971 66.2152 42.971 64.0892V60.8599C42.971 62.9855 38.3786 64.7026 32.7203 64.7026C27.062 64.7026 22.4697 62.9855 22.4697 60.8599V64.0892Z" fill="#FFE7AD"/>
<path d="M29.0301 64.4571C25.1759 63.8851 22.4697 62.4949 22.4697 60.8599V64.0892C22.4697 65.7246 25.1759 67.1144 29.0301 67.6868V64.4571Z" fill="#F7BF30"/>
<path d="M32.7201 64.7026H31.4492V67.932H32.7201V64.7026Z" fill="#FFC234"/>
<path d="M34.3603 60.5756C40.0217 60.5756 44.6109 58.8554 44.6109 56.7329C44.6109 54.6106 40.0217 52.8901 34.3603 52.8901C28.6991 52.8901 24.1099 54.6106 24.1099 56.7329C24.1099 58.8554 28.6991 60.5756 34.3603 60.5756Z" fill="#FFCE5B"/>
<path d="M24.1099 59.9616C24.1099 62.0873 28.702 63.8043 34.3603 63.8043C40.0188 63.8043 44.6109 62.0873 44.6109 59.9616V56.7319C44.6109 58.8579 40.0188 60.5749 34.3603 60.5749C28.702 60.5749 24.1099 58.8579 24.1099 56.7319V59.9616Z" fill="#FFE7AD"/>
<path d="M30.6703 60.3295C26.8159 59.7571 24.1099 58.3673 24.1099 56.7319V59.9616C24.1099 61.5969 26.8159 62.9868 30.6703 63.5591V60.3295Z" fill="#F7BF30"/>
<path d="M34.3605 60.5742H33.0894V63.8036H34.3605V60.5742Z" fill="#FFC234"/>
<path d="M33.5401 56.0805C39.2013 56.0805 43.7908 54.36 43.7908 52.2377C43.7908 50.1155 39.2013 48.395 33.5401 48.395C27.8789 48.395 23.2896 50.1155 23.2896 52.2377C23.2896 54.36 27.8789 56.0805 33.5401 56.0805Z" fill="#FFCE5B"/>
<path d="M23.2896 55.466C23.2896 57.5917 27.8818 59.3084 33.5401 59.3084C39.1984 59.3084 43.7908 57.5917 43.7908 55.466V52.2363C43.7908 54.362 39.1984 56.0791 33.5401 56.0791C27.8818 56.0791 23.2896 54.362 23.2896 52.2363V55.466Z" fill="#FFE7AD"/>
<path d="M29.8499 55.8339C25.9958 55.2615 23.2896 53.8717 23.2896 52.2363V55.466C23.2896 57.101 25.9958 58.4909 29.8499 59.0633V55.8339Z" fill="#F7BF30"/>
<path d="M33.5407 56.0791H32.2695V59.3085H33.5407V56.0791Z" fill="#FFC234"/>
<path d="M33.1306 51.6657C38.7918 51.6657 43.381 49.9454 43.381 47.8229C43.381 45.7007 38.7918 43.9805 33.1306 43.9805C27.4694 43.9805 22.8799 45.7007 22.8799 47.8229C22.8799 49.9454 27.4694 51.6657 33.1306 51.6657Z" fill="#FFCE5B"/>
<path d="M22.8799 51.0519C22.8799 53.1776 27.472 54.8946 33.1306 54.8946C38.7889 54.8946 43.381 53.1776 43.381 51.0519V47.8223C43.381 49.9482 38.7889 51.665 33.1306 51.665C27.472 51.665 22.8799 49.9482 22.8799 47.8223V51.0519Z" fill="#FFE7AD"/>
<path d="M29.4401 51.4198C25.5861 50.8475 22.8799 49.4576 22.8799 47.8223V51.0519C22.8799 52.687 25.5861 54.0769 29.4401 54.6492V51.4198Z" fill="#F7BF30"/>
<path d="M33.1295 51.6646H31.8584V54.8942H33.1295V51.6646Z" fill="#FFC234"/>
<path d="M34.6884 47.6205C40.3496 47.6205 44.9391 45.9 44.9391 43.7778C44.9391 41.6556 40.3496 39.9351 34.6884 39.9351C29.0272 39.9351 24.438 41.6556 24.438 43.7778C24.438 45.9 29.0272 47.6205 34.6884 47.6205Z" fill="#FFCE5B"/>
<path d="M24.438 46.965C24.438 49.0907 29.0302 50.8075 34.6884 50.8075C40.347 50.8075 44.9391 49.0907 44.9391 46.965V43.7354C44.9391 45.861 40.347 47.5781 34.6884 47.5781C29.0302 47.5781 24.438 45.861 24.438 43.7354V46.965Z" fill="#FFE7AD"/>
<path d="M30.9982 47.3329C27.1441 46.7603 24.438 45.3704 24.438 43.7354V46.965C24.438 48.6001 27.1441 49.9899 30.9982 50.5623V47.3329Z" fill="#F7BF30"/>
<path d="M34.7289 47.5776H33.458V50.807H34.7289V47.5776Z" fill="#FFC234"/>
<path d="M36.4113 43.7382C42.0725 43.7382 46.6617 42.0177 46.6617 39.8955C46.6617 37.7732 42.0725 36.0527 36.4113 36.0527C30.7501 36.0527 26.1606 37.7732 26.1606 39.8955C26.1606 42.0177 30.7501 43.7382 36.4113 43.7382Z" fill="#FFCE5B"/>
<path d="M26.1606 43.1239C26.1606 45.2496 30.753 46.9666 36.4113 46.9666C42.0696 46.9666 46.6617 45.2496 46.6617 43.1239V39.8945C46.6617 42.0202 42.0696 43.7373 36.4113 43.7373C30.753 43.7373 26.1606 42.0202 26.1606 39.8945V43.1239Z" fill="#FFE7AD"/>
<path d="M32.7211 43.4918C28.8669 42.9195 26.1606 41.5296 26.1606 39.8945V43.1239C26.1606 44.7592 28.8669 46.1491 32.7211 46.7215V43.4918Z" fill="#F7BF30"/>
<path d="M36.4108 43.7358H35.1396V46.9655H36.4108V43.7358Z" fill="#FFC234"/>
<path d="M34.3604 39.6918C40.0216 39.6918 44.6111 37.9713 44.6111 35.8488C44.6111 33.7266 40.0216 32.0063 34.3604 32.0063C28.6992 32.0063 24.1099 33.7266 24.1099 35.8488C24.1099 37.9713 28.6992 39.6918 34.3604 39.6918Z" fill="#FFCE5B"/>
<path d="M34.3604 33.8051C38.3786 33.8051 41.6995 34.7453 42.1098 35.9308C42.1508 35.849 42.1508 35.7673 42.1508 35.6856C42.1508 34.3774 38.6655 33.3145 34.3604 33.3145C30.055 33.3145 26.5698 34.3774 26.5698 35.6856C26.5698 35.7673 26.5698 35.849 26.6108 35.9308C27.0208 34.7453 30.342 33.8051 34.3604 33.8051Z" fill="#FFE7AD"/>
<path d="M24.1099 39.036C24.1099 41.162 28.7021 42.879 34.3604 42.879C40.0187 42.879 44.6111 41.162 44.6111 39.036V35.8066C44.6111 37.9323 40.0187 39.6494 34.3604 39.6494C28.7021 39.6494 24.1099 37.9323 24.1099 35.8066V39.036Z" fill="#FFE7AD"/>
<path d="M30.6702 39.4042C26.816 38.8318 24.1099 37.442 24.1099 35.8066V39.036C24.1099 40.6713 26.816 42.0612 30.6702 42.6336V39.4042Z" fill="#F7BF30"/>
<path d="M42.1508 35.6855C42.1508 36.9936 38.6655 38.0566 34.3604 38.0566C30.055 38.0566 26.5698 36.9936 26.5698 35.6855C26.5698 34.3773 30.055 33.3146 34.3604 33.3146C38.6655 33.2736 42.1508 34.3366 42.1508 35.6855Z" fill="#FFE7AD"/>
<path d="M34.3605 39.6494H33.0894V42.8791H34.3605V39.6494Z" fill="#FFC234"/>
<path d="M38.7886 36.1758C38.7886 36.135 38.7886 36.094 38.7886 36.0533C38.7473 35.6851 38.3374 35.44 37.8044 35.2765C37.8044 35.1538 37.8044 34.9086 37.8044 34.7859C37.8044 34.7451 37.8044 34.7041 37.8044 34.7041C37.7224 34.0911 36.4513 33.7639 35.2214 33.7639H34.7292V33.6004C34.7292 33.4777 34.6472 33.396 34.5242 33.396H33.4583C33.335 33.396 33.253 33.4777 33.253 33.6004V33.7639H32.9251C31.6132 33.7639 30.26 34.0911 30.1371 34.7451C30.1371 34.7859 30.1371 34.8269 30.1371 34.8676C30.1371 34.8676 30.1371 34.8676 30.1371 34.9086V35.4809C30.1371 35.6034 30.1371 35.7261 30.26 35.8898C30.342 35.9713 30.424 36.0533 30.547 36.094H30.0551C30.0141 36.094 30.0141 36.094 29.9731 36.094C29.9731 36.094 29.9321 36.094 29.9321 36.135C29.9321 36.135 29.9321 36.135 29.8908 36.1758C29.8908 36.1758 29.8908 36.1758 29.8498 36.2167C29.8498 36.2167 29.8498 36.2575 29.8091 36.2575C29.8091 36.2985 29.8091 36.3392 29.8091 36.3802V36.9525C29.8091 37.0753 29.8091 37.198 29.9321 37.3614C30.26 37.7293 31.121 37.9745 32.1461 37.9745H33.0071V38.3424C33.0071 38.4652 33.089 38.5469 33.2123 38.5469H34.4832C34.6062 38.5469 34.6882 38.4652 34.6882 38.3424V37.9745H35.8773C37.1485 37.9745 38.5423 37.6474 38.6653 36.9525C38.6653 36.9525 38.6653 36.9116 38.6653 36.8708C38.7886 36.8298 38.7886 36.6664 38.7886 36.1758ZM32.2691 36.5847H33.335L33.3763 35.5627H32.8021C31.3669 35.5627 30.26 35.1538 30.342 34.7041C30.424 34.2545 31.5722 33.8866 32.9251 33.8866H33.4583V33.5187H34.5242V33.8866H35.2214C36.4923 33.8866 37.5584 34.2135 37.5994 34.6632H36.4923C36.4923 34.5814 36.4103 34.4997 36.2463 34.418C36.0003 34.2953 35.6313 34.2545 35.2214 34.2545H34.5242V35.1948H35.8363C37.2715 35.1948 38.4603 35.6034 38.5833 36.094C38.6653 36.6254 37.5174 37.0753 35.9593 37.0753H34.5242V37.6474H33.253L33.294 37.0753H32.1871C30.916 37.0753 29.9731 36.7074 30.0551 36.2575H31.2439C31.2849 36.4212 31.6949 36.5847 32.2691 36.5847Z" fill="#FFE7AD"/>
<path d="M33.4176 35.1541L33.4586 34.2139H32.9254C32.7204 34.2139 32.5564 34.2139 32.3924 34.2549C32.2284 34.2959 32.0644 34.2956 31.9414 34.3366C31.6955 34.4183 31.5315 34.541 31.4902 34.6635C31.4492 34.9089 32.0644 35.1541 32.8434 35.1541H33.4176Z" fill="#FFE7AD"/>
<path d="M34.5652 36.5845H35.9591C36.7792 36.5845 37.4352 36.339 37.3942 36.0529C37.3532 35.8894 37.1072 35.726 36.6973 35.644C36.4513 35.6032 36.164 35.5625 35.8771 35.5625H34.5239L34.5652 36.5845Z" fill="#FFE7AD"/>
<path d="M30.0953 36.2163C30.0133 36.6662 30.9565 37.0341 32.2276 37.0341H33.3345L33.2935 37.6064H34.5647V37.0341H35.9998C37.5167 37.0341 38.7058 36.5842 38.6238 36.0528C38.5418 35.5622 37.3117 35.1536 35.8766 35.1536H34.5647V34.2133H35.2616C35.6716 34.2133 36.0815 34.2951 36.2865 34.3768C36.4098 34.4585 36.4918 34.4995 36.5328 34.622H37.6399C37.5987 34.2133 36.4918 33.8862 35.2616 33.8454H34.5647V33.4775H33.4985V33.8454H32.9656C31.6124 33.8454 30.4643 34.2133 30.3823 34.663C30.3003 35.1126 31.4074 35.5215 32.8426 35.5215H33.4165L33.3755 36.5435H32.3094C31.7354 36.5435 31.2845 36.38 31.3254 36.1756H30.0953V36.2163ZM36.6968 35.6442C37.1067 35.7259 37.3527 35.8894 37.3937 36.0528C37.4347 36.339 36.7787 36.5842 35.9585 36.5842H34.5647V35.5622H35.9176C36.2048 35.5622 36.4918 35.6032 36.6968 35.6442ZM31.4894 34.704C31.4894 34.5812 31.6534 34.4585 31.9404 34.3768C32.0634 34.3361 32.2276 34.2951 32.3916 34.2951C32.5556 34.2541 32.7196 34.2541 32.9246 34.2541H33.4575L33.4165 35.1943H32.8836C32.0634 35.1536 31.4484 34.9491 31.4894 34.704Z" fill="#FFC234"/>
<path d="M60.4146 80.3344L56.7518 81.3641C56.6898 81.3806 56.6211 81.3739 56.5612 81.3503L55.7815 81.0505C55.7059 81.0183 55.6225 81.0553 55.5906 81.1309L55.3627 81.6471C55.3183 81.7264 55.2421 81.7882 55.1484 81.7874C54.7688 81.8148 53.778 81.8529 53.6568 81.5677C53.5134 81.2483 53.6789 79.3771 53.6236 78.5668C54.0801 78.8117 54.9903 79.0744 56.3086 78.3975C56.5708 78.6168 57.1082 78.986 58.0895 79.1498C59.6636 79.4272 60.6395 79.618 60.8458 79.7338C61.0521 79.8494 61.0332 80.1608 60.4146 80.3344Z" fill="black"/>
<path d="M56.1821 67.7265C56.8087 71.7854 56.6391 77.2802 56.6024 78.1425C56.5952 78.2112 56.563 78.2865 56.4922 78.3198C56.4216 78.353 56.3665 78.3954 56.296 78.4286C54.9777 79.1056 54.0676 78.8147 53.6075 78.5578C53.5125 78.505 53.4454 78.4569 53.3943 78.4177C53.3275 78.3709 53.2942 78.3003 53.2854 78.2229C53.2596 77.5635 52.9652 75.4359 52.08 72.1155C51.1283 68.5608 48.3491 63.9748 46.3084 60.8192C44.2676 57.6638 42.5615 55.2669 40.7174 51.3901C39.2959 48.3936 39.0874 44.963 38.9996 42.8567C38.9833 42.422 39.0962 42.0174 39.3164 41.6625C41.0752 41.6476 43.5406 41.1546 46.8735 40.0448C47.2167 39.9351 47.5561 39.8129 47.908 39.6875C48.4905 41.2283 49.5793 45.4105 50.724 49.2705C51.2894 51.1758 51.8585 53.0004 52.396 54.3809C54.1613 58.972 55.4987 63.3239 56.1821 67.7265Z" fill="#232533"/>
<path d="M40.7174 51.3952C42.5615 55.2721 44.2676 57.6693 46.3084 60.8246C47.6434 62.8886 49.2944 65.565 50.5429 68.1643C49.0061 60.2283 48.138 55.6839 47.3168 48.4712C46.6779 42.8622 45.859 41.0943 45.6463 40.4429C42.9262 41.2772 40.8521 41.6547 39.3164 41.6677C39.0962 42.0226 38.9833 42.4272 38.9996 42.8622C39.0874 44.9682 39.2959 48.3988 40.7174 51.3952Z" fill="#151518"/>
<path d="M48.3381 82.7908H44.5327C44.4682 82.7908 44.4041 82.7653 44.3527 82.727L43.684 82.2265C43.6198 82.1754 43.5299 82.1882 43.4782 82.2518L43.1183 82.6878C43.0541 82.7525 42.9642 82.7908 42.8742 82.7653C42.5012 82.6878 41.537 82.4576 41.4984 82.1501C41.447 81.8043 42.1155 80.0476 42.2827 79.2529C42.6556 79.6115 43.4564 80.113 44.9094 79.8181C45.1021 80.1003 45.5227 80.5991 46.4225 81.0214C47.8624 81.714 48.7494 82.1629 48.9166 82.3292C49.0838 82.4959 48.981 82.7908 48.3381 82.7908Z" fill="black"/>
<path d="M47.6947 69.5113C47.1931 73.5875 45.5349 78.83 45.2647 79.6509C45.2391 79.7146 45.1878 79.7782 45.1106 79.791C45.0334 79.8048 44.9689 79.8301 44.892 79.8429C43.439 80.1378 42.642 79.6118 42.2693 79.2405C42.1921 79.163 42.1405 79.0994 42.1021 79.0482C42.0505 78.9836 42.0377 78.9072 42.0508 78.83C42.2049 78.1892 42.5007 76.0614 42.552 72.6262C42.6034 68.9472 41.1765 63.7814 40.0707 60.1924C38.9651 56.6034 37.9751 53.8345 37.255 49.6047C36.7023 46.3359 37.4352 42.9777 37.9237 40.9268C38.0265 40.5036 38.245 40.1447 38.5536 39.8628C40.2506 40.3244 42.7578 40.5166 46.2675 40.35C46.6277 40.3369 46.9876 40.3114 47.3603 40.2858C47.5019 41.9264 47.4117 46.2462 47.4633 50.271C47.4889 52.258 47.5405 54.1678 47.6819 55.6421C48.1318 60.5385 48.2348 65.089 47.6947 69.5113Z" fill="#232533"/>
<path d="M47.6567 40.6443C47.6567 40.6571 47.6567 40.6826 47.6567 40.6957C45.1367 41.029 43.9412 40.7726 43.3755 40.4521C43.3755 40.4393 43.3755 40.4266 43.3883 40.4135C44.1211 37.1961 45.4839 32.7227 45.4839 29.9797C45.4839 27.4928 45.3939 24.2627 43.774 21.5452C43.8254 21.5196 43.8768 21.4811 43.9281 21.4683C44.5841 21.1479 45.3939 21.2889 46.2295 21.5068C48.1452 23.3654 48.5567 25.224 48.6081 29.4156C48.6595 34.0815 47.8883 38.2218 47.6567 40.6443Z" fill="#F4F7FF"/>
<path d="M45.4839 29.9793C45.4839 32.7225 44.1212 37.1959 43.3883 40.4133C43.3883 40.4261 43.3883 40.4391 43.3753 40.4517C42.9512 42.3234 42.7968 44.2332 42.7326 45.5022C42.7068 46.0532 42.694 46.4762 42.694 46.7326C42.694 46.8737 42.5782 46.9762 42.4369 46.9634C41.5113 46.8737 38.2329 46.3099 35.4686 42.9C35.3786 42.7847 35.3786 42.6308 35.4558 42.5156C35.9957 41.7337 37.9369 38.6188 38.1171 34.2735C38.3357 29.2232 37.1012 27.1593 38.4898 25.3519C39.0299 25.1212 41.5626 22.9806 43.1439 21.9295C43.3753 21.7756 43.581 21.6475 43.761 21.5449C45.3939 24.2496 45.4839 27.4926 45.4839 29.9793Z" fill="#0066FF"/>
<path d="M51.3849 41.4899C50.5493 43.0922 49.6237 44.6048 48.8136 45.5916C48.7494 45.6686 48.6208 45.6558 48.5695 45.5533C48.2995 44.8739 47.5022 42.6948 47.6694 40.6953C47.6694 40.6697 47.6694 40.6567 47.6694 40.6439C47.888 38.2214 48.6595 34.081 48.6078 29.4152C48.5564 25.2236 48.1451 23.365 46.2295 21.5063C46.7052 21.6345 47.1937 21.7755 47.6566 21.8652C47.9266 21.9165 48.1837 21.955 48.4281 21.9678C52.0664 24.1982 51.6293 30.1587 51.6293 30.1587C51.6293 30.1587 52.2591 39.7851 51.3849 41.4899Z" fill="#0066FF"/>
<path d="M45.4839 29.9793C45.4839 32.7225 44.1209 37.1959 43.3881 40.4133C43.3881 40.4261 43.3881 40.4389 43.3753 40.4517C42.9509 42.3234 42.7968 44.2332 42.7324 45.5022C42.591 38.8368 41.7296 35.5425 41.421 34.5682C41.3569 34.376 41.4083 34.1582 41.5624 34.0171L43.5294 32.1584C43.6966 31.9918 43.7352 31.7354 43.6066 31.5432L42.6296 29.9923C42.5269 29.8257 42.5138 29.6076 42.6038 29.4282C44.9952 24.8135 43.1567 21.9295 43.1567 21.9295C43.3881 21.7756 43.5938 21.6475 43.7738 21.5449C45.3937 24.2496 45.4839 27.4926 45.4839 29.9793Z" fill="#418DFF"/>
<path d="M49.7784 33.0557C50.3699 35.2863 49.7784 37.1191 49.1871 39.5419C48.5956 41.9647 48.557 45.5665 48.557 45.5665C48.2871 44.8871 47.49 42.7079 47.6572 40.7084C47.6572 40.6826 47.6572 40.6698 47.6572 40.657C47.8758 38.2345 48.6472 34.0942 48.5956 29.4283C48.5442 25.2368 48.1329 23.3781 46.2173 21.5195C46.6927 21.6477 47.1815 21.7887 47.6442 21.8784C48.9686 23.7883 50.1771 27.9285 50.4343 28.877C50.4726 28.9926 50.4471 29.1206 50.3699 29.2234C50.0741 29.6333 49.3412 30.6974 49.2771 31.2101C49.2257 31.8253 49.1999 30.8126 49.7784 33.0557Z" fill="#418DFF"/>
<path d="M71.8137 9.55459L68.3165 14.8613C68.2526 14.9639 68.2782 15.092 68.3812 15.1561L70.0264 16.2328C70.1294 16.2969 70.2583 16.2713 70.3221 16.1688L73.8193 10.8621C73.8832 10.7595 73.8577 10.6313 73.7554 10.5672L72.1095 9.49051C72.0192 9.42644 71.8776 9.45202 71.8137 9.55459Z" fill="#F7A120"/>
<path d="M71.5185 10.7215L69.2818 14.1183C69.1913 14.2593 69.2296 14.4388 69.3712 14.5413L70.2202 15.1053C70.3618 15.195 70.5415 15.1566 70.6448 15.0155L72.8814 11.6188C72.9717 11.4778 72.9326 11.2983 72.792 11.1958L71.9428 10.6318C71.7887 10.5548 71.6087 10.5933 71.5185 10.7215Z" fill="#FFFFFE"/>
<path d="M70.6445 10.3109L68.5484 13.4898C68.4848 13.5924 68.5101 13.7206 68.6123 13.7847L68.908 13.977L71.2352 10.4391L70.9395 10.2469C70.8372 10.1828 70.7084 10.2084 70.6445 10.3109Z" fill="#D3840E"/>
<path d="M67.8412 4.7866C68.1761 2.42807 67.8803 1.09502 66.8642 0.428503C66.5045 0.197774 66.0546 -0.0971297 65.4631 0.031119C64.8458 0.172104 64.2159 0.761715 63.4961 1.86412L63.9588 2.15893C64.5886 1.19751 65.1415 0.659235 65.6045 0.556654C65.9386 0.479743 66.2088 0.633564 66.5812 0.87713C67.0825 1.21034 67.6995 1.95387 67.3143 4.69697C67.276 5.01732 67.3782 5.33781 67.5973 5.5557L67.6101 5.56854C67.6356 5.70952 67.7134 5.8505 67.8539 5.94024C68.1114 6.10692 68.4455 6.03001 68.6124 5.78643C68.7795 5.53015 68.7029 5.19683 68.4582 5.03018C68.2783 4.91486 68.0602 4.91486 67.8931 5.01735C67.8412 4.95327 67.8284 4.87634 67.8412 4.7866Z" fill="#F7A120"/>
<path d="M62.3513 13.1179C60.3199 14.3612 58.9571 14.6177 57.9543 13.9639C57.5944 13.7331 57.1442 13.4383 57.0415 12.8359C56.9257 12.2206 57.2215 11.4131 57.9415 10.2979L58.4042 10.5927C57.7744 11.5541 57.4914 12.2718 57.5816 12.7333C57.6458 13.0794 57.8902 13.2588 58.2629 13.5024C58.7644 13.8357 59.7028 14.092 62.0683 12.6564C62.3385 12.4897 62.6857 12.4642 62.9684 12.5795C62.9684 12.5795 62.9812 12.5795 62.9812 12.5923C63.1228 12.5539 63.2897 12.5795 63.4183 12.6692C63.6754 12.8359 63.7398 13.1691 63.5727 13.4255C63.4055 13.6819 63.0714 13.746 62.814 13.5793C62.6343 13.464 62.544 13.2588 62.5699 13.0666C62.5054 13.0538 62.4285 13.0794 62.3513 13.1179Z" fill="#F7A120"/>
<path d="M62.9041 1.4924L65.694 3.31257C66.8637 4.08167 67.6096 5.23532 67.867 6.50428C67.9309 6.8376 67.9693 7.17081 67.9693 7.50411C67.9693 8.68334 68.5863 9.76007 69.5769 10.4139L70.2834 10.8753L68.9332 12.9262L68.2267 12.4648C67.2361 11.811 65.9892 11.7085 64.8839 12.17C63.3798 12.798 61.6055 12.6955 60.1526 11.7341L57.363 9.91389C57.0286 9.696 58.0056 7.63226 59.5355 5.31222C61.0526 2.97925 62.5698 1.2745 62.9041 1.4924Z" fill="#F7A120"/>
<path d="M60.7375 6.10355C62.2693 3.77795 63.2415 1.71626 62.9093 1.49866C62.5768 1.28106 61.0658 2.98994 59.534 5.31555C58.0022 7.64117 57.0301 9.70286 57.3625 9.92046C57.6948 10.1381 59.206 8.42918 60.7375 6.10355Z" fill="#D3850E"/>
<path d="M65.0128 8.31127L64.7557 8.69581L62.3001 7.0807C62.0944 6.95257 61.9016 6.81159 61.7345 6.68333C61.7472 6.73465 61.7603 6.79873 61.7603 6.8628C61.7731 6.92688 61.7986 7.20896 61.85 7.72165L61.4387 7.74734L61.3359 6.37577L61.5545 6.04248L65.0128 8.31127Z" fill="#F0EEF5"/>
<path d="M60.4877 5.93985C59.215 7.87543 58.2249 9.00341 57.7237 9.43922C57.6851 9.46489 57.6465 9.43922 57.6592 9.40081C57.865 8.77269 58.5076 7.41399 59.7807 5.4784C61.0534 3.5429 62.0434 2.41493 62.5447 1.97904C62.5833 1.95347 62.6219 1.97904 62.6091 2.01754C62.4033 2.64566 61.7604 4.00438 60.4877 5.93985Z" fill="#F7A120"/>
<path d="M54.6982 14.5244C54.3886 14.9075 53.9552 15.3024 53.349 15.5933C53.0767 15.7236 52.7703 15.8334 52.4242 15.9118C51.5574 16.1077 50.1148 16.1645 49.5145 16.1792C49.3612 16.1831 49.2385 16.3085 49.2385 16.4614V17.8468C49.2385 17.9614 49.145 18.0535 49.0311 18.0535H48.5732C48.459 18.0535 48.3666 17.9614 48.3658 17.8477C48.3618 17.5391 48.3009 16.9571 47.9314 16.6191C47.4125 16.143 46.9634 16.2968 46.8652 16.7592C46.767 17.2207 46.5705 18.2984 46.4859 19.0127C46.4015 19.7259 46.0876 20.5536 45.1088 20.8514C44.5085 19.2241 43.4955 16.6191 43.524 14.9114C43.5517 13.2037 43.4955 11.7762 44.8439 10.8249C46.1912 9.8726 48.3677 10.9082 49.2385 10.8249C50.1082 10.7407 51.0761 9.70507 51.526 9.48071C51.9751 9.25731 53.4914 9.56497 54.2491 10.7407C55.0067 11.9163 55.1472 13.9699 54.6982 14.5244Z" fill="#383852"/>
<path d="M49.379 19.8823C49.3532 19.9849 49.276 20.0746 49.1604 20.1002C48.8133 20.1516 48.016 20.254 47.2576 20.113C47.1676 20.1002 47.0776 20.1644 47.0776 20.2669V22.0255L46.3575 22.7434C46.2934 22.8075 46.1776 22.8203 46.1006 22.7689L44.5321 21.7179V19.3568C44.5321 19.3568 44.0306 18.5877 44.3649 17.9852C44.6091 17.5366 45.2133 17.7802 45.4963 17.934C45.5605 17.9724 45.6505 17.9212 45.6377 17.8443C45.5991 17.3828 45.5219 16.1779 45.6505 15.601C45.6763 15.4729 45.8304 15.4088 45.9462 15.4729C46.332 15.6908 47.2834 16.1522 48.4403 16.242C48.7361 16.2677 49.0318 16.2548 49.3404 16.2163C49.4045 17.1137 49.5459 18.9851 49.379 19.8823Z" fill="#FEBFAE"/>
<path d="M44.5195 19.3945C44.5195 19.3945 46.0111 19.8944 46.6796 19.9841C46.7823 19.997 46.8081 20.1251 46.7309 20.1765C46.551 20.2789 46.0239 20.3687 44.5195 20.1379V19.3945Z" fill="#EDA895"/>
<path d="M41.3954 31.7344C40.7525 33.7983 38.477 36.1825 37.41 37.0669C36.3428 37.9512 34.7229 40.1304 33.7329 41.9249C33.1158 43.0401 32.2802 44.681 31.7272 45.7833L29.1945 44.8987L28.976 44.7962C28.8218 44.7193 28.7705 44.5399 28.8346 44.3988C29.2076 43.6297 30.2618 41.3994 30.763 40.0535C31.3673 38.4 32.1644 35.7081 33.0775 33.042C33.99 30.3629 35.2114 28.1198 36.5999 26.5047C38.0013 24.8896 40.457 24.928 41.2155 26.3765C41.9739 27.7993 42.0383 29.658 41.3954 31.7344Z" fill="#0066FF"/>
<path d="M31.0201 49.7925C30.8274 49.7925 30.5958 49.5744 30.4544 49.4336C30.4158 49.395 30.3516 49.4206 30.3386 49.4719C30.2617 49.9463 29.7859 50.6385 28.9245 50.2796C27.9603 49.8949 27.6517 48.7156 28.0247 48.0491C28.2433 47.6646 28.5518 47.075 28.7831 46.6389C28.8731 46.4723 28.9503 46.3187 29.0017 46.2162C29.0275 46.1776 29.0275 46.1265 29.0017 46.0879L31.1228 46.9595C31.0973 47.075 31.0459 47.3314 31.0587 47.626C31.0715 47.8185 31.0973 48.0235 31.1873 48.2285C31.4572 48.8823 31.29 49.7925 31.0201 49.7925Z" fill="#FEBFAE"/>
<path d="M31.727 45.7681C31.3929 46.4347 31.1613 46.8961 31.1613 46.8961C31.1613 46.8961 31.1485 46.9219 31.1357 46.973L29.0143 46.1014C29.0015 46.0631 28.9757 46.0373 28.9502 46.0245C28.8216 45.9476 28.7699 45.7681 28.8344 45.6273L29.1943 44.8838L31.727 45.7681Z" fill="#A0B1F9"/>
<path d="M67.2378 14.5624C67.2378 14.5624 65.9131 17.7542 63.4704 20.5742C61.0276 23.3942 56.6179 27.9318 51.6294 30.1621C51.6294 30.1621 52.0665 24.2018 48.4282 21.9714C48.5054 21.9714 48.5826 21.9714 48.6596 21.9714C50.1509 21.8816 54.5606 21.292 57.942 19.5231C61.272 17.7798 63.8561 15.7673 64.7303 13.5369C64.7559 13.4729 64.8203 13.4345 64.8975 13.4473C64.9361 13.46 64.9875 13.46 65.0389 13.4729C65.4888 13.5498 66.4791 13.8446 67.2378 14.5624Z" fill="#0066FF"/>
<path d="M67.5843 14.0153L67.2375 14.5665C66.4915 13.8487 65.5015 13.5538 65.0386 13.4642L65.4374 12.772C65.4501 12.7079 65.5271 12.6823 65.5787 12.7207L67.5588 13.8487C67.6099 13.8743 67.6227 13.9512 67.5843 14.0153Z" fill="#A0B1F9"/>
<path d="M67.2764 13.682C67.5466 13.6051 68.6905 12.8616 68.5617 12.6181C68.4331 12.3746 66.8135 11.6439 66.6849 11.4645C66.556 11.285 66.7879 11.1312 66.9679 11.2209C67.1476 11.3107 67.3658 11.3876 67.4561 11.2721C67.5328 11.1568 67.636 11.0287 67.3403 10.8235C67.0445 10.6185 66.3633 10.1442 66.1059 10.3877C65.8623 10.6313 65.6949 10.9133 65.7718 11.2721C65.8495 11.6311 65.9517 12.2977 65.6562 12.7463L67.2764 13.682Z" fill="#FEBFAE"/>
<path d="M69.2165 11.3874L69.8986 10.567C69.988 10.4516 69.9752 10.2722 69.8602 10.1824C69.8208 10.144 69.7697 10.1183 69.7058 10.1183C69.6539 10.1055 69.6028 10.0799 69.59 10.0286C69.5389 9.82352 69.3973 9.68254 69.191 9.65688C69.1526 9.65688 69.1143 9.61846 69.1015 9.57997C69.0368 9.40057 68.8441 9.33649 68.6897 9.31083C68.6389 9.298 68.5995 9.27234 68.5867 9.22109C68.5611 9.13133 68.4972 9.05442 68.4195 9.0032C68.2909 8.91343 68.111 8.95196 68.0088 9.06725L67.4045 9.78511C67.3789 9.82352 67.3525 9.86204 67.3525 9.90043C67.327 10.0414 67.327 10.3491 67.7258 10.3362C67.7897 10.3362 67.8418 10.3876 67.8546 10.4516C67.8674 10.5926 67.9441 10.7464 68.2015 10.7464C68.2526 10.7464 68.3045 10.785 68.3173 10.849C68.3556 11.0157 68.51 11.131 68.6897 11.131C68.7408 11.131 68.793 11.1567 68.8058 11.2079C68.8697 11.413 69.1143 11.5027 69.2165 11.3874Z" fill="#FEBFAE"/>
<path d="M67.8419 10.375C67.8547 10.3878 67.8675 10.3878 67.8802 10.3878C67.893 10.3878 67.9186 10.3878 67.9314 10.3622L68.6773 9.32394C68.7028 9.29828 68.6901 9.25987 68.6645 9.2342C68.6389 9.20854 68.5998 9.22137 68.5743 9.24703L67.8283 10.2853C67.8028 10.3109 67.8156 10.3494 67.8419 10.375Z" fill="#EDA895"/>
<path d="M68.3176 10.8103C68.3037 10.8103 68.291 10.8103 68.2782 10.7975C68.2526 10.7719 68.2398 10.7334 68.2654 10.7078L69.088 9.60543C69.1146 9.57977 69.1529 9.56694 69.1785 9.5926C69.204 9.61826 69.2168 9.65668 69.1913 9.68234L68.3687 10.7847C68.3559 10.7975 68.3303 10.8103 68.3176 10.8103Z" fill="#EDA895"/>
<path d="M68.8061 11.1823C68.7933 11.1823 68.7805 11.1823 68.7678 11.1696C68.7411 11.1439 68.7411 11.1055 68.7539 11.0798L69.5776 10.0672C69.6029 10.0415 69.6412 10.0415 69.6668 10.0543C69.6934 10.0672 69.6923 10.1184 69.6795 10.1441L68.8572 11.1567C68.8444 11.1824 68.8189 11.1823 68.8061 11.1823Z" fill="#EDA895"/>
</svg>
