<svg width="90" height="67" viewBox="0 0 90 67" fill="none" xmlns="http://www.w3.org/2000/svg">
<path d="M5.52637 9.488C5.52637 8.54943 6.28767 7.78857 7.2268 7.78857H76.7784C77.7175 7.78857 78.4789 8.54943 78.4789 9.488V50.2846C78.4789 51.4607 77.5253 52.4143 76.3492 52.4143H7.65604C6.47985 52.4143 5.52637 51.4607 5.52637 50.2846V9.488Z" fill="#93BEFF"/>
<path d="M7.36816 11.6477C7.36816 10.7091 8.12947 9.94824 9.0686 9.94824H75.1382C76.0771 9.94824 76.8384 10.7091 76.8384 11.6477V49.5304H7.36816V11.6477Z" fill="white"/>
<path d="M18.1523 14.2134C18.1523 14.057 18.2792 13.9302 18.4357 13.9302H45.2897C45.6808 13.9302 45.9981 14.2472 45.9981 14.6383V32.7913C45.9981 33.1823 45.6808 33.4994 45.2897 33.4994H18.4357C18.2792 33.4994 18.1523 33.3727 18.1523 33.2161V14.2134Z" fill="#0066FF"/>
<path d="M17.1465 13.312C17.1465 13.1556 17.2734 13.0288 17.4299 13.0288H44.2837C44.675 13.0288 44.9923 13.3458 44.9923 13.7369V31.8899C44.9923 32.2809 44.675 32.598 44.2837 32.598H17.4299C17.2734 32.598 17.1465 32.4713 17.1465 32.3148V13.312Z" fill="#CCE0FF"/>
<path d="M20.2783 16.8331C20.2783 16.7632 20.335 16.7065 20.4049 16.7065C20.4749 16.7065 20.5315 16.7632 20.5315 16.8331V28.8963C20.5315 28.9663 20.4749 29.023 20.4049 29.023C20.335 29.023 20.2783 28.9663 20.2783 28.8963V16.8331Z" fill="white"/>
<path d="M20.4049 29.0232C20.335 29.0232 20.2783 28.9665 20.2783 28.8967C20.2783 28.8267 20.335 28.77 20.4049 28.77H42.5204C42.5904 28.77 42.6471 28.8267 42.6471 28.8967C42.6471 28.9665 42.5904 29.0232 42.5204 29.0232H20.4049Z" fill="white"/>
<path d="M36.9062 19.8282C36.9062 19.6418 37.0575 19.4907 37.2438 19.4907H37.8348C38.0211 19.4907 38.1723 19.6418 38.1723 19.8282V27.8423C38.1723 28.0286 38.0211 28.1798 37.8348 28.1798H37.2438C37.0575 28.1798 36.9062 28.0286 36.9062 27.8423V19.8282Z" fill="#0066FF"/>
<path d="M33.1084 21.5142C33.1084 21.3278 33.2596 21.1768 33.446 21.1768H34.0369C34.2233 21.1768 34.3745 21.3278 34.3745 21.5142V27.841C34.3745 28.0274 34.2233 28.1786 34.0369 28.1786H33.446C33.2596 28.1786 33.1084 28.0274 33.1084 27.841V21.5142Z" fill="white"/>
<path d="M29.3105 24.8892C29.3105 24.7028 29.4615 24.5518 29.6481 24.5518H30.2388C30.4254 24.5518 30.5766 24.7028 30.5766 24.8892V27.8419C30.5766 28.0282 30.4254 28.1794 30.2388 28.1794H29.6481C29.4615 28.1794 29.3105 28.0282 29.3105 27.8419V24.8892Z" fill="#0066FF"/>
<path d="M25.6807 21.0088C25.6807 20.8225 25.8318 20.6714 26.0183 20.6714H26.6092C26.7957 20.6714 26.9469 20.8225 26.9469 21.0088V27.8418C26.9469 28.0282 26.7957 28.1794 26.6092 28.1794H26.0183C25.8318 28.1794 25.6807 28.0282 25.6807 27.8418V21.0088Z" fill="white"/>
<path d="M21.8818 23.4546C21.8818 23.2683 22.033 23.1172 22.2195 23.1172H22.8103C22.9968 23.1172 23.148 23.2683 23.148 23.4546V28.0102C23.148 28.1966 22.9968 28.3478 22.8103 28.3478H22.2195C22.033 28.3478 21.8818 28.1966 21.8818 28.0102V23.4546Z" fill="#0066FF"/>
<path d="M40.7051 18.0562C40.7051 17.8698 40.8563 17.7188 41.0429 17.7188H41.6336C41.8202 17.7188 41.9712 17.8698 41.9712 18.0562V27.8418C41.9712 28.0282 41.8202 28.1794 41.6336 28.1794H41.0429C40.8563 28.1794 40.7051 28.0282 40.7051 27.8418V18.0562Z" fill="white"/>
<path d="M41.6343 16.9595C41.6343 17.1459 41.4831 17.2969 41.2965 17.2969C41.2001 17.2969 41.113 17.2566 41.0515 17.1918L37.9191 18.7044C37.9196 18.7132 37.9201 18.7221 37.9201 18.7311C37.9201 18.9175 37.7689 19.0685 37.5823 19.0685C37.491 19.0685 37.4079 19.0321 37.347 18.9731L34.1163 20.444C34.1197 20.463 34.1213 20.4827 34.1213 20.5027C34.1213 20.6891 33.9704 20.8402 33.7838 20.8402C33.7186 20.8402 33.6573 20.8216 33.6057 20.7894L30.3907 23.8565C30.4013 23.8895 30.4072 23.9247 30.4072 23.9613C30.4072 24.1476 30.256 24.2987 30.0696 24.2987C29.8833 24.2987 29.7321 24.1476 29.7321 23.9613C29.7321 23.9066 29.7451 23.8549 29.7683 23.8091L26.4679 19.7696C26.4502 19.7481 26.43 19.7297 26.408 19.7147C26.3663 19.7332 26.3201 19.7435 26.2716 19.7435C26.2127 19.7435 26.1574 19.7284 26.1093 19.702C26.1001 19.7071 26.0911 19.7129 26.0824 19.7191L22.8858 22.0264C22.8918 22.0518 22.895 22.0782 22.895 22.1053C22.895 22.2917 22.7438 22.4428 22.5574 22.4428C22.3709 22.4428 22.2197 22.2917 22.2197 22.1053C22.2197 21.919 22.3709 21.7679 22.5574 21.7679C22.6554 21.7679 22.7437 21.8096 22.8054 21.8763L25.9836 19.5823C25.9521 19.531 25.9339 19.4706 25.9339 19.406C25.9339 19.2196 26.0851 19.0686 26.2716 19.0686C26.458 19.0686 26.6092 19.2196 26.6092 19.406C26.6092 19.4784 26.5864 19.5455 26.5476 19.6004L29.8814 23.6811C29.9352 23.6449 29.9999 23.6238 30.0696 23.6238C30.1575 23.6238 30.2373 23.6573 30.2975 23.7122L30.2994 23.7102L33.4891 20.6674C33.4617 20.6187 33.4462 20.5625 33.4462 20.5027C33.4462 20.3164 33.5974 20.1653 33.7838 20.1653C33.8897 20.1653 33.9845 20.2141 34.0463 20.2904L37.2589 18.8278C37.2498 18.7972 37.2448 18.7647 37.2448 18.7311C37.2448 18.5447 37.396 18.3937 37.5823 18.3937C37.6997 18.3937 37.8027 18.4533 37.8634 18.5439L40.9696 17.044C40.9626 17.017 40.9589 16.9887 40.9589 16.9595C40.9589 16.7731 41.1101 16.6221 41.2965 16.6221C41.4831 16.6221 41.6343 16.7731 41.6343 16.9595Z" fill="#0066FF"/>
<path d="M52.3086 35.3658C52.3086 35.7568 52.6259 36.0739 53.0172 36.0739H74.7098C75.1012 36.0739 75.4185 35.7568 75.4185 35.3658V22.8853C75.4185 22.4943 75.1012 22.1772 74.7098 22.1772H53.0172C52.6259 22.1772 52.3086 22.4943 52.3086 22.8853V35.3658Z" fill="#2C74F5"/>
<path d="M51.5098 34.5679C51.5098 34.959 51.8271 35.276 52.2184 35.276H73.911C74.3023 35.276 74.6196 34.959 74.6196 34.5679V22.0875C74.6196 21.6964 74.3023 21.3794 73.911 21.3794H52.2184C51.8271 21.3794 51.5098 21.6964 51.5098 22.0875V34.5679Z" fill="#E4EAFF"/>
<path d="M55.7915 28.3717C55.7292 28.4353 55.6611 28.4673 55.5871 28.4673C55.4724 28.4673 55.3816 28.4212 55.3153 28.3294C55.2495 28.2365 55.2168 28.1132 55.2168 27.9588C55.2168 27.8593 55.2354 27.7685 55.2727 27.6862C55.31 27.6032 55.3619 27.5387 55.4284 27.4932C55.4955 27.4474 55.5703 27.4248 55.6526 27.4248C55.7378 27.4248 55.8134 27.4501 55.8799 27.5004C55.9462 27.551 55.9979 27.6237 56.0346 27.7182C56.0711 27.8124 56.0894 27.9194 56.0894 28.0397V28.1468C56.0894 28.4039 56.0327 28.6052 55.9193 28.7503C55.8064 28.8948 55.6465 28.9686 55.4388 28.9712H55.4087V28.7183H55.4284C55.5432 28.7175 55.6294 28.6877 55.6869 28.6291C55.745 28.5703 55.7798 28.4846 55.7915 28.3717ZM55.6619 28.237C55.7186 28.237 55.7633 28.1981 55.7958 28.1207V27.986C55.7958 27.8869 55.7822 27.8095 55.7553 27.7536C55.7285 27.6969 55.6933 27.6684 55.6505 27.6684C55.6084 27.6684 55.574 27.6966 55.5477 27.7525C55.5221 27.8079 55.5094 27.8755 55.5094 27.9559C55.5094 28.0429 55.5229 28.1119 55.5498 28.1622C55.5767 28.212 55.6142 28.237 55.6619 28.237Z" fill="#0066FF"/>
<path d="M57.3867 28.3312C57.3867 28.5402 57.3487 28.6999 57.2725 28.8104C57.1972 28.9212 57.0891 28.9765 56.9488 28.9765C56.8096 28.9765 56.7021 28.923 56.6259 28.8157C56.5506 28.7079 56.5114 28.5535 56.5088 28.3531V28.068C56.5088 27.8598 56.5463 27.7006 56.6217 27.5907C56.6973 27.4802 56.8056 27.4248 56.9467 27.4248C57.0878 27.4248 57.1961 27.4794 57.2715 27.5885C57.3468 27.6979 57.3854 27.8539 57.3867 28.0565V28.3312ZM57.0921 28.0254C57.0921 27.9064 57.0801 27.8172 57.0566 27.7578C57.0332 27.6982 56.9965 27.6684 56.9467 27.6684C56.8533 27.6684 56.8048 27.7775 56.8014 27.9953V28.3717C56.8014 28.4934 56.8131 28.5841 56.8365 28.6435C56.8607 28.7031 56.8983 28.7327 56.9488 28.7327C56.9965 28.7327 57.0316 28.705 57.0545 28.6499C57.0782 28.5937 57.0905 28.5083 57.0921 28.3935V28.0254Z" fill="#0066FF"/>
<path d="M57.7988 27.7356C57.7988 27.6435 57.8241 27.5684 57.8744 27.5104C57.9258 27.4524 57.9945 27.4233 58.081 27.4233C58.1675 27.4233 58.2365 27.4521 58.2876 27.5093C58.3395 27.566 58.3656 27.643 58.3656 27.7396V27.8155C58.3656 27.9086 58.3398 27.9837 58.2887 28.0404C58.2375 28.0971 58.1689 28.1256 58.0831 28.1256C57.998 28.1256 57.9293 28.0971 57.8766 28.0404C57.8247 27.9837 57.7988 27.9068 57.7988 27.8091V27.7356ZM57.9897 27.8155C57.9897 27.857 57.9985 27.89 58.0158 27.915C58.0336 27.9393 58.0563 27.9512 58.0831 27.9512C58.1108 27.9512 58.1327 27.9385 58.1486 27.9129C58.1651 27.8873 58.1734 27.8538 58.1734 27.8123V27.7356C58.1734 27.6954 58.1651 27.6627 58.1486 27.6371C58.1319 27.6108 58.1095 27.5974 58.081 27.5974C58.0533 27.5974 58.0312 27.6108 58.0147 27.6371C57.998 27.6627 57.9897 27.6965 57.9897 27.7385V27.8155ZM58.3946 28.5851C58.3946 28.4916 58.4204 28.4166 58.4723 28.3599C58.5242 28.3026 58.5927 28.2739 58.6779 28.2739C58.7636 28.2739 58.8325 28.3021 58.8844 28.3591C58.9363 28.415 58.9622 28.4922 58.9622 28.5901V28.666C58.9622 28.7586 58.9369 28.8337 58.8866 28.891C58.836 28.9477 58.767 28.9761 58.68 28.9761C58.5921 28.9761 58.5226 28.9474 58.4713 28.8902C58.4202 28.8327 58.3946 28.7565 58.3946 28.6617V28.5851ZM58.5865 28.666C58.5865 28.7046 58.5956 28.7371 58.6134 28.7634C58.6321 28.7898 58.6544 28.8028 58.68 28.8028C58.7375 28.8028 58.7676 28.7618 58.7702 28.6796V28.5851C58.7702 28.5443 58.7617 28.5113 58.7444 28.4866C58.7276 28.461 58.7055 28.4482 58.6779 28.4482C58.6169 28.4482 58.5865 28.501 58.5865 28.6069V28.666ZM58.1361 28.8422L57.9969 28.7634L58.6166 27.5831L58.7566 27.6619L58.1361 28.8422Z" fill="#0066FF"/>
<path d="M66.7617 27.4302V27.6791H66.7452C66.635 27.6799 66.5474 27.7129 66.4825 27.7786C66.4181 27.8436 66.3792 27.9349 66.3654 28.0526C66.4282 27.9804 66.507 27.9445 66.6018 27.9445C66.7112 27.9445 66.7985 27.9913 66.8634 28.0845C66.9292 28.178 66.9619 28.3025 66.9619 28.458C66.9619 28.557 66.9433 28.6462 66.906 28.7255C66.8685 28.8051 66.816 28.8672 66.7482 28.9114C66.6811 28.955 66.6049 28.9766 66.5198 28.9766C66.3829 28.9766 66.273 28.9217 66.1899 28.8118C66.1074 28.7019 66.0664 28.5538 66.0664 28.3678V28.2589C66.0664 28.0922 66.0922 27.9464 66.1441 27.8212C66.1969 27.6961 66.2722 27.5998 66.3704 27.5329C66.4694 27.465 66.5847 27.4307 66.716 27.4302H66.7617ZM66.5096 28.1873C66.4721 28.1873 66.4407 28.199 66.4151 28.2227C66.3901 28.2461 66.3715 28.2751 66.359 28.3097V28.4154C66.359 28.5219 66.3731 28.6015 66.4016 28.6542C66.43 28.7066 66.4673 28.733 66.5136 28.733C66.5608 28.733 66.5983 28.7077 66.6268 28.6571C66.6553 28.606 66.6694 28.5408 66.6694 28.4612C66.6694 28.3803 66.6545 28.3145 66.6246 28.2642C66.5956 28.2128 66.5573 28.1873 66.5096 28.1873Z" fill="#0066FF"/>
<path d="M68.2276 28.3315C68.2276 28.5402 68.1895 28.6999 68.1134 28.8107C68.038 28.9214 67.9299 28.9765 67.7897 28.9765C67.6504 28.9765 67.5429 28.923 67.4667 28.8157C67.3914 28.7079 67.3523 28.5538 67.3496 28.3533V28.068C67.3496 27.8598 67.3871 27.7009 67.4627 27.5909C67.5381 27.4802 67.6464 27.4248 67.7875 27.4248C67.9286 27.4248 68.037 27.4794 68.1123 27.5888C68.1879 27.6979 68.2262 27.8539 68.2276 28.0565V28.3315ZM67.9329 28.0254C67.9329 27.9066 67.9212 27.8172 67.8975 27.7578C67.874 27.6985 67.8373 27.6687 67.7875 27.6687C67.6941 27.6687 67.6456 27.7775 67.6422 27.9953V28.372C67.6422 28.4936 67.6539 28.5841 67.6776 28.6438C67.7018 28.7031 67.7391 28.733 67.7897 28.733C67.8373 28.733 67.8727 28.7053 67.8953 28.6499C67.919 28.594 67.9315 28.5085 67.9329 28.3938V28.0254Z" fill="#0066FF"/>
<path d="M68.6396 27.7356C68.6396 27.6438 68.6649 27.5687 68.7155 27.5107C68.7666 27.4524 68.8356 27.4233 68.9221 27.4233C69.0084 27.4233 69.0773 27.4521 69.1284 27.5096C69.1803 27.5663 69.2064 27.643 69.2064 27.7399V27.8155C69.2064 27.9089 69.1808 27.984 69.1295 28.0407C69.0784 28.0974 69.0099 28.1256 68.924 28.1256C68.839 28.1256 68.7701 28.0974 68.7174 28.0407C68.6657 27.984 68.6396 27.9068 68.6396 27.8093V27.7356ZM68.8305 27.8155C68.8305 27.857 68.8393 27.8903 68.8566 27.915C68.8744 27.9393 68.8971 27.9515 68.924 27.9515C68.9516 27.9515 68.9735 27.9387 68.9894 27.9132C69.006 27.8873 69.0145 27.8538 69.0145 27.8125V27.7356C69.0145 27.6957 69.006 27.6627 68.9894 27.6371C68.9729 27.6108 68.9503 27.5977 68.9221 27.5977C68.8944 27.5977 68.8721 27.6108 68.8555 27.6371C68.839 27.6627 68.8305 27.6965 68.8305 27.7388V27.8155ZM69.2354 28.5851C69.2354 28.4919 69.2612 28.4168 69.3132 28.3601C69.3651 28.3026 69.4338 28.2741 69.5187 28.2741C69.6047 28.2741 69.6733 28.3024 69.7253 28.3591C69.7772 28.415 69.8032 28.4922 69.8032 28.5904V28.666C69.8032 28.7586 69.778 28.8337 69.7274 28.8912C69.6768 28.9479 69.6081 28.9761 69.5208 28.9761C69.433 28.9761 69.3635 28.9477 69.3121 28.8902C69.261 28.8327 69.2354 28.7568 69.2354 28.662V28.5851ZM69.4274 28.666C69.4274 28.7049 69.4364 28.7373 69.4545 28.7637C69.4732 28.7898 69.4952 28.8031 69.5208 28.8031C69.5783 28.8031 69.6084 28.7618 69.6111 28.6796V28.5851C69.6111 28.5443 69.6025 28.5116 69.5852 28.4866C69.5685 28.461 69.5464 28.4482 69.5187 28.4482C69.458 28.4482 69.4274 28.5012 69.4274 28.6069V28.666ZM68.9769 28.8425L68.838 28.7637L69.4574 27.5831L69.5977 27.6621L68.9769 28.8425Z" fill="#0066FF"/>
<path fill-rule="evenodd" clip-rule="evenodd" d="M68.0585 24.044C70.4254 24.044 72.3442 25.9616 72.3442 28.327C72.3442 30.6923 70.4254 32.6101 68.0585 32.6101C65.6917 32.6101 63.7731 30.6923 63.7731 28.327C63.7731 25.9616 65.6917 24.044 68.0585 24.044ZM68.0585 23.3359C70.8167 23.3359 73.0526 25.5705 73.0526 28.327C73.0526 31.0833 70.8167 33.3179 68.0585 33.3179C65.3006 33.3179 63.0645 31.0833 63.0645 28.327C63.0645 25.5705 65.3006 23.3359 68.0585 23.3359Z" fill="white"/>
<path fill-rule="evenodd" clip-rule="evenodd" d="M57.0908 24.044C59.4576 24.044 61.3765 25.9616 61.3765 28.327C61.3765 30.6923 59.4576 32.6101 57.0908 32.6101C54.7239 32.6101 52.8053 30.6923 52.8053 28.327C52.8053 25.9616 54.7239 24.044 57.0908 24.044ZM57.0908 23.3359C59.849 23.3359 62.0848 25.5705 62.0848 28.327C62.0848 31.0833 59.849 33.3179 57.0908 33.3179C54.3326 33.3179 52.0967 31.0833 52.0967 28.327C52.0967 25.5705 54.3326 23.3359 57.0908 23.3359Z" fill="white"/>
<path d="M74.1477 39.8215C73.3161 40.1413 73.38 40.5888 73.5719 41.0363L75.619 46.1509H82.7196L84.7026 41.0363C85.0226 40.3332 84.7026 40.1224 84.191 39.8215C83.1035 39.1824 77.474 38.5432 74.1477 39.8215Z" fill="#2C74F5"/>
<path d="M75.7461 38.671C75.7461 39.8857 76.3858 44.1693 77.0894 46.0231H81.5673C81.887 45.5118 82.6404 41.2923 83.1664 38.9268C83.2945 38.3515 82.9745 38.334 82.4628 38.2874C81.7592 38.2235 77.8569 38.0957 76.7055 38.0957C75.8867 38.0957 75.7461 38.3148 75.7461 38.671Z" fill="#0066FF"/>
<path d="M82.7189 46.9819C83.8063 50.3064 88.732 51.8408 89.1798 59.0649C89.1798 62.5714 87.7641 64.4019 85.0219 65.3184C83.0641 65.9728 80.4305 66.1612 77.1535 66.1612C70.5646 65.7776 67.4941 63.5401 67.2383 59.0649C68.1977 52.3522 75.6183 48.1328 75.6183 46.9819H82.7189Z" fill="#0066FF" stroke="#2C74F5" stroke-width="0.266209"/>
<path d="M89.1795 59.0649C88.7317 51.8408 83.8061 50.3064 82.7183 46.9819C80.9273 50.69 70.3723 55.1013 76.5774 62.7729C77.6633 64.1154 81.695 66.3833 85.0213 65.3184C87.7638 64.4019 89.1795 62.5714 89.1795 59.0649Z" fill="#2C74F5"/>
<path fill-rule="evenodd" clip-rule="evenodd" d="M78.5337 52.9233C78.5337 52.6781 78.3375 52.4795 78.0952 52.4795C77.8527 52.4795 77.6565 52.6781 77.6565 52.9233V54.0129C77.2689 54.1084 76.9367 54.3225 76.6928 54.6062C76.3358 55.0221 76.1625 55.5981 76.2975 56.1705C76.4349 56.7532 76.8731 57.2585 77.5958 57.5707C77.6163 57.5798 77.6365 57.5886 77.6565 57.5974V59.2846C77.4329 59.1459 77.1968 58.9502 76.9585 58.6832C76.7964 58.5014 76.519 58.487 76.339 58.651C76.1593 58.8153 76.145 59.0956 76.3074 59.2777C76.741 59.7638 77.2031 60.0909 77.6565 60.2762V61.4979C77.6565 61.7428 77.8527 61.9414 78.0952 61.9414C78.3375 61.9414 78.5337 61.7428 78.5337 61.4979V60.4626C79.0429 60.4679 79.5077 60.2837 79.8067 59.9248C80.1788 59.4781 80.2126 58.8584 79.8889 58.2773C79.6427 57.8351 79.1952 57.4142 78.5337 57.0458V54.9204C78.826 55.0226 79.1646 55.2398 79.524 55.6426C79.6863 55.8244 79.9637 55.8388 80.1437 55.6748C80.3234 55.5105 80.3378 55.2302 80.1754 55.0484C79.6456 54.455 79.0826 54.1161 78.5337 54.0019V52.9233ZM77.6565 54.9515C77.5386 55.0111 77.4371 55.0923 77.3554 55.1876C77.1648 55.4097 77.0879 55.6977 77.151 55.9647C77.1989 56.1681 77.3397 56.4045 77.6565 56.6063V54.9515ZM78.5337 58.092V59.5758C78.8345 59.5822 79.0365 59.4725 79.1356 59.3535C79.2365 59.2324 79.2974 59.0226 79.1244 58.7125C79.0219 58.528 78.8358 58.3135 78.5337 58.092Z" fill="white"/>
<path d="M82.5275 46.0871C81.2481 45.8954 77.7299 45.8326 75.6827 46.0871C74.9791 46.1744 75.043 47.3021 75.6827 47.3659C77.2821 47.5576 80.9284 47.5576 82.5275 47.3021C83.2886 47.1804 83.3591 46.2114 82.5275 46.0871Z" fill="white"/>
<path d="M68.6296 63.0181C66.0665 65.4307 62.3782 65.6783 60.3915 63.5707C58.4048 61.4626 58.8179 57.8717 61.381 55.4588C64.7142 52.321 67.6862 52.7248 69.6731 54.8327C71.6599 56.9403 71.1927 60.6052 68.6296 63.0181Z" fill="#FFC234"/>
<path d="M67.9225 62.8381C65.3594 65.2508 61.6711 65.4984 59.6843 63.3905C57.6976 61.2827 58.1648 57.6178 60.7279 55.2048C63.2912 52.7922 66.979 52.5446 68.966 54.6525C70.9527 56.7603 70.4855 60.4252 67.9225 62.8381Z" fill="#FFCE5B"/>
<path d="M67.4726 54.7305L60.0869 62.0648L61.0982 63.1227L68.4371 55.6707L67.4726 54.7305Z" fill="#FFC234"/>
<path d="M66.8614 54.5894L59.7813 61.5478C58.4641 59.8553 60.8398 56.3996 61.5689 55.859C63.7143 53.7902 65.9912 54.1507 66.8614 54.5894Z" fill="#FFC234"/>
<path fill-rule="evenodd" clip-rule="evenodd" d="M60.6511 62.4799C62.1099 64.0277 64.9836 63.9539 67.0976 61.9637C69.2115 59.9738 69.4567 57.111 67.9979 55.5633C66.5388 54.0155 63.6651 54.0893 61.5514 56.0795C59.4374 58.0694 59.1922 60.9322 60.6511 62.4799ZM60.206 62.8987C61.9691 64.7693 65.2426 64.55 67.5171 62.4086C69.7916 60.2672 70.2064 57.0149 68.443 55.1443C66.6799 53.2736 63.4066 53.493 61.1321 55.6344C58.8573 57.7757 58.4429 61.0283 60.206 62.8987Z" fill="#FFE7AD"/>
<path fill-rule="evenodd" clip-rule="evenodd" d="M66.2588 55.4587L65.9766 55.2974C65.9473 55.2806 65.9106 55.2918 65.8946 55.3221L65.6974 55.7009C64.916 55.37 64.0642 55.4901 63.5427 56.0936C62.6365 57.1419 63.68 58.6423 63.8882 58.8387C63.9284 58.8789 63.9667 58.9181 64.0032 58.9569L63.1923 60.5151C62.8721 60.2339 62.5896 59.8194 62.3998 59.4798C62.3676 59.4225 62.2973 59.4007 62.2398 59.431L61.6459 59.7425C61.5895 59.7721 61.565 59.8415 61.5922 59.8998C61.9771 60.7256 62.5191 61.1742 62.755 61.3557L62.2936 62.2428C62.2782 62.2723 62.2891 62.309 62.3178 62.3245L62.6277 62.493C62.6567 62.509 62.6935 62.4972 62.7089 62.4672L63.1537 61.6044C65.187 62.5979 66.6235 60.0785 65.2134 58.6955C65.0747 58.5595 64.9549 58.4317 64.8521 58.3119L65.6361 56.7916C65.9369 57.0448 66.2109 57.4031 66.3972 57.6994C66.4316 57.7539 66.501 57.7728 66.5569 57.7414C66.7433 57.6368 67.0066 57.4861 67.1509 57.3961C67.1982 57.3663 67.2161 57.3059 67.1935 57.2543C66.9339 56.6513 66.5375 56.2011 66.0908 55.9107L66.282 55.5396C66.2969 55.5106 66.287 55.4746 66.2588 55.4587ZM64.4302 56.7397C64.6751 56.4349 64.9677 56.4149 65.2586 56.5448L64.5481 57.9094C64.1219 57.2473 64.2998 56.9018 64.4302 56.7397ZM63.5834 60.7714L64.3195 59.3451C64.7755 60.0135 64.5766 60.4227 64.4377 60.5694C64.1613 60.8627 63.8664 60.8907 63.5834 60.7714Z" fill="white"/>
<path d="M2.77784 0C1.24368 0 0 1.24297 0 2.77624C0 4.30953 1.24368 5.55251 2.77784 5.55251H9.16875C9.58691 5.55251 9.98348 5.46016 10.3392 5.29477L11.9465 6.2635L11.213 4.65597C11.6685 4.16149 11.9466 3.50134 11.9466 2.77624C11.9466 1.24297 10.7029 0 9.16875 0H2.77784Z" fill="white"/>
<path d="M4.46339 2.77641C4.46339 3.11298 4.18674 3.38584 3.84546 3.38584C3.50418 3.38584 3.22754 3.11298 3.22754 2.77641C3.22754 2.43984 3.50418 2.16699 3.84546 2.16699C4.18674 2.16699 4.46339 2.43984 4.46339 2.77641Z" fill="#1E1E2D"/>
<path d="M6.59134 2.77641C6.59134 3.11298 6.31467 3.38584 5.97342 3.38584C5.63214 3.38584 5.35547 3.11298 5.35547 2.77641C5.35547 2.43984 5.63214 2.16699 5.97342 2.16699C6.31467 2.16699 6.59134 2.43984 6.59134 2.77641Z" fill="#1E1E2D"/>
<path d="M8.1023 3.38584C8.44358 3.38584 8.72022 3.11298 8.72022 2.77641C8.72022 2.43984 8.44358 2.16699 8.1023 2.16699C7.76102 2.16699 7.48438 2.43984 7.48438 2.77641C7.48438 3.11298 7.76102 3.38584 8.1023 3.38584Z" fill="#1E1E2D"/>
<path d="M21.2826 64.357L21.0302 61.8325H18.5537L19.3894 64.357H21.2826Z" fill="#FEBFAE"/>
<path d="M5.88418 62.3392L8.34549 59.8161L5.8842 58.1763L4.43262 61.5193L5.88418 62.3392Z" fill="#FEBFAE"/>
<path d="M18.8265 65.5026C18.8543 65.8172 19.09 65.8617 19.2044 65.8447C19.6069 65.8652 20.1109 65.8838 20.6562 65.8947C22.4787 65.9312 24.763 65.8809 25.2676 65.5148C25.3594 65.4483 25.3813 65.3679 25.347 65.2776C25.2524 65.0293 24.7323 64.7058 24.0682 64.3834C23.2489 63.9857 22.2105 63.5899 21.4813 63.3396C21.3685 63.2933 21.1506 63.2406 21.182 63.4027C21.1954 63.5744 21.1434 63.7158 21.049 63.8281C20.7037 64.2389 19.7912 64.2599 19.4375 63.9397C19.1352 63.6657 19.0032 63.8063 18.9749 63.9107C18.9139 64.3102 18.7988 65.1879 18.8265 65.5026Z" fill="white"/>
<path d="M18.8262 65.5026C18.8539 65.8172 19.0896 65.8617 19.204 65.8446C19.6066 65.8649 20.1106 65.8838 20.6559 65.8947C22.4783 65.9312 24.7627 65.8808 25.2673 65.5148C25.3591 65.448 25.381 65.3679 25.3466 65.2773C24.7487 65.8058 20.7505 65.6476 18.8262 65.5026Z" fill="#C4C4C4"/>
<path d="M18.8262 65.5026C18.8539 65.8172 19.0896 65.8617 19.204 65.8446C19.6066 65.8649 20.1106 65.8838 20.6559 65.8947C22.4783 65.9312 24.7627 65.8808 25.2673 65.5148C25.3591 65.448 25.381 65.3679 25.3466 65.2773C24.7487 65.8058 20.7505 65.6476 18.8262 65.5026Z" fill="#0C1229"/>
<path d="M18.8262 65.5026C18.8539 65.8172 19.0896 65.8617 19.204 65.8446C19.6066 65.8649 20.1106 65.8838 20.6559 65.8947C22.4783 65.9312 24.7627 65.8808 25.2673 65.5148C25.3591 65.448 25.381 65.3679 25.3466 65.2773C24.7487 65.8058 20.7505 65.6476 18.8262 65.5026Z" fill="#CCE0FF"/>
<path d="M3.92875 61.7192C3.79698 62.0065 3.97976 62.1617 4.0876 62.2035C4.42731 62.4204 4.85593 62.6858 5.32433 62.9651C6.88972 63.8984 8.89944 64.9851 9.5192 64.9164C9.63197 64.9039 9.6908 64.8451 9.70565 64.7498C9.74644 64.4873 9.4548 63.9487 9.03744 63.3402C8.52257 62.5892 7.81637 61.7315 7.30679 61.1533C7.23174 61.0572 7.06842 60.9038 7.01542 61.0601C6.94211 61.2158 6.82689 61.313 6.68924 61.3638C6.18581 61.5499 5.38252 61.1168 5.23382 60.6635C5.10673 60.2761 4.92249 60.3328 4.84627 60.4095C4.59534 60.7263 4.06053 61.432 3.92875 61.7192Z" fill="white"/>
<path d="M3.92874 61.7192C3.797 62.0065 3.97975 62.1617 4.08762 62.2035C4.4273 62.4202 4.85592 62.6858 5.32432 62.9651C6.88973 63.8984 8.89943 64.9848 9.51919 64.9164C9.63198 64.9039 9.69081 64.8451 9.70564 64.7495C8.92442 64.9127 5.52887 62.7974 3.92874 61.7192Z" fill="#C4C4C4"/>
<path d="M3.92874 61.7192C3.797 62.0065 3.97975 62.1617 4.08762 62.2035C4.4273 62.4202 4.85592 62.6858 5.32432 62.9651C6.88973 63.8984 8.89943 64.9848 9.51919 64.9164C9.63198 64.9039 9.69081 64.8451 9.70564 64.7495C8.92442 64.9127 5.52887 62.7974 3.92874 61.7192Z" fill="#0C1229"/>
<path d="M3.92874 61.7192C3.797 62.0065 3.97975 62.1617 4.08762 62.2035C4.4273 62.4202 4.85592 62.6858 5.32432 62.9651C6.88973 63.8984 8.89943 64.9848 9.51919 64.9164C9.63198 64.9039 9.69081 64.8451 9.70564 64.7495C8.92442 64.9127 5.52887 62.7974 3.92874 61.7192Z" fill="#CCE0FF"/>
<path d="M9.94938 50.1743C10.4462 49.3232 10.5152 40.5447 12.827 37.2996C15.6271 36.8236 17.3314 40.1464 17.1184 41.7778C16.9055 43.4091 14.6698 50.9559 14.1523 51.6799L8.34622 60.3837L5.51367 58.5527C6.78525 56.1145 9.45258 51.0253 9.94938 50.1743Z" fill="#232533"/>
<path d="M8.34622 60.3837L5.51367 58.5527C5.85391 57.9002 6.29409 57.0579 6.76589 56.1581C8.9348 56.915 11.6006 53.6981 13.0163 51.4276C14.432 49.1571 12.827 43.9852 11.4506 40.6424C11.7929 39.3169 12.2369 38.1278 12.827 37.2996C15.6271 36.8236 17.3314 40.1464 17.1184 41.7778C16.9055 43.4091 14.6698 50.9559 14.1523 51.6799L8.34622 60.3837Z" fill="#1E1E2D"/>
<path d="M14.6566 32.2207C15.7642 32.2207 18.8201 32.2207 18.8201 32.2207L21.352 61.8977H18.3801C16.9163 54.1545 12.9524 42.2736 12.3846 40.0749C11.4563 36.4798 13.5489 32.2207 14.6566 32.2207Z" fill="#232533"/>
<path d="M8.15625 44.3635C8.15625 44.3635 20.6519 44.048 20.9044 41.9665C21.1568 39.8853 18.7974 31.0525 19.6682 27.8388C19.7141 27.6692 19.7683 27.5183 19.8315 27.3884C20.9343 25.3492 19.0111 23.4237 19.0111 23.4237C19.0111 23.4237 18.2538 22.6037 17.8751 21.8469C17.6073 21.3116 17.1969 20.7278 16.6129 20.5225C17.4334 21.9731 16.2974 22.2254 14.4672 20.5855C13.4152 21.0141 11.906 22.5061 12.2759 23.7635C12.4305 25.0117 12.5092 26.2218 12.5261 27.3884C12.5283 27.5393 12.5295 27.6894 12.5296 27.8388C12.5391 37.7191 8.15625 44.3635 8.15625 44.3635Z" fill="#0066FF"/>
<path opacity="0.4" d="M8.15625 44.3636C8.15625 44.3636 20.6519 44.0482 20.9044 41.9669C21.0817 40.5052 19.9705 35.7124 19.5951 31.8755C19.0111 42.4086 12.3215 42.1562 9.7781 41.2101C8.90227 43.2328 8.15625 44.3636 8.15625 44.3636Z" fill="#98AEFF"/>
<path opacity="0.7" d="M12.5264 27.3882C13.647 28.3431 18.3803 29.0371 19.8318 27.3882C19.7686 27.5181 19.7143 27.669 19.6684 27.8386C18.1278 29.2892 14.215 28.7216 12.5298 27.8386C12.5297 27.6893 12.5286 27.5391 12.5264 27.3882Z" fill="#0066FF"/>
<path d="M19.012 23.4237C19.012 23.4237 18.2547 22.6037 17.876 21.8469C17.6082 21.3116 17.1979 20.7278 16.6139 20.5225C17.3712 21.9731 16.4245 22.2254 14.4681 20.5855C13.4162 21.0141 11.9069 22.5061 12.2768 23.7635C12.4314 25.0117 12.5102 26.2218 12.5271 27.3884C13.6477 28.3433 18.3809 29.037 19.8325 27.3884C20.9353 25.3492 19.012 23.4237 19.012 23.4237Z" fill="#2C74F5"/>
<path d="M14.4665 20.5855C16.4229 22.2255 17.3696 21.9731 16.6123 20.5225C16.6962 20.552 16.7766 20.5893 16.8534 20.6332C16.8033 20.6033 18.1016 21.698 16.9036 22.0974C15.7323 22.4168 14.5521 21.2961 14.1084 20.7624C14.2312 20.6919 14.3516 20.6324 14.4665 20.5855Z" fill="#2671E1"/>
<path fill-rule="evenodd" clip-rule="evenodd" d="M22.5985 31.6568C22.5706 31.5074 22.6691 31.3637 22.8187 31.3357L37.7903 28.5418C37.9397 28.5139 38.0837 28.6127 38.1117 28.762C38.1396 28.9113 38.0408 29.0554 37.8915 29.083L22.9198 31.8769C22.7703 31.9049 22.6264 31.8064 22.5985 31.6568Z" fill="#45154F"/>
<path d="M22.1062 30.6107C21.147 30.5564 20.3924 30.1475 20.1351 29.9497L19.2236 31.4397C19.6654 31.4828 20.7655 31.7583 21.6324 32.5157C22.4992 33.2733 23.5412 32.8556 23.9539 32.5519C24.3519 32.2466 23.6064 31.7911 23.1839 31.6015C23.0995 31.5637 23.0308 31.2685 23.3123 31.3052C23.7651 31.4005 23.8798 31.186 23.8805 31.067C23.6887 30.9373 23.0654 30.665 22.1062 30.6107Z" fill="#FEBFAE"/>
<path d="M13.2917 27.8682L12.2549 23.5059C13.0156 27.7756 12.5738 28.5324 14.404 29.5416L19.5791 32.0014V31.6963C18.1231 30.9469 15.5576 29.6247 14.686 29.1692C13.74 28.6746 13.3623 28.0958 13.2917 27.8682Z" fill="#0066FF"/>
<path d="M13.2917 27.8688L12.2549 23.5062C12.4476 20.7748 15.0923 21.6578 15.4769 23.3606C15.7333 24.496 15.8314 25.6656 15.9818 26.3881C16.1321 27.1106 16.5268 27.3819 16.676 27.4604L20.7151 30.1725L20.1471 32.0017C18.7945 31.3058 15.6319 29.6638 14.686 29.1695C13.74 28.6751 13.3623 28.0961 13.2917 27.8688Z" fill="#518FFF"/>
<path d="M18.6348 31.2202L19.5914 29.4175L19.7896 29.5506L18.8625 31.3379L18.6348 31.2202Z" fill="#0066FF"/>
<path d="M17.5703 30.6687L18.6962 28.8164L19.2219 29.1694L18.1489 30.9684C17.9578 30.8697 17.764 30.769 17.5703 30.6687Z" fill="#0066FF"/>
<path d="M20.1855 29.8174L19.2998 31.565C19.4398 31.6375 19.5735 31.7064 19.6991 31.7714L20.4978 30.0272L20.1855 29.8174Z" fill="#0066FF"/>
<path d="M16.6135 20.523L16.5845 18.8571L14.4996 18.5024L14.4678 20.5861C14.9665 21.0516 15.543 21.5325 16.3237 21.7453C17.1043 21.9581 17.0212 21.0976 16.6135 20.523Z" fill="#FEBFAE"/>
<path d="M15.1621 18.6152L16.5837 18.8571L16.6055 20.1101L15.1621 18.6152Z" fill="#E99D89"/>
<path d="M17.0648 19.1225C16.1712 19.3357 14.5935 19.1979 14.0255 18.2517C13.9628 18.1472 13.8115 17.7247 13.71 17.6841C13.0789 17.4318 12.2931 16.3686 12.7733 15.9687C13.193 15.6192 14.9325 14.934 17.3172 14.1396C17.672 14.317 18.1907 15.0981 18.2539 15.6026C18.3643 16.4857 18.4532 18.7913 17.0648 19.1225Z" fill="#FEBFAE"/>
<path d="M16.425 12.2716C16.7503 12.3011 17.5428 12.5642 18.1106 13.3798C18.6086 14.0953 18.4149 14.9312 18.2002 15.3851C18.0919 15.0792 17.7617 14.4042 17.3073 14.1519C16.8655 15.2241 15.3509 15.7918 14.5305 16.0441C14.1518 16.2333 14.7198 17.5578 14.3411 17.4947C14.2681 17.0532 13.7353 15.7539 13.0789 15.8548C12.5741 15.981 12.4478 16.9271 13.7731 17.6839C13.8994 17.8101 13.8994 17.9993 14.0777 18.2658C13.4095 18.6327 12.5889 16.3199 12.3216 16.5486C12.0269 16.8009 11.7587 17.6799 11.9006 18.7438C12.0426 19.8077 11.1318 20.5761 10.6586 20.8273C10.1559 20.9751 9.2747 21.1553 9.7715 20.6943C10.5546 19.3868 10.279 18.4408 9.54972 17.4316C9.35752 17.1657 8.98195 16.3411 9.54972 15.2417C10.1175 14.1423 11.3536 14.1335 11.9006 14.2664C12.0928 14.3551 12.3858 14.4673 12.6991 13.9118C13.7731 12.0075 15.4788 12.0795 16.425 12.2716Z" fill="#232533"/>
<path d="M11.9434 14.2785L12.5745 14.1523V16.7384L12.1958 16.6753L11.9434 14.2785Z" fill="#04050D"/>
</svg>
