<svg width="90" height="80" viewBox="0 0 90 80" fill="none" xmlns="http://www.w3.org/2000/svg">
<path d="M12.7783 71.0782C12.7783 75.6359 28.9875 79.3307 48.9828 79.3307C56.2761 79.3307 63.066 78.839 68.7491 77.9932C69.1729 77.9301 69.6028 77.9333 70.0311 77.9482C71.6223 78.0039 74.9392 77.7997 76.6219 77.6719C78.6917 77.5364 85.1872 73.1522 85.1872 71.0782C85.1872 66.5204 68.978 62.8257 48.9828 62.8257C28.9875 62.8257 12.7783 66.5204 12.7783 71.0782Z" fill="#1E1E2D"/>
<circle cx="5.11204" cy="51.696" r="5.11204" fill="#F2F2FF"/>
<path fill-rule="evenodd" clip-rule="evenodd" d="M4.93441 50.6561C4.93441 51.1477 4.53592 51.5463 4.04434 51.5463C3.55279 51.5463 3.1543 51.1477 3.1543 50.6561C3.1543 50.1646 3.55279 49.7661 4.04434 49.7661C4.53592 49.7661 4.93441 50.1646 4.93441 50.6561ZM4.50241 50.6561C4.50241 50.9092 4.29732 51.1142 4.04434 51.1142C3.79136 51.1142 3.5863 50.9092 3.5863 50.6561C3.5863 50.4032 3.79136 50.1982 4.04434 50.1982C4.29732 50.1982 4.50241 50.4032 4.50241 50.6561Z" fill="#1E1E2D"/>
<path d="M3.95466 53.6821L5.69026 50.0326C5.79709 49.8191 6.22428 49.9882 6.04626 50.3444L4.39968 53.9044C4.13264 54.3939 3.77664 54.038 3.95466 53.6821Z" fill="#1E1E2D"/>
<path fill-rule="evenodd" clip-rule="evenodd" d="M6.25186 54.2714C6.74344 54.2714 7.14193 53.8728 7.14193 53.3814C7.14193 52.8897 6.74344 52.4912 6.25186 52.4912C5.7603 52.4912 5.36182 52.8897 5.36182 53.3814C5.36182 53.8728 5.7603 54.2714 6.25186 54.2714ZM6.25186 53.8393C6.50484 53.8393 6.70993 53.6343 6.70993 53.3814C6.70993 53.1285 6.50484 52.9233 6.25186 52.9233C5.99888 52.9233 5.79382 53.1285 5.79382 53.3814C5.79382 53.6343 5.99888 53.8393 6.25186 53.8393Z" fill="#1E1E2D"/>
<circle cx="10.2243" cy="9.79222" r="5.11204" fill="white"/>
<path d="M7.99199 7.05615C7.59433 7.05615 7.27197 7.3785 7.27197 7.77617V11.8082C7.27197 12.2058 7.59433 12.5282 7.99199 12.5282C7.99199 11.2006 8.77826 10.3379 9.81627 10.1599C9.32516 10.0226 8.96594 9.58317 8.96594 9.06233C8.96594 8.43152 9.49285 7.92016 10.1428 7.92016C10.7928 7.92016 11.3197 8.43152 11.3197 9.06233C11.3197 9.566 10.9838 9.9935 10.5175 10.1454C11.6115 10.2933 12.456 11.261 12.456 12.5282C12.8537 12.5282 13.176 12.2058 13.176 11.8082V7.77617C13.176 7.3785 12.8537 7.05615 12.456 7.05615H7.99199Z" fill="#A2A2A7"/>
<circle cx="54.4324" cy="5.11204" r="5.11204" fill="white"/>
<path d="M53.7945 4.03349C53.7974 3.86919 53.9579 3.73579 54.1829 3.68457L54.1704 4.37533C53.9459 4.27579 53.7918 4.17498 53.7945 4.03349Z" fill="#1E1E2D"/>
<path d="M54.6641 6.2461L54.6792 5.42578C54.9111 5.53804 55.0778 5.66633 55.0897 5.85811C55.1038 6.08169 54.9154 6.21051 54.6641 6.2461Z" fill="#1E1E2D"/>
<path fill-rule="evenodd" clip-rule="evenodd" d="M52.2001 2.30371C51.8024 2.30371 51.48 2.62607 51.48 3.0237V7.12774C51.48 7.52538 51.8024 7.84776 52.2001 7.84776H56.6641C57.0619 7.84776 57.3842 7.52538 57.3842 7.12774V3.0237C57.3842 2.62607 57.0619 2.30371 56.6641 2.30371H52.2001ZM54.7285 2.70486L54.2012 2.6952L54.1945 3.04777C53.5873 3.13916 53.1116 3.57316 53.1012 4.12993C53.0996 4.74216 53.6381 5.00198 54.1551 5.20877L54.1368 6.19873C53.8732 6.11798 53.6349 5.952 53.5455 5.70217L52.9726 6.18273C53.2638 6.58598 53.6898 6.81734 54.124 6.8971L54.1131 7.495L54.6407 7.50467L54.6513 6.92034C55.2878 6.85866 55.8242 6.46714 55.8179 5.81653C55.8109 5.12649 55.2311 4.81015 54.6939 4.5875L54.7102 3.71255C54.9146 3.77801 55.1196 3.9109 55.2846 4.13356L55.7846 3.65166C55.4561 3.30541 55.0831 3.11895 54.7221 3.05536L54.7285 2.70486Z" fill="#1E1E2D"/>
<path d="M16.1017 71.7869L19.4498 66.8189C20.0258 65.8827 24.1658 65.638 24.5978 65.6668H66.646C68.1461 65.7147 71.175 65.9764 71.29 66.639C72.7661 67.6774 69.9129 69.5526 66.3582 73.155C65.674 73.4789 62.3981 73.5508 60.562 73.5508H21.0697C18.0843 73.5508 16.5321 73.2292 16.1451 72.8757C16.0737 72.8105 16.0596 72.7093 16.0596 72.6127V71.9669C16.0502 71.9062 16.0629 71.8452 16.1017 71.7869Z" fill="#0066FF"/>
<path d="M19.4498 66.8189L16.1017 71.7869C16.0629 71.8452 16.0502 71.9062 16.0596 71.9669C16.0849 72.1311 16.271 72.2938 16.5338 72.3989C17.6497 72.8451 19.7378 72.9029 21.6098 72.9029H60.7779C61.7501 72.9029 65.2061 72.9029 66.3582 72.3989C66.6532 72.2698 69.6491 69.1445 71.1731 67.5366C71.389 67.3087 71.3211 66.8165 71.29 66.639C71.175 65.9764 68.1461 65.7147 66.646 65.6668H24.5978C24.1658 65.638 20.0258 65.8827 19.4498 66.8189Z" fill="#054FBC"/>
<path d="M16.9648 71.5705L20.3128 66.8187C20.6728 66.2426 22.4368 65.8827 24.6329 65.8105H66.1052C67.581 65.8105 71.5412 66.1345 70.8573 67.1065L66.6451 71.4627C65.421 72.6867 62.3612 72.4346 60.597 72.4346H55.4132H21.6448C19.0528 72.4346 18.5489 72.4346 17.4688 72.1466C16.9287 72.0026 16.8208 71.7867 16.9648 71.5705Z" fill="white"/>
<path d="M52.2399 69.2701L46.4669 66.0806C46.3381 66.0095 46.1762 66.0561 46.1051 66.185L44.8877 68.3884C44.8167 68.5172 44.8632 68.6791 44.9921 68.7502L50.7651 71.9396C50.894 72.0107 51.0558 71.9641 51.1269 71.8353L52.3443 69.6318C52.4153 69.5033 52.3687 69.3411 52.2399 69.2701Z" fill="white"/>
<path d="M49.7038 70.1691L49.8385 70.197L49.6333 70.5687L49.7297 70.6219L49.9983 70.1355L49.9879 70.13L49.747 70.0908L49.7038 70.1691Z" fill="#1E1E2D"/>
<path fill-rule="evenodd" clip-rule="evenodd" d="M50.1986 70.8203C50.2463 70.8001 50.2883 70.7564 50.3256 70.6894L50.3748 70.5999C50.4103 70.5344 50.4236 70.4767 50.4145 70.4263C50.406 70.376 50.3751 70.3364 50.3221 70.3071C50.2692 70.2778 50.2188 70.273 50.1712 70.2924C50.1238 70.3121 50.0815 70.3558 50.044 70.4237L49.9947 70.5131C49.9593 70.5786 49.946 70.6364 49.9548 70.6867C49.9636 70.7373 49.9944 70.7769 50.0471 70.8062C50.1009 70.8358 50.1512 70.8406 50.1986 70.8203ZM50.3152 70.441C50.316 70.4655 50.3056 70.4977 50.2833 70.5379L50.2196 70.6534C50.1981 70.6912 50.1771 70.7162 50.1566 70.729C50.1358 70.7418 50.1137 70.7415 50.0903 70.7285C50.0663 70.7154 50.0543 70.6963 50.0541 70.671C50.0541 70.646 50.065 70.6135 50.0868 70.5738L50.152 70.4559C50.1731 70.4191 50.1938 70.3949 50.2141 70.3835C50.2348 70.372 50.2564 70.3726 50.279 70.3851C50.3024 70.3979 50.3144 70.4165 50.3152 70.441Z" fill="#1E1E2D"/>
<path fill-rule="evenodd" clip-rule="evenodd" d="M50.5907 71.0366C50.6384 71.0164 50.6804 70.9727 50.7177 70.9054L50.7669 70.8162C50.8023 70.7507 50.8156 70.6927 50.8066 70.6426C50.7981 70.5923 50.7672 70.5524 50.7142 70.5234C50.6613 70.4941 50.6109 70.4893 50.5636 70.5087C50.5159 70.5284 50.4736 70.5721 50.436 70.64L50.3868 70.7292C50.3514 70.7947 50.3381 70.8527 50.3469 70.903C50.3556 70.9533 50.3865 70.9932 50.4392 71.0225C50.493 71.0521 50.5433 71.0569 50.5907 71.0366ZM50.7073 70.6573C50.7081 70.6818 50.6977 70.714 50.6754 70.7542L50.6117 70.8697C50.5902 70.9073 50.5691 70.9325 50.5486 70.9453C50.5279 70.9578 50.5058 70.9578 50.4824 70.9448C50.4584 70.9317 50.4464 70.9126 50.4462 70.8873C50.4462 70.862 50.4571 70.8298 50.4789 70.7901L50.5441 70.6722C50.5651 70.6355 50.5859 70.6112 50.6061 70.5998C50.6269 70.5883 50.6485 70.5889 50.6711 70.6014C50.6945 70.6142 50.7065 70.6328 50.7073 70.6573Z" fill="#1E1E2D"/>
<path d="M46.51 66.9743L46.6447 67.0022L46.4395 67.3738L46.5358 67.4271L46.8044 66.9407L46.794 66.9351L46.5531 66.896L46.51 66.9743Z" fill="#1E1E2D"/>
<path fill-rule="evenodd" clip-rule="evenodd" d="M47.0048 67.6255C47.0524 67.6053 47.0945 67.5616 47.1318 67.4945L47.181 67.4051C47.2164 67.3396 47.2297 67.2818 47.2207 67.2315C47.2121 67.1812 47.1813 67.1415 47.1283 67.1123C47.0753 67.083 47.025 67.0782 46.9773 67.0976C46.93 67.1173 46.8876 67.161 46.8501 67.2289L46.8009 67.3183C46.7654 67.3838 46.7521 67.4416 46.7609 67.4919C46.7697 67.5424 46.8006 67.5821 46.8533 67.6114C46.9071 67.6409 46.9574 67.6457 47.0048 67.6255ZM47.1214 67.2462C47.1222 67.2706 47.1118 67.3029 47.0894 67.3431L47.0258 67.4586C47.0042 67.4964 46.9832 67.5214 46.9627 67.5342C46.9419 67.547 46.9198 67.5467 46.8964 67.5337C46.8725 67.5206 46.8605 67.5015 46.8602 67.4762C46.8602 67.4511 46.8711 67.4187 46.893 67.379L46.9582 67.2611C46.9792 67.2243 47 67.2001 47.0202 67.1887C47.041 67.1772 47.0625 67.1777 47.0852 67.1903C47.1086 67.203 47.1206 67.2217 47.1214 67.2462Z" fill="#1E1E2D"/>
<path fill-rule="evenodd" clip-rule="evenodd" d="M47.3969 67.8418C47.4445 67.8216 47.4866 67.7779 47.5238 67.7106L47.5731 67.6214C47.6085 67.5559 47.6218 67.4979 47.6128 67.4478C47.6042 67.3975 47.5734 67.3576 47.5204 67.3286C47.4674 67.2993 47.4171 67.2945 47.3697 67.3139C47.3221 67.3336 47.2797 67.3773 47.2422 67.4452L47.1929 67.5343C47.1575 67.5998 47.1442 67.6579 47.153 67.7082C47.1618 67.7585 47.1927 67.7984 47.2454 67.8277C47.2992 67.8573 47.3495 67.862 47.3969 67.8418ZM47.5135 67.4625C47.5143 67.487 47.5039 67.5192 47.4815 67.5594L47.4179 67.6749C47.3963 67.7124 47.3753 67.7377 47.3548 67.7505C47.334 67.763 47.3119 67.763 47.2885 67.75C47.2646 67.7369 47.2526 67.7178 47.2523 67.6925C47.2523 67.6672 47.2632 67.635 47.285 67.5953L47.3503 67.4774C47.3713 67.4406 47.3921 67.4164 47.4123 67.405C47.4331 67.3935 47.4546 67.3941 47.4772 67.4066C47.5007 67.4193 47.5127 67.438 47.5135 67.4625Z" fill="#1E1E2D"/>
<path d="M52.1056 69.6615C51.9968 69.6016 51.931 69.464 52.0082 69.3242L46.5762 66.3232C46.5472 66.4492 46.3371 66.5357 46.1819 66.45L45.1445 68.3278C45.3083 68.3981 45.3354 68.5469 45.2712 68.7221L50.6724 71.706C50.7397 71.6133 50.8853 71.5401 51.0251 71.6173L52.1056 69.6615Z" stroke="#1E1E2D" stroke-width="0.532418" stroke-linejoin="round"/>
<circle cx="48.9048" cy="72.5509" r="1.18801" transform="rotate(28.9187 48.9048 72.5509)" fill="white"/>
<path fill-rule="evenodd" clip-rule="evenodd" d="M48.9792 68.1572L49.1522 68.2528L49.0886 68.3678C49.1972 68.4522 49.288 68.5792 49.3362 68.7517L49.0859 68.8236C49.0705 68.7208 49.0258 68.6409 48.9693 68.5834L48.8109 68.8704C48.9499 69.0384 49.0865 69.245 48.9677 69.4747C48.8559 69.6914 48.6097 69.7271 48.3879 69.636L48.282 69.8277L48.1089 69.7321L48.2173 69.5359C48.0874 69.4334 47.9868 69.2822 47.9609 69.0975L48.2349 69.0386C48.2208 69.1371 48.2708 69.2338 48.344 69.3067L48.5234 68.9819C48.3882 68.8227 48.2554 68.6425 48.3632 68.4399C48.4641 68.2571 48.6978 68.1966 48.915 68.2728L48.9792 68.1572ZM48.7998 68.4817C48.7162 68.4594 48.6395 68.4753 48.61 68.5294C48.5841 68.5757 48.6177 68.6361 48.6744 68.7085L48.7998 68.4817ZM48.6589 69.1454L48.5101 69.4148C48.5996 69.447 48.6848 69.4372 48.7191 69.3608C48.7489 69.295 48.7162 69.2234 48.6589 69.1454Z" fill="#0066FF"/>
<path d="M41.7226 66.6988L35.599 69.149C35.4627 69.2036 35.3961 69.3585 35.4507 69.4951L36.3859 71.8324C36.4408 71.9689 36.5957 72.0352 36.732 71.9807L42.8556 69.5305C42.9922 69.4756 43.0584 69.3207 43.0039 69.1844L42.0687 66.8471C42.0141 66.7105 41.8592 66.6442 41.7226 66.6988Z" fill="white"/>
<path d="M40.7965 69.0431L40.9035 68.9566L41.0611 69.3506L41.1633 69.3096L40.957 68.7939L40.9461 68.7982L40.7632 68.9601L40.7965 69.0431Z" fill="#1E1E2D"/>
<path fill-rule="evenodd" clip-rule="evenodd" d="M41.6136 69.0727C41.6279 69.0232 41.621 68.9627 41.5925 68.8914L41.5545 68.7966C41.5262 68.7279 41.4898 68.6811 41.4453 68.6561C41.4009 68.631 41.3505 68.6297 41.2944 68.6521C41.2382 68.6747 41.2028 68.7104 41.1876 68.7596C41.173 68.8089 41.1799 68.8693 41.2087 68.9412L41.2465 69.0359C41.2749 69.1049 41.3114 69.1517 41.3559 69.177C41.4003 69.202 41.4506 69.2034 41.5068 69.181C41.5638 69.1581 41.5992 69.1222 41.6136 69.0727ZM41.3937 68.7423C41.4134 68.7569 41.4315 68.7857 41.4485 68.8283L41.4975 68.9507C41.5132 68.9912 41.5196 69.0234 41.5161 69.0476C41.5129 69.0716 41.4988 69.0886 41.4738 69.0985C41.4485 69.1086 41.4261 69.1059 41.4064 69.0902C41.387 69.0743 41.3689 69.0453 41.3521 69.0032L41.3018 68.8781C41.2869 68.8384 41.2813 68.807 41.2853 68.7841C41.2893 68.7609 41.3034 68.7444 41.3276 68.7348C41.3524 68.725 41.3742 68.7274 41.3937 68.7423Z" fill="#1E1E2D"/>
<path fill-rule="evenodd" clip-rule="evenodd" d="M42.0293 68.9059C42.0436 68.8564 42.0365 68.7962 42.008 68.7249L41.9702 68.6301C41.9417 68.5614 41.9055 68.5146 41.861 68.4895C41.8163 68.4645 41.766 68.4632 41.7101 68.4856C41.6539 68.5079 41.6182 68.5438 41.6033 68.5931C41.5884 68.6424 41.5954 68.7028 41.6241 68.7747L41.6622 68.8694C41.6904 68.9384 41.7269 68.9852 41.7713 69.0103C41.816 69.0355 41.8664 69.0369 41.9225 69.0145C41.9792 68.9916 42.0149 68.9554 42.0293 68.9059ZM41.8094 68.5758C41.8288 68.5904 41.8472 68.6192 41.8642 68.6618L41.9132 68.7842C41.9289 68.8247 41.935 68.8569 41.9318 68.8809C41.9286 68.9051 41.9145 68.9219 41.8895 68.932C41.8642 68.9421 41.8419 68.9392 41.8222 68.9237C41.8025 68.9078 41.7844 68.8787 41.7676 68.8367L41.7175 68.7116C41.7024 68.6719 41.6968 68.6405 41.7008 68.6176C41.705 68.5944 41.7191 68.5779 41.7431 68.5683C41.7679 68.5585 41.7899 68.5609 41.8094 68.5758Z" fill="#1E1E2D"/>
<path d="M36.2711 69.8415L36.3781 69.7549L36.5357 70.1489L36.6379 70.1079L36.4316 69.5923L36.4207 69.5965L36.2378 69.7584L36.2711 69.8415Z" fill="#1E1E2D"/>
<path fill-rule="evenodd" clip-rule="evenodd" d="M37.0877 69.8705C37.1021 69.821 37.0951 69.7606 37.0666 69.6892L37.0286 69.5945C37.0004 69.5258 36.9639 69.4789 36.9194 69.4539C36.875 69.4289 36.8247 69.4275 36.7685 69.4499C36.7123 69.4725 36.6769 69.5082 36.6617 69.5575C36.6471 69.6067 36.654 69.6671 36.6828 69.739L36.7206 69.8338C36.7491 69.9027 36.7855 69.9496 36.83 69.9749C36.8744 69.9999 36.9248 70.0012 36.9809 69.9789C37.0379 69.956 37.0733 69.92 37.0877 69.8705ZM36.8678 69.5402C36.8875 69.5548 36.9056 69.5835 36.9226 69.6261L36.9716 69.7486C36.9873 69.7891 36.9937 69.8213 36.9902 69.8455C36.9871 69.8695 36.9729 69.8865 36.9479 69.8963C36.9226 69.9065 36.9003 69.9038 36.8806 69.8881C36.8611 69.8721 36.843 69.8431 36.8263 69.801L36.7759 69.6759C36.761 69.6363 36.7555 69.6048 36.7594 69.5819C36.7634 69.5588 36.7775 69.5423 36.8018 69.5327C36.8265 69.5229 36.8484 69.5252 36.8678 69.5402Z" fill="#1E1E2D"/>
<path fill-rule="evenodd" clip-rule="evenodd" d="M37.5039 69.7037C37.5183 69.6542 37.5111 69.5941 37.4826 69.5227L37.4448 69.428C37.4163 69.3593 37.3801 69.3124 37.3356 69.2874C37.2909 69.2624 37.2406 69.261 37.1847 69.2834C37.1285 69.3058 37.0929 69.3417 37.0779 69.3909C37.063 69.4402 37.07 69.5006 37.0987 69.5725L37.1368 69.6673C37.165 69.7362 37.2015 69.7831 37.2459 69.8081C37.2906 69.8334 37.341 69.8347 37.3971 69.8124C37.4538 69.7895 37.4895 69.7533 37.5039 69.7037ZM37.284 69.3737C37.3034 69.3883 37.3218 69.417 37.3388 69.4596L37.3878 69.5821C37.4035 69.6226 37.4096 69.6548 37.4064 69.6787C37.4033 69.703 37.3891 69.7197 37.3641 69.7298C37.3388 69.74 37.3165 69.737 37.2968 69.7216C37.2771 69.7056 37.259 69.6766 37.2422 69.6345L37.1922 69.5094C37.177 69.4698 37.1714 69.4383 37.1754 69.4154C37.1796 69.3923 37.1937 69.3758 37.2177 69.3662C37.2425 69.3563 37.2646 69.3587 37.284 69.3737Z" fill="#1E1E2D"/>
<path d="M41.9405 67.0512C41.8255 67.0973 41.6773 67.0611 41.6179 66.9131L35.8561 69.2185C35.9351 69.3207 35.8694 69.5379 35.7046 69.6037L36.5016 71.5957C36.6598 71.5134 36.7921 71.5864 36.8871 71.7472L42.6159 69.4548C42.5869 69.3441 42.6226 69.1849 42.7706 69.1255L41.9405 67.0512Z" stroke="#1E1E2D" stroke-width="0.532418" stroke-linejoin="round"/>
<circle cx="39.4047" cy="70.8501" r="1.18801" transform="rotate(-21.8075 39.4047 70.8501)" fill="white"/>
<path fill-rule="evenodd" clip-rule="evenodd" d="M38.7961 68.5193L38.9798 68.4458L39.0285 68.5677C39.1627 68.5371 39.3187 68.5472 39.4824 68.6191L39.3799 68.8584C39.2905 68.8054 39.2005 68.7895 39.1201 68.7967L39.242 69.1009C39.4601 69.0999 39.7063 69.1246 39.8091 69.3618C39.906 69.5857 39.7779 69.7989 39.5668 69.9131L39.6483 70.1165L39.4646 70.1897L39.3815 69.9818C39.22 70.0175 39.0392 69.9997 38.8797 69.9028L39.0078 69.6533C39.0749 69.7265 39.1814 69.7492 39.2841 69.7388L39.1462 69.394C38.9378 69.398 38.7139 69.3866 38.6252 69.1749C38.5478 68.9811 38.6489 68.7621 38.8454 68.642L38.7961 68.5193ZM38.934 68.8637C38.8638 68.9141 38.8278 68.9835 38.8507 69.0408C38.8704 69.09 38.9383 69.1023 39.0301 69.1041L38.934 68.8637ZM39.3586 69.3927L39.4731 69.6783C39.5546 69.6294 39.6009 69.5575 39.5636 69.4821C39.5314 69.4177 39.4553 69.3978 39.3586 69.3927Z" fill="#0066FF"/>
<path d="M14.9038 20.7604C14.9038 17.5259 17.5259 14.9038 20.7604 14.9038H71.8145C75.049 14.9038 77.6711 17.5259 77.6711 20.7604V49.0257C77.6711 52.2602 75.049 54.8823 71.8145 54.8823H20.7604C17.5259 54.8823 14.9038 52.2602 14.9038 49.0257V20.7604Z" fill="#93BEFF"/>
<path d="M16.48 22.8924C16.48 19.3668 19.3358 16.5076 22.8613 16.5034L69.7501 16.4468C73.2819 16.4425 76.1468 19.3042 76.1468 22.8358V46.8884C76.1468 50.4138 73.2912 53.2729 69.7655 53.2772L22.8767 53.3339C19.3452 53.3381 16.48 50.4764 16.48 46.9448V22.8924Z" fill="white"/>
<path d="M13.1763 17.0467C13.1763 14.9884 14.8449 13.3198 16.9032 13.3198H28.4575C30.5158 13.3198 32.1844 14.9884 32.1844 17.0468V29.0234C32.1844 31.0817 30.5158 32.7503 28.4575 32.7503H16.9032C14.8449 32.7503 13.1763 31.0817 13.1763 29.0234V17.0467Z" fill="#232533"/>
<path d="M13.1763 16.5784C13.1763 14.7787 14.6352 13.3198 16.4348 13.3198H28.926C30.7255 13.3198 32.1844 14.7787 32.1844 16.5784H13.1763Z" fill="#0066FF"/>
<circle cx="29.9513" cy="15.0094" r="0.543091" fill="#FCFEFD"/>
<circle cx="27.7789" cy="15.0094" r="0.543091" fill="#FCFEFD"/>
<circle cx="25.6066" cy="15.0094" r="0.543091" fill="#FCFEFD"/>
<path opacity="0.5" d="M21.0815 19.2076C21.0815 19.0576 21.2031 18.936 21.3531 18.936H30.827C30.9769 18.936 31.0985 19.0576 31.0985 19.2076C31.0985 19.3576 30.9769 19.4791 30.827 19.4791H21.3531C21.2031 19.4791 21.0815 19.3576 21.0815 19.2076Z" fill="#A2A2A7"/>
<path opacity="0.5" d="M21.0815 20.9029C21.0815 20.7529 21.2031 20.6313 21.3531 20.6313H30.827C30.9769 20.6313 31.0985 20.7529 31.0985 20.9029C31.0985 21.0529 30.9769 21.1744 30.827 21.1744H21.3531C21.2031 21.1744 21.0815 21.0529 21.0815 20.9029Z" fill="#A2A2A7"/>
<path opacity="0.5" d="M21.0815 22.5972C21.0815 22.4473 21.2031 22.3257 21.3531 22.3257H30.827C30.9769 22.3257 31.0985 22.4473 31.0985 22.5972C31.0985 22.7472 30.9769 22.8688 30.827 22.8688H21.3531C21.2031 22.8688 21.0815 22.7472 21.0815 22.5972Z" fill="#A2A2A7"/>
<path d="M14.2017 20.5615C14.2017 18.9618 15.4985 17.665 17.0981 17.665C18.6978 17.665 19.9946 18.9618 19.9946 20.5615V21.165C19.9946 22.7646 18.6978 24.0614 17.0981 24.0614C15.4985 24.0614 14.2017 22.7646 14.2017 21.165V20.5615Z" fill="#FEFFFF"/>
<path d="M17.0989 19.8373C17.4654 19.8373 17.7626 19.5401 17.7626 19.1735C17.7626 18.8069 17.4654 18.5098 17.0989 18.5098C16.7323 18.5098 16.4351 18.8069 16.4351 19.1735C16.4351 19.5401 16.7323 19.8373 17.0989 19.8373Z" fill="#1E1E2D"/>
<path d="M16.7951 20.2598C16.5962 20.2598 16.4351 20.421 16.4351 20.6198V22.5549C16.4351 22.7537 16.5962 22.9149 16.7951 22.9149H17.4026C17.6015 22.9149 17.7626 22.7537 17.7626 22.5549V20.6198C17.7626 20.421 17.6015 20.2598 17.4026 20.2598H16.7951Z" fill="#1E1E2D"/>
<rect x="15.1675" y="28.8276" width="0.663776" height="1.56892" fill="white"/>
<rect x="17.0981" y="29.3711" width="0.663776" height="1.02583" fill="white"/>
<rect x="19.2109" y="28.7676" width="0.663776" height="1.62927" fill="white"/>
<rect x="21.2012" y="27.9233" width="0.663776" height="2.47407" fill="white"/>
<rect x="23.1934" y="26.9575" width="0.663776" height="3.43955" fill="white"/>
<rect x="25.1846" y="27.561" width="0.663776" height="2.83614" fill="white"/>
<rect x="27.1758" y="26.8364" width="0.663776" height="3.56025" fill="white"/>
<rect x="29.1675" y="26.2935" width="0.663776" height="4.10335" fill="white"/>
<path d="M38.3047 23.145C38.3047 20.9396 40.0925 19.1519 42.2978 19.1519H68.6137C70.819 19.1519 72.6068 20.9396 72.6068 23.145V40.9349C72.6068 43.1402 70.819 44.928 68.6137 44.928H42.2978C40.0925 44.928 38.3047 43.1402 38.3047 40.9349V23.145Z" fill="#232533"/>
<path d="M38.3047 22.9192C38.3047 20.8385 39.9914 19.1519 42.0718 19.1519H68.8394C70.9201 19.1519 72.6068 20.8385 72.6068 22.9192H38.3047Z" fill="black"/>
<circle cx="62.3956" cy="20.9366" r="0.693973" fill="white"/>
<circle cx="65.2701" cy="20.9366" r="0.693973" fill="white"/>
<circle cx="68.1456" cy="20.9366" r="0.693973" fill="white"/>
<path d="M57.3125 30.8504C57.3125 29.9743 58.0227 29.2642 58.8987 29.2642H69.4075C70.2835 29.2642 70.9937 29.9743 70.9937 30.8504C70.9937 31.7264 70.2835 32.4366 69.4075 32.4366H58.8987C58.0227 32.4366 57.3125 31.7264 57.3125 30.8504Z" fill="white"/>
<path d="M57.3125 36.5061C57.3125 35.6301 58.0227 34.9199 58.8987 34.9199H69.4075C70.2835 34.9199 70.9937 35.6301 70.9937 36.5061C70.9937 37.3822 70.2835 38.0924 69.4075 38.0924H58.8987C58.0227 38.0924 57.3125 37.3822 57.3125 36.5061Z" fill="white"/>
<path d="M53.5032 35.5389C53.7806 35.6366 53.9281 35.9417 53.8102 36.2111C53.3499 37.2642 52.645 38.1957 51.751 38.9264C50.7195 39.7695 49.4757 40.3126 48.1561 40.4963C46.8366 40.6799 45.4917 40.4973 44.269 39.9678C43.0463 39.4386 41.9926 38.5833 41.2235 37.4953C40.4545 36.4073 39.9992 35.1287 39.9082 33.7995C39.8169 32.4701 40.0929 31.1414 40.7063 29.9586C41.3196 28.7759 42.2466 27.7845 43.3854 27.0932C44.3725 26.494 45.4855 26.1401 46.6321 26.0574C46.9255 26.0363 47.1637 26.277 47.1635 26.571L47.1552 32.9247C47.1549 33.1508 47.2974 33.3525 47.5106 33.4276L53.5032 35.5389Z" fill="white"/>
<path d="M51.8036 27.6678C51.9758 27.4295 52.3099 27.3741 52.5351 27.5634C53.5896 28.4491 54.3735 29.6191 54.7902 30.9392C55.2068 32.2593 55.2363 33.6673 54.8812 34.9976C54.8056 35.2819 54.5 35.4285 54.2223 35.3322L48.5393 33.3598C48.2023 33.2427 48.0734 32.8341 48.2821 32.545L51.8036 27.6678Z" fill="#0066FF"/>
<path d="M47.5088 26.128C47.5088 25.834 47.7476 25.5936 48.0407 25.6151C49.2256 25.7021 50.3711 26.0785 51.3765 26.7111C51.6254 26.8676 51.6752 27.2028 51.5009 27.4397L48.4698 31.5545C48.165 31.9682 47.5088 31.7525 47.5088 31.2385V26.128Z" fill="#93BEFF"/>
<path d="M78.4751 27.6602C78.2946 26.7479 78.3899 25.6328 78.3899 25.1513C78.3899 22.9719 81.6337 23.5041 81.6337 24.8979C81.6337 25.5823 81.5948 26.5364 81.4308 27.3562C81.2027 28.4966 78.7445 29.3328 78.4751 27.6602Z" fill="#FEBFAE"/>
<path d="M82.2947 22.5869C82.1935 24.0821 81.6867 25.6026 80.7744 25.9068C79.9928 26.1672 79.073 26.1302 78.3127 25.2225C78.1421 25.0189 77.8306 23.9971 77.5854 22.815C77.6853 23.0431 77.9411 23.5854 78.1639 23.9301C78.4426 24.3609 79.1271 23.8287 79.8112 23.626C80.4954 23.4232 81.2051 24.7157 81.5599 24.2342C81.9145 23.7527 81.6614 23.6259 82.2947 22.5869Z" fill="#2B1818"/>
<path d="M79.4562 27.478C78.796 27.2661 78.517 26.7084 78.4424 26.4896C78.4424 26.2615 77.9356 26.9458 77.5048 29.2011C77.1601 31.0055 77.8344 35.3932 78.2146 37.3615H78.9493C79.921 34.2442 81.8739 27.8126 81.9143 27.0217C81.9652 26.0334 81.6865 25.8054 81.4836 26.1348C81.3244 26.3936 80.7978 27.1394 79.835 27.4687C79.7588 27.4939 79.5445 27.5065 79.4562 27.478Z" fill="#F2F2F2"/>
<path d="M78.8213 28.1925C78.8213 28.0565 79.2874 27.6731 79.4565 27.4788C79.5193 27.5025 79.7317 27.5014 79.835 27.4697C80.1223 27.6356 80.5564 28.0109 80.4955 28.2138C80.4196 28.4672 79.8079 28.9272 79.6322 28.9272C79.4889 28.9272 78.8213 28.3698 78.8213 28.1925Z" fill="#2240A9"/>
<path d="M78.2145 33.9156C78.3156 33.2871 78.983 30.0721 79.3041 28.543H79.9376C80.0306 29.9286 80.2113 32.765 80.1911 33.0286C80.1743 33.2477 79.5263 34.8817 79.041 36.0724C78.9484 36.3003 78.6298 36.2873 78.5624 36.0509C78.3534 35.3177 78.1397 34.3783 78.2145 33.9156Z" fill="#2240A9"/>
<path d="M79.4559 27.4785C79.0098 28.1475 78.8042 28.9081 78.4422 28.8362C78.2324 28.7944 78.1821 28.3322 78.2015 27.8283C78.0482 29.5922 78.9123 29.0523 79.4559 27.4785Z" fill="#DEE5FF"/>
<path d="M80.8207 28.9075C81.1716 28.9075 81.9021 27.2656 81.9146 27.022C81.9109 27.1159 81.7208 28.0317 81.2528 28.6557C80.4968 29.6636 80.099 27.9814 79.835 27.4687C80.1701 27.9582 80.3889 28.9075 80.8207 28.9075Z" fill="#DEE5FF"/>
<path d="M79.4559 27.478C78.8966 27.2914 78.5673 26.8098 78.4422 26.4897C78.3392 26.3031 77.9479 28.7375 78.4422 28.8357C78.8042 28.9076 79.0098 28.147 79.4559 27.478Z" fill="#F2F2F2"/>
<path d="M81.9146 27.0221C81.9604 26.126 81.6848 25.9233 81.5834 25.974C81.178 26.6329 80.4685 27.2665 79.835 27.4691C80.1701 27.9587 80.3887 28.908 80.8207 28.908C81.1716 28.908 81.9021 27.266 81.9146 27.0221Z" fill="#F2F2F2"/>
<path d="M84.9804 45.6493C85.2577 53.0906 83.1289 54.0791 82.6981 67.9158H79.2262C77.9844 48.7573 77.9844 43.3594 77.9844 43.3594L84.9804 45.6493Z" fill="#1E1E2D"/>
<path d="M83.0893 48.4199C82.9815 49.4281 83.5573 51.012 84.0974 51.624" stroke="#2F2F42" stroke-width="0.532418" stroke-linecap="round"/>
<path d="M84.4929 48.0601C84.4929 52.2361 82.4769 58.1763 82.4409 66.6723" stroke="#2F2F42" stroke-width="0.532418"/>
<path d="M73.7268 67.9157C73.7268 52.2035 73.3467 50.7085 74.9956 41.7466L79.9881 43.6979C79.9881 43.6979 78.1366 51.0887 77.6177 67.9157H73.7268Z" fill="#1E1E2D"/>
<path d="M75.6011 47.7002C75.7451 48.8521 75.313 50.58 74.1611 51.4801" stroke="#2F2F42" stroke-width="0.532418"/>
<path d="M74.5207 47.6279C74.2087 48.4561 73.6207 58.6442 74.5207 65.3402" stroke="#2F2F42" stroke-width="0.532418"/>
<path d="M78.7264 52.4104L79.3594 47.5553L78.5384 47.4482L78.0262 51.3751C77.9658 51.8391 78.4418 52.4578 78.7264 52.4104Z" fill="#2F2F42"/>
<path d="M64.2506 36.677C65.0867 36.8293 66.1257 37.3615 66.3792 36.8038C66.5101 36.5157 66.5059 36.0919 66.5155 35.7395C66.048 34.6153 64.553 34.6405 63.1844 33.7788C61.8941 32.9664 63.4887 34.7558 62.6791 34.7766C61.691 34.8019 60.4238 33.8134 60.652 34.9033C60.8798 35.9929 63.4141 36.525 64.2506 36.677Z" fill="#FEBFAE"/>
<path d="M72.0819 39.1866C70.7894 39.288 66.6568 37.8849 65.8459 37.4541C65.2155 37.1192 65.7589 34.7678 66.2766 34.7678C66.2766 34.7678 69.2164 35.3761 70.5341 35.7815C71.8521 36.187 71.5226 34.2357 72.511 31.4732C73.5537 28.559 75.3275 27.976 76.2885 28.8471C77.0996 29.5818 75.2226 34.7425 74.7663 36.035C74.3103 37.3274 73.3743 39.0852 72.0819 39.1866Z" fill="#0066FF"/>
<path d="M78.8986 47.7264C78.8379 47.5238 78.6198 45.2597 78.5184 44.1531C78.4013 42.9115 78.1383 38.1977 78.8986 36.7027C79.6588 35.2074 81.6341 26.8607 81.5833 25.9989C81.5535 25.492 82.4197 26.4297 84.6007 27.3007C87.5402 28.1874 87.4644 28.821 84.93 36.0691C82.3957 43.3169 85.1835 48.1065 84.5246 48.1065C83.8657 48.1065 78.9747 47.9798 78.8986 47.7264Z" fill="#0066FF"/>
<path d="M81.5832 25.9989C81.5752 25.863 81.6316 25.8309 81.7604 25.8736C82.3687 26.4804 82.1914 28.4065 82.6727 28.8373C82.825 29.0146 82.2066 29.4557 81.8619 29.4961C82.09 29.851 82.6727 30.3831 83.1543 30.3831L78.8984 36.7027C79.4183 35.6802 80.5061 31.4549 81.1258 28.6091C81.4125 27.2927 81.5991 26.2714 81.5832 25.9989Z" fill="#3A5ACF"/>
<path d="M75.653 47.7429C76.7665 47.987 76.8712 47.6761 77.2766 46.9158C79.3038 42.481 79.2785 39.3892 78.8731 38.1474C78.4676 36.9055 78.2903 35.3091 78.0369 33.0282C77.7835 30.7473 78.618 26.9115 78.4154 26.0245C78.2799 25.4316 76.4149 27.4024 75.1986 28.2133C73.982 29.0241 74.4888 28.5934 75.1986 35.3344C75.908 42.0753 72.4345 47.1186 72.9414 47.4732C73.4482 47.8281 74.6086 47.5137 75.653 47.7429Z" fill="#0066FF"/>
<path d="M78.0365 33.0283C78.2775 35.1968 78.4497 36.7469 78.8147 37.9614C78.8464 38.0591 78.8663 38.1227 78.8727 38.1475C78.8527 38.0862 78.8336 38.0245 78.8147 37.9614C78.4915 36.9663 76.9576 32.4524 76.1851 30.0539C76.5905 29.9525 77.2661 29.657 77.4775 29.2936C77.3353 29.2127 76.9198 28.6677 76.9706 28.6094C77.3761 28.143 77.7054 26.2085 78.2197 25.9232C78.3243 25.8991 78.3927 25.9274 78.4151 26.0245C78.5032 26.4101 78.3954 27.3529 78.266 28.483L78.2631 28.508C78.0954 29.973 77.8941 31.7462 78.0365 33.0283Z" fill="#3A5ACF"/>
<path d="M87.3234 47.4901H77.2157C76.4828 47.4901 75.8887 46.9949 75.8887 46.384V39.8842C75.8887 39.3204 76.4371 38.8633 77.1138 38.8633H87.4254C88.1021 38.8633 88.6505 39.3204 88.6505 39.8842V46.384C88.6505 46.9949 88.0563 47.4901 87.3234 47.4901Z" fill="black"/>
<path d="M82.1701 38.8635H87.4254C88.1021 38.8635 88.6505 39.3206 88.6505 39.8844V45.8145H75.8887V39.8844C75.8887 39.3206 76.4371 38.8635 77.1138 38.8635H77.9989C77.9989 38.4751 78.3769 38.1602 78.8431 38.1602H81.326C81.7924 38.1602 82.1701 38.4751 82.1701 38.8635Z" fill="#1E1E2D"/>
<path d="M84.6506 46.9916C84.7015 45.9779 85.487 45.7753 85.2336 45.4713C85.0856 45.2934 84.5859 44.9697 84.1693 44.7192C83.688 44.4176 83.5357 45.1417 82.8769 45.2937C82.218 45.4457 81.5338 46.206 81.6858 46.6876C81.8378 47.1692 82.4714 46.1807 82.3953 46.6876C82.3191 47.1944 81.0014 47.5237 81.9137 48.0053C83.3329 48.6897 84.6 48.0053 84.6506 46.9916Z" fill="#FEBFAE"/>
<path d="M87.5402 43.0131C87.2868 43.6211 86.2696 45.5794 85.8405 45.766C85.2908 46.005 83.304 44.773 83.6357 44.2201C83.9397 43.7132 85.3355 40.1239 85.5634 38.5781C85.7915 37.0322 84.8031 32.3693 84.2203 30.722C83.6373 29.0747 83.9669 26.794 86.0955 27.9089C88.2244 29.0241 88.9085 32.496 89.162 36.3986C89.3638 39.5066 87.7937 42.4048 87.5402 43.0131Z" fill="#0066FF"/>
<path d="M81.9796 20.1574C81.8319 20.7151 82.3781 20.7379 82.3781 22.2403C82.3904 22.405 82.4327 22.4893 82.4806 22.5114C82.4806 23.868 81.7975 25.4299 80.8301 26.2696C80.2269 26.7932 79.5326 26.5264 79.1456 26.2696C78.1987 25.6413 77.4839 23.8224 77.4839 22.6614C77.7661 22.37 77.4341 21.2159 77.7341 20.7265C77.9505 20.3736 77.8821 19.5427 78.2578 19.4175C78.713 19.6338 81.752 18.9395 81.9796 20.1574Z" fill="#FEBFAE"/>
<path d="M80.8296 26.2689C80.2264 26.7925 79.4847 26.5858 79.145 26.2689C78.7324 25.8837 78.7124 24.9144 78.8604 24.516C79.7597 23.5485 80.6361 23.9583 81.1597 24.516C81.2393 25.3014 81.2167 25.878 80.8296 26.2689Z" fill="#232533"/>
<path d="M76.789 21.0337C76.8529 21.6074 77.0965 21.5687 77.4836 22.6614C77.7658 22.37 77.4338 21.2158 77.7338 20.7264C77.9502 20.3736 77.8818 19.5426 78.2574 19.4174C78.7127 19.6337 81.7517 18.9394 81.9796 20.1573C81.8316 20.715 82.3778 20.7378 82.3778 22.2402C82.3901 22.4049 82.4324 22.4892 82.4803 22.5113C82.5647 22.5505 82.6661 22.3962 82.651 22.1492C82.6054 21.4093 83.3226 21.6711 83.4137 19.1329C83.8119 19.076 83.1405 17.3914 82.651 17.6646C82.4803 17.1068 81.6495 16.8223 81.3761 16.8906C81.4764 16.6903 81.4179 16.4657 81.3761 16.3784C81.3854 16.5969 81.1676 16.7199 81.0574 16.754C81.194 16.7085 81.1676 16.4618 81.1373 16.3442C81.1464 16.5264 80.936 16.6933 80.8298 16.754C80.9664 16.6629 80.8868 16.4429 80.8298 16.3442C80.8753 16.5628 80.6895 16.7085 80.5908 16.754C80.6933 16.6629 80.6477 16.4808 80.5908 16.3442C80.5908 16.5355 80.2873 16.6971 80.1355 16.754C80.2631 16.6356 80.1885 16.4315 80.1355 16.3442C80.09 16.5264 79.8129 16.6933 79.6803 16.754C79.7895 16.5719 79.7259 16.4049 79.6803 16.3442C79.4527 17.0955 78.3144 16.5605 77.6087 17.9605C77.2331 17.8125 76.9195 18.1881 76.789 18.4613C76.3112 19.463 76.789 20.5329 76.789 21.0337Z" fill="#232533"/>
<path d="M80.9204 24.8234C80.9774 24.1633 79.0767 24.1291 79.0767 24.8234C79.0767 25.0397 79.2247 25.495 79.6344 25.7113C79.7781 25.5895 79.9653 25.2955 79.6613 25.248C79.6461 25.2457 79.6344 25.2329 79.6344 25.2176C79.6344 25.2011 79.6477 25.1877 79.6642 25.1877H80.3457C80.3614 25.1877 80.3742 25.2004 80.3742 25.2161C80.3742 25.2318 80.3614 25.2444 80.3457 25.2459C80.171 25.2621 80.0856 25.4302 80.2261 25.7113C80.5903 25.7113 80.8959 25.108 80.9204 24.8234Z" fill="#FFA289" stroke="#FEBFAE" stroke-width="0.266209"/>
<path d="M76.276 75.4186C73.8352 75.4186 71.8564 74.9919 71.8564 74.4653V75.4186C73.1563 76.6317 80.1755 76.5452 80.6954 75.4186V74.4653C80.6954 74.9919 78.7167 75.4186 76.276 75.4186Z" fill="#FEDB35"/>
<path d="M80.271 75.768C80.3312 75.7395 80.386 75.7099 80.435 75.6793V74.836C80.435 74.8208 80.4313 74.8067 80.4246 74.7944C80.3762 74.8226 80.3219 74.8503 80.2617 74.8772V75.7291C80.2617 75.7429 80.2652 75.7562 80.271 75.768Z" fill="#FBAE2C"/>
<path d="M80.007 75.8746C80.0664 75.8541 80.1223 75.8328 80.1753 75.8107V74.9477C80.1753 74.9367 80.1731 74.9261 80.1694 74.9165C80.1172 74.9375 80.0613 74.958 80.002 74.978V75.845C80.002 75.8554 80.0038 75.8655 80.007 75.8746Z" fill="#FBAE2C"/>
<path d="M79.7456 75.9556C79.8045 75.9393 79.8612 75.9226 79.9155 75.9053V75.0323C79.9155 75.0236 79.9142 75.0153 79.912 75.0073C79.8577 75.0244 79.8013 75.0406 79.7422 75.0568V75.9319C79.7422 75.9401 79.7435 75.9481 79.7456 75.9556Z" fill="#FBAE2C"/>
<path d="M79.4846 76.0206C79.5431 76.0073 79.6004 75.9937 79.6557 75.9793V75.1008C79.6557 75.0937 79.6547 75.0867 79.6531 75.0801C79.598 75.0942 79.541 75.1078 79.4824 75.1211V76.0009C79.4824 76.0078 79.4832 76.0142 79.4846 76.0206Z" fill="#FBAE2C"/>
<path d="M79.2233 76.075C79.2818 76.0638 79.3391 76.0523 79.395 76.0404V75.1587C79.395 75.1528 79.3945 75.1467 79.3931 75.1411C79.3375 75.1531 79.2802 75.1648 79.2217 75.176V76.0585C79.2217 76.0641 79.2222 76.0697 79.2233 76.075Z" fill="#FBAE2C"/>
<path d="M78.9635 76.1206C79.0218 76.1113 79.0793 76.1017 79.1357 76.0916V75.208C79.1357 75.203 79.1352 75.1979 79.1344 75.1929C79.0782 75.2033 79.0207 75.2131 78.9624 75.223V76.1068C78.9624 76.1116 78.9627 76.1161 78.9635 76.1206Z" fill="#FBAE2C"/>
<path d="M78.7029 76.159C78.7612 76.151 78.8187 76.1427 78.8754 76.1342V75.2499C78.8754 75.2453 78.8752 75.2411 78.8744 75.2368C78.8179 75.2456 78.7604 75.2541 78.7021 75.2624V76.147C78.7021 76.151 78.7024 76.155 78.7029 76.159Z" fill="#FBAE2C"/>
<path d="M78.4432 76.191C78.5015 76.1843 78.559 76.1774 78.616 76.1702V75.2856C78.616 75.2819 78.6157 75.2781 78.6152 75.2744C78.5585 75.2819 78.5009 75.2893 78.4424 75.2965V76.1809C78.4424 76.1843 78.4427 76.1878 78.4432 76.191Z" fill="#FBAE2C"/>
<path d="M78.1824 76.2181C78.2407 76.2126 78.2985 76.2067 78.3554 76.2006V75.3162C78.3554 75.313 78.3552 75.3096 78.3549 75.3066C78.2979 75.313 78.2404 75.3194 78.1821 75.3253V76.2096C78.1821 76.2126 78.1821 76.2152 78.1824 76.2181Z" fill="#FBAE2C"/>
<path d="M77.9226 76.2407C77.9809 76.2359 78.0387 76.2311 78.0957 76.2261V75.3422C78.0957 75.3396 78.0957 75.3366 78.0954 75.334C78.0384 75.3396 77.9807 75.3449 77.9224 75.35V76.2335C77.9224 76.2359 77.9226 76.2383 77.9226 76.2407Z" fill="#FBAE2C"/>
<path d="M77.6629 76.2593C77.7209 76.2556 77.7787 76.2516 77.8359 76.2474V75.3643C77.8359 75.3619 77.8359 75.3598 77.8356 75.3574C77.7784 75.3622 77.7209 75.3665 77.6626 75.3707V76.2535C77.6626 76.2556 77.6626 76.2575 77.6629 76.2593Z" fill="#FBAE2C"/>
<path d="M77.4021 76.2738C77.4602 76.2712 77.5179 76.268 77.5752 76.2648V75.3964C77.5752 75.3897 77.5744 75.3833 77.573 75.377C77.5166 75.3807 77.4596 75.3841 77.4024 75.3873C77.4021 75.3903 77.4019 75.3935 77.4019 75.3964V76.2696C77.4019 76.2709 77.4019 76.2725 77.4021 76.2738Z" fill="#FBAE2C"/>
<path d="M77.1421 76.2847C77.2001 76.2826 77.2579 76.2804 77.3154 76.2778V75.3963C77.3154 75.395 77.3154 75.3934 77.3151 75.3921C77.2579 75.395 77.2001 75.3979 77.1421 75.4003V76.2815C77.1421 76.2826 77.1421 76.2836 77.1421 76.2847Z" fill="#FBAE2C"/>
<path d="M76.8823 76.2919C76.9404 76.2905 76.9981 76.2892 77.0556 76.2874V75.407C77.0556 75.4059 77.0556 75.4049 77.0556 75.4038C76.9981 75.4059 76.9404 75.4081 76.8823 75.4097V76.2898C76.8823 76.2905 76.8823 76.2911 76.8823 76.2919Z" fill="#FBAE2C"/>
<path d="M76.6226 76.2957C76.6803 76.2951 76.7381 76.2946 76.7959 76.2935V75.4142C76.7959 75.4134 76.7959 75.4129 76.7959 75.4121C76.7384 75.4137 76.6806 75.4148 76.6226 75.4158V76.2949V76.2957Z" fill="#FBAE2C"/>
<path d="M76.3628 76.296C76.4206 76.2963 76.4783 76.2963 76.5361 76.296V75.4178V75.417C76.4786 75.4175 76.4208 75.4181 76.3628 75.4183V76.296Z" fill="#FBAE2C"/>
<path d="M76.1021 76.2933C76.1598 76.2943 76.2179 76.2951 76.2756 76.2957V76.2946V75.4188C76.2176 75.4188 76.1596 75.4185 76.1023 75.418L76.1021 75.4188V76.2933Z" fill="#FBAE2C"/>
<path d="M75.8428 76.2867C75.9005 76.2886 75.9583 76.2902 76.0161 76.2915C76.0161 76.2907 76.0161 76.2894 76.0161 76.2894V75.417C75.958 75.4162 75.9003 75.4151 75.8428 75.4141V75.4157V76.2867Z" fill="#FBAE2C"/>
<path d="M75.5825 76.277C75.6403 76.2794 75.6981 76.2818 75.7558 76.2839C75.7558 76.2828 75.7558 76.2818 75.7558 76.2807V75.4118C75.6978 75.4105 75.64 75.4086 75.5828 75.4067C75.5825 75.4075 75.5825 75.4086 75.5825 75.4094V76.277Z" fill="#FBAE2C"/>
<path d="M75.3345 76.2649C75.3922 76.2681 75.45 76.2713 75.5078 76.2739C75.508 76.272 75.508 76.2702 75.508 76.2683L75.4961 75.4039C75.438 75.4018 75.3803 75.3994 75.3228 75.3965C75.3228 75.3984 75.3228 75.3999 75.3228 75.4015L75.3345 76.2649Z" fill="#FBAE2C"/>
<path d="M75.0708 76.2483C75.1283 76.2522 75.186 76.2562 75.2441 76.2597C75.2441 76.2578 75.2441 76.2557 75.2441 76.2533L75.2358 75.3927C75.1778 75.3897 75.12 75.3863 75.0628 75.3828C75.0625 75.3849 75.0625 75.3868 75.0625 75.3887L75.0708 76.2483Z" fill="#FBAE2C"/>
<path d="M74.8027 76.226C74.86 76.231 74.9177 76.2358 74.9758 76.2404C74.9758 76.2382 74.976 76.2358 74.976 76.2334V75.3765C74.9177 75.3728 74.86 75.3685 74.803 75.3643C74.8027 75.3664 74.8027 75.3685 74.8027 75.3707V76.226Z" fill="#FBAE2C"/>
<path d="M74.543 76.2016C74.6002 76.2074 74.658 76.2133 74.716 76.2186C74.7163 76.2159 74.7163 76.213 74.7163 76.2103V75.3577C74.658 75.3532 74.6005 75.3481 74.5432 75.3428C74.5432 75.3454 74.543 75.3478 74.543 75.3505V76.2016Z" fill="#FBAE2C"/>
<path d="M74.272 76.1704C74.3289 76.1776 74.3864 76.1843 74.4445 76.1906C74.445 76.1877 74.445 76.1848 74.445 76.1819L74.4554 75.3342C74.3971 75.3286 74.3396 75.3225 74.2826 75.3164C74.2824 75.3191 74.2824 75.3217 74.2824 75.3244L74.272 76.1704Z" fill="#FBAE2C"/>
<path d="M74.0225 76.1375C74.0794 76.1455 74.1369 76.1535 74.195 76.1609C74.1955 76.1572 74.1958 76.1532 74.1958 76.1495V75.3067C74.1375 75.3 74.08 75.2931 74.0233 75.2856C74.0227 75.2894 74.0225 75.2928 74.0225 75.2966V76.1375Z" fill="#FBAE2C"/>
<path d="M73.7627 76.0971C73.8197 76.1064 73.8769 76.1158 73.9352 76.1243C73.9357 76.12 73.9363 76.1158 73.9363 76.1112V75.274C73.8777 75.2663 73.8202 75.258 73.7638 75.2495C73.7632 75.2538 73.7627 75.2578 73.7627 75.262V76.0971Z" fill="#FBAE2C"/>
<path d="M73.5029 76.0508C73.5594 76.0617 73.6169 76.0724 73.6749 76.0825C73.6757 76.0774 73.6762 76.0724 73.6762 76.0673V75.2365C73.6177 75.2274 73.5604 75.2179 73.504 75.208C73.5032 75.2128 73.5029 75.2176 73.5029 75.2226V76.0508Z" fill="#FBAE2C"/>
<path d="M73.2432 75.9962C73.2993 76.009 73.3566 76.0209 73.4149 76.0329C73.4159 76.0271 73.4165 76.0212 73.4165 76.0153V75.1917C73.3579 75.181 73.3007 75.1699 73.245 75.1587C73.244 75.164 73.2432 75.1696 73.2432 75.1755V75.9962Z" fill="#FBAE2C"/>
<path d="M72.9834 75.9332C73.039 75.9481 73.096 75.9622 73.1543 75.9761C73.1559 75.9694 73.1567 75.9628 73.1567 75.9556V75.1404C73.0979 75.1279 73.0409 75.1149 72.9855 75.1016C72.9842 75.108 72.9834 75.1146 72.9834 75.1213V75.9332Z" fill="#FBAE2C"/>
<path d="M72.7236 75.8584C72.7787 75.8757 72.8354 75.8928 72.8937 75.909C72.8959 75.9013 72.8969 75.8933 72.8969 75.885V75.08C72.8381 75.0648 72.7814 75.0494 72.7268 75.0337C72.7247 75.0411 72.7236 75.0489 72.7236 75.0571V75.8584Z" fill="#FBAE2C"/>
<path d="M72.4629 75.7667C72.5167 75.7878 72.5731 75.8083 72.6311 75.828C72.6343 75.8189 72.6362 75.8093 72.6362 75.7992V75.0062C72.5771 74.9875 72.5207 74.9687 72.4677 74.9492C72.4645 74.9583 72.4629 74.9679 72.4629 74.978V75.7667Z" fill="#FBAE2C"/>
<path d="M72.2031 75.6512C72.2553 75.6778 72.3107 75.7037 72.369 75.7287C72.3738 75.7178 72.3764 75.7058 72.3764 75.6933V74.9146C72.3168 74.8904 72.2617 74.8656 72.2116 74.8403C72.206 74.8518 72.2031 74.8643 72.2031 74.8776V75.6512Z" fill="#FBAE2C"/>
<path d="M71.9432 75.4913C71.9914 75.5278 72.0449 75.5632 72.1037 75.5972C72.1117 75.5839 72.1165 75.5685 72.1165 75.552V74.7882C72.055 74.7515 72.0037 74.7134 71.9635 74.6748C71.9507 74.6897 71.9432 74.7094 71.9432 74.7305V74.6541C71.8863 74.5931 71.8564 74.53 71.8564 74.4653V75.4186C71.8769 75.4378 71.899 75.4564 71.9222 75.4751C71.9352 75.4599 71.9432 75.4402 71.9432 75.4186V75.4913Z" fill="#FBAE2C"/>
<path d="M80.4858 74.7563V75.5775C80.4858 75.5983 80.493 75.6175 80.505 75.6324C80.5955 75.5658 80.6602 75.4945 80.6954 75.4186V74.4653C80.6954 74.5668 80.6219 74.6645 80.4858 74.7563Z" fill="#FBAE2C"/>
<ellipse cx="76.2759" cy="74.4652" rx="4.41944" ry="0.953215" transform="rotate(180 76.2759 74.4652)" fill="#FEDB35"/>
<path d="M72.7863 74.3542C72.766 74.3627 72.7479 74.3709 72.732 74.3787C72.7479 74.3864 72.766 74.3946 72.7863 74.4032C72.9569 74.4748 73.2202 74.5453 73.5655 74.6068C74.2515 74.7287 75.2101 74.8057 76.2763 74.8057C77.3422 74.8057 78.3008 74.7287 78.9868 74.6068C79.3321 74.5453 79.5954 74.4748 79.766 74.4032C79.7862 74.3946 79.8043 74.3864 79.8206 74.3787C79.8043 74.3709 79.7862 74.3627 79.766 74.3542C79.5954 74.2823 79.3321 74.2117 78.9868 74.1505C78.3008 74.0286 77.3422 73.9517 76.2763 73.9517C75.2101 73.9517 74.2515 74.0286 73.5655 74.1505C73.2202 74.2117 72.9569 74.2823 72.7863 74.3542Z" fill="#F9A52A"/>
<path d="M72.6226 74.3097C72.6226 74.3097 72.6228 74.31 72.6234 74.3108M79.9297 74.3097C79.9297 74.3097 79.9295 74.31 79.9289 74.3108M79.9297 74.4473C79.9297 74.4473 79.9295 74.4471 79.9289 74.4465M72.6234 74.4465C72.6228 74.4471 72.6226 74.4473 72.6226 74.4473M72.7863 74.3542C72.766 74.3627 72.7479 74.3709 72.732 74.3787C72.7479 74.3864 72.766 74.3946 72.7863 74.4032C72.9569 74.4748 73.2202 74.5453 73.5655 74.6068C74.2515 74.7287 75.2101 74.8057 76.2763 74.8057C77.3422 74.8057 78.3008 74.7287 78.9868 74.6068C79.3321 74.5453 79.5954 74.4748 79.766 74.4032C79.7862 74.3946 79.8043 74.3864 79.8206 74.3787C79.8043 74.3709 79.7862 74.3627 79.766 74.3542C79.5954 74.2823 79.3321 74.2117 78.9868 74.1505C78.3008 74.0286 77.3422 73.9517 76.2763 73.9517C75.2101 73.9517 74.2515 74.0286 73.5655 74.1505C73.2202 74.2117 72.9569 74.2823 72.7863 74.3542Z" stroke="#FBAE2C" stroke-width="0.532418"/>
<path d="M76.8402 74.1716C74.3994 74.1716 72.4209 73.7448 72.4209 73.2183V74.1716C73.7208 75.3847 80.7397 75.2979 81.2598 74.1716V73.2183C81.2598 73.7448 79.2811 74.1716 76.8402 74.1716Z" fill="#FEDB35"/>
<path d="M80.8357 74.5212C80.8959 74.4927 80.9507 74.4631 81 74.4325V73.5889C81 73.574 80.9962 73.5599 80.9893 73.5474C80.9411 73.5758 80.8868 73.6035 80.8267 73.6304V74.4823C80.8267 74.4961 80.8299 74.5094 80.8357 74.5212Z" fill="#FBAE2C"/>
<path d="M80.5717 74.628C80.6308 74.6075 80.687 74.5862 80.7397 74.5641V73.7011C80.7397 73.6902 80.7378 73.6795 80.7341 73.6699C80.6817 73.6909 80.6258 73.7115 80.5664 73.7314V74.5985C80.5664 74.6088 80.5683 74.619 80.5717 74.628Z" fill="#FBAE2C"/>
<path d="M80.3098 74.709C80.3687 74.6927 80.4254 74.676 80.4799 74.6587V73.7858C80.4799 73.777 80.4786 73.7687 80.4762 73.7607C80.4222 73.7775 80.3655 73.794 80.3066 73.8103V74.6853C80.3066 74.6935 80.3077 74.7015 80.3098 74.709Z" fill="#FBAE2C"/>
<path d="M80.0488 74.7745C80.1073 74.7612 80.1643 74.7473 80.2197 74.7332V73.8547C80.2197 73.8476 80.2189 73.8406 80.2173 73.834C80.1622 73.8481 80.1052 73.8617 80.0464 73.875V74.7548C80.0464 74.7615 80.0472 74.7681 80.0488 74.7745Z" fill="#FBAE2C"/>
<path d="M79.7877 74.8279C79.8463 74.8167 79.9035 74.8053 79.9594 74.7933V73.9116C79.9594 73.9058 79.9586 73.8996 79.9576 73.894C79.9019 73.906 79.8447 73.9175 79.7861 73.9289V74.8114C79.7861 74.817 79.7867 74.8226 79.7877 74.8279Z" fill="#FBAE2C"/>
<path d="M79.5274 74.8735C79.586 74.8642 79.6435 74.8546 79.6997 74.8445V73.961C79.6997 73.9559 79.6994 73.9509 79.6983 73.9458C79.6422 73.9562 79.5849 73.966 79.5264 73.9756V74.8594C79.5264 74.8642 79.5269 74.869 79.5274 74.8735Z" fill="#FBAE2C"/>
<path d="M79.2674 74.9116C79.3257 74.9039 79.3832 74.8957 79.4399 74.8871V74.0028C79.4399 73.9983 79.4394 73.994 79.4388 73.9897C79.3824 73.9985 79.3249 74.0071 79.2666 74.0153V74.8999C79.2666 74.9039 79.2669 74.9079 79.2674 74.9116Z" fill="#FBAE2C"/>
<path d="M79.0074 74.9439C79.0657 74.9372 79.1234 74.9303 79.1801 74.9231V74.0385C79.1801 74.0348 79.1799 74.0311 79.1793 74.0273C79.1226 74.0348 79.0651 74.0423 79.0068 74.0494V74.9338C79.0068 74.9372 79.0071 74.9407 79.0074 74.9439Z" fill="#FBAE2C"/>
<path d="M78.7473 74.9718C78.8056 74.9662 78.8631 74.9604 78.9204 74.9543V74.0699C78.9204 74.0664 78.9201 74.0633 78.9198 74.0601C78.8629 74.0667 78.8054 74.0731 78.7471 74.079V74.9633C78.7471 74.966 78.7471 74.9689 78.7473 74.9718Z" fill="#FBAE2C"/>
<path d="M78.4866 74.9946C78.5446 74.9898 78.6024 74.985 78.6596 74.98V74.0961C78.6596 74.0932 78.6596 74.0905 78.6594 74.0879C78.6021 74.0935 78.5446 74.0988 78.4863 74.1039V74.9874C78.4863 74.9898 78.4863 74.9922 78.4866 74.9946Z" fill="#FBAE2C"/>
<path d="M78.2268 75.0128C78.2849 75.009 78.3426 75.005 78.3999 75.0008V74.1178C78.3999 74.1154 78.3999 74.1132 78.3996 74.1108C78.3426 74.1156 78.2849 74.1199 78.2266 74.1241V75.0069C78.2266 75.009 78.2268 75.0109 78.2268 75.0128Z" fill="#FBAE2C"/>
<path d="M77.9668 75.0272C78.0248 75.0246 78.0826 75.0214 78.1401 75.0179V74.1498C78.1401 74.1432 78.1393 74.1365 78.138 74.1304C78.0815 74.1341 78.0246 74.1376 77.9673 74.1408C77.9668 74.1437 77.9668 74.1469 77.9668 74.1498V75.023C77.9668 75.0243 77.9668 75.0259 77.9668 75.0272Z" fill="#FBAE2C"/>
<path d="M77.7073 75.0376C77.7651 75.0355 77.8228 75.0334 77.8803 75.0307V74.1493C77.8803 74.148 77.8803 74.1464 77.8803 74.145C77.8231 74.148 77.7653 74.1506 77.707 74.1533V75.0344C77.707 75.0355 77.707 75.0366 77.7073 75.0376Z" fill="#FBAE2C"/>
<path d="M77.4468 75.0453C77.5045 75.044 77.5626 75.0426 77.6201 75.0408V74.1604C77.6201 74.1594 77.6201 74.1583 77.6201 74.1572C77.5626 74.1594 77.5048 74.1615 77.4468 74.1631V75.0432C77.4468 75.044 77.4468 75.0445 77.4468 75.0453Z" fill="#FBAE2C"/>
<path d="M77.187 75.0486C77.245 75.0481 77.3028 75.0475 77.3603 75.0465V74.1672C77.3603 74.1664 77.3603 74.1658 77.3603 74.165C77.3028 74.1666 77.245 74.1677 77.187 74.1688V75.0478V75.0486Z" fill="#FBAE2C"/>
<path d="M76.9268 75.0494C76.9845 75.0497 77.0423 75.0497 77.1001 75.0494V74.1712V74.1704C77.0426 74.1709 76.9848 74.1715 76.9268 74.1717V75.0494Z" fill="#FBAE2C"/>
<path d="M76.6665 75.0462C76.7243 75.0473 76.782 75.0481 76.8398 75.0486V75.0475V74.1717C76.7818 74.1717 76.724 74.1714 76.6665 74.1709V74.1717V75.0462Z" fill="#FBAE2C"/>
<path d="M76.4067 75.0401C76.4642 75.042 76.522 75.0436 76.58 75.0446C76.58 75.0441 76.58 75.0433 76.58 75.0428V74.1704C76.5217 74.1696 76.464 74.1685 76.4067 74.1675C76.4067 74.168 76.4067 74.1685 76.4067 74.1691V75.0401Z" fill="#FBAE2C"/>
<path d="M76.147 75.0309C76.2045 75.0333 76.2622 75.0357 76.3203 75.0378C76.3203 75.0367 76.3203 75.0357 76.3203 75.0343V74.1657C76.2622 74.1644 76.2045 74.1625 76.147 74.1606C76.147 74.1614 76.147 74.1625 76.147 74.1633V75.0309Z" fill="#FBAE2C"/>
<path d="M75.8992 75.0178C75.9567 75.021 76.0145 75.0239 76.0725 75.0268C76.0725 75.025 76.0728 75.0231 76.0725 75.0212L76.0608 74.1569C76.0025 74.1547 75.9447 74.1521 75.8875 74.1494C75.8872 74.1513 75.8872 74.1529 75.8872 74.1545L75.8992 75.0178Z" fill="#FBAE2C"/>
<path d="M75.6347 75.0012C75.6922 75.0052 75.7497 75.0092 75.8078 75.0126C75.808 75.0105 75.808 75.0084 75.808 75.0062L75.7998 74.1456C75.7417 74.1427 75.684 74.1392 75.6265 74.1357C75.6265 74.1376 75.6265 74.1397 75.6265 74.1416L75.6347 75.0012Z" fill="#FBAE2C"/>
<path d="M75.3667 74.9799C75.4242 74.9849 75.482 74.9897 75.5397 74.9943C75.54 74.9921 75.54 74.9897 75.54 74.9873V74.1304C75.482 74.1267 75.4242 74.1224 75.367 74.1182C75.367 74.1203 75.3667 74.1224 75.3667 74.1245V74.9799Z" fill="#FBAE2C"/>
<path d="M75.1069 74.9545C75.1642 74.9603 75.2217 74.9659 75.2797 74.9715C75.28 74.9689 75.2802 74.9659 75.2802 74.9633V74.1106C75.2219 74.1058 75.1642 74.101 75.1072 74.0957C75.1069 74.0984 75.1069 74.1008 75.1069 74.1034V74.9545Z" fill="#FBAE2C"/>
<path d="M74.8369 74.9243C74.8942 74.9315 74.9517 74.9382 75.0097 74.9445C75.01 74.9416 75.0102 74.9387 75.0102 74.9358L75.0206 74.0882C74.9623 74.0826 74.9048 74.0764 74.8478 74.0703C74.8476 74.073 74.8473 74.0756 74.8473 74.0783L74.8369 74.9243Z" fill="#FBAE2C"/>
<path d="M74.5874 74.8907C74.6444 74.8989 74.7019 74.9066 74.7599 74.9144C74.7604 74.9106 74.7607 74.9066 74.7607 74.9029V74.0601C74.7024 74.0534 74.6446 74.0465 74.5879 74.0391C74.5877 74.0428 74.5874 74.0463 74.5874 74.05V74.8907Z" fill="#FBAE2C"/>
<path d="M74.3271 74.8505C74.3839 74.8599 74.4414 74.8689 74.4994 74.8777C74.5002 74.8734 74.5005 74.8692 74.5005 74.8646V74.0274C74.4422 74.0197 74.3847 74.0114 74.328 74.0029C74.3274 74.0072 74.3271 74.0112 74.3271 74.0154V74.8505Z" fill="#FBAE2C"/>
<path d="M74.0669 74.8042C74.1233 74.8152 74.1806 74.8258 74.2389 74.8359C74.2397 74.8309 74.2402 74.8258 74.2402 74.8207V73.9899C74.1816 73.9806 74.1241 73.9713 74.068 73.9614C74.0672 73.9662 74.0669 73.971 74.0669 73.9758V74.8042Z" fill="#FBAE2C"/>
<path d="M73.8071 74.7501C73.8633 74.7629 73.9205 74.7749 73.9786 74.7868C73.9799 74.781 73.9804 74.7751 73.9804 74.769V73.9456C73.9219 73.935 73.8646 73.9238 73.8087 73.9126C73.8077 73.9179 73.8071 73.9235 73.8071 73.9294V74.7501Z" fill="#FBAE2C"/>
<path d="M73.5469 74.6866C73.6028 74.7013 73.6598 74.7156 73.7178 74.7295C73.7194 74.7228 73.7202 74.7159 73.7202 74.709V73.8938C73.6616 73.8813 73.6046 73.8683 73.5493 73.855C73.5477 73.8614 73.5469 73.868 73.5469 73.8747V74.6866Z" fill="#FBAE2C"/>
<path d="M73.2871 74.6116C73.3422 74.6289 73.3986 74.6459 73.457 74.6622C73.4593 74.6545 73.4604 74.6465 73.4604 74.6382V73.8329C73.4016 73.818 73.3449 73.8026 73.2903 73.7866C73.2882 73.7941 73.2871 73.8021 73.2871 73.8103V74.6116Z" fill="#FBAE2C"/>
<path d="M73.0273 74.5202C73.0814 74.5412 73.1376 74.5617 73.1959 74.5814C73.1991 74.5723 73.2006 74.5628 73.2006 74.5526V73.7596C73.1416 73.741 73.0854 73.7221 73.0324 73.7026C73.0292 73.7117 73.0273 73.7213 73.0273 73.7314V74.5202Z" fill="#FBAE2C"/>
<path d="M72.7676 74.4046C72.8198 74.4312 72.8751 74.4571 72.9334 74.4818C72.9382 74.4712 72.9409 74.4592 72.9409 74.4467V73.6678C72.881 73.6438 72.8261 73.619 72.7758 73.5938C72.7705 73.6052 72.7676 73.6177 72.7676 73.631V74.4046Z" fill="#FBAE2C"/>
<path d="M72.5074 74.2442C72.5556 74.2807 72.6094 74.3161 72.6679 74.3502C72.6762 74.3369 72.6807 74.3214 72.6807 74.3049V73.5412C72.6192 73.5044 72.5681 73.4664 72.5279 73.4278C72.5151 73.4427 72.5074 73.4621 72.5074 73.4834V73.407C72.4507 73.346 72.4209 73.283 72.4209 73.2183V74.1716C72.4414 74.1907 72.4632 74.2094 72.4866 74.228C72.4997 74.2128 72.5074 74.1931 72.5074 74.1716V74.2442Z" fill="#FBAE2C"/>
<path d="M81.0503 73.5092V74.3305C81.0503 74.3513 81.0575 74.3704 81.0697 74.3853C81.1602 74.3188 81.2249 74.2474 81.2601 74.1716V73.2183C81.2601 73.3197 81.1866 73.4174 81.0503 73.5092Z" fill="#FBAE2C"/>
<ellipse cx="76.8398" cy="73.2187" rx="4.41944" ry="0.953215" transform="rotate(180 76.8398 73.2187)" fill="#FEDB35"/>
<path d="M73.35 73.1074C73.33 73.1159 73.3119 73.1239 73.2957 73.1316C73.3119 73.1396 73.33 73.1476 73.35 73.1561C73.5209 73.228 73.7839 73.2985 74.1292 73.3597C74.8155 73.4817 75.7738 73.5589 76.84 73.5589C77.9061 73.5589 78.8648 73.4817 79.5508 73.3597C79.8961 73.2985 80.1593 73.228 80.33 73.1561C80.3502 73.1476 80.3683 73.1396 80.3843 73.1316C80.3683 73.1239 80.3502 73.1159 80.33 73.1074C80.1593 73.0355 79.8961 72.9649 79.5508 72.9037C78.8648 72.7815 77.9061 72.7046 76.84 72.7046C75.7738 72.7046 74.8155 72.7815 74.1292 72.9037C73.7839 72.9649 73.5209 73.0355 73.35 73.1074Z" fill="#F9A52A"/>
<path d="M73.1865 73.0629C73.1865 73.0629 73.1868 73.0632 73.1873 73.0637M80.4937 73.0629C80.4937 73.0629 80.4932 73.0632 80.4929 73.0637M80.4937 73.2005C80.4937 73.2005 80.4934 73.2003 80.4929 73.1995M73.1873 73.1995C73.1868 73.2003 73.1865 73.2005 73.1865 73.2005M73.35 73.1074C73.33 73.1159 73.3119 73.1239 73.2957 73.1316C73.3119 73.1396 73.33 73.1476 73.35 73.1561C73.5209 73.228 73.7839 73.2985 74.1292 73.3597C74.8155 73.4817 75.7738 73.5589 76.84 73.5589C77.9061 73.5589 78.8648 73.4817 79.5508 73.3597C79.8961 73.2985 80.1593 73.228 80.33 73.1561C80.3502 73.1476 80.3683 73.1396 80.3843 73.1316C80.3683 73.1239 80.3502 73.1159 80.33 73.1074C80.1593 73.0355 79.8961 72.9649 79.5508 72.9037C78.8648 72.7815 77.9061 72.7046 76.84 72.7046C75.7738 72.7046 74.8155 72.7815 74.1292 72.9037C73.7839 72.9649 73.5209 73.0355 73.35 73.1074Z" stroke="#FBAE2C" stroke-width="0.532418"/>
<path d="M77.2165 73.0431C74.7756 73.0431 72.7969 72.6164 72.7969 72.0898V73.0431C74.0968 74.2563 81.1159 74.1697 81.6358 73.0431V72.0898C81.6358 72.6164 79.6571 73.0431 77.2165 73.0431Z" fill="#FEDB35"/>
<path d="M81.2117 73.3935C81.2718 73.365 81.3267 73.3354 81.3759 73.3048V72.4615C81.3759 72.4463 81.3719 72.4322 81.3653 72.4199C81.3168 72.4481 81.2625 72.4758 81.2026 72.503V73.3546C81.2026 73.3687 81.2058 73.3817 81.2117 73.3935Z" fill="#FBAE2C"/>
<path d="M80.947 73.5001C81.0063 73.4793 81.0625 73.458 81.1152 73.4359V72.5729C81.1152 72.562 81.1131 72.5516 81.1096 72.542C81.0572 72.5628 81.0013 72.5833 80.9419 72.6035V73.4705C80.9419 73.4809 80.9438 73.4908 80.947 73.5001Z" fill="#FBAE2C"/>
<path d="M80.6856 73.5806C80.7444 73.5643 80.8011 73.5475 80.8557 73.53V72.6571C80.8557 72.6486 80.8544 72.64 80.852 72.6323C80.7977 72.6491 80.7412 72.6656 80.6821 72.6816V73.5566C80.6821 73.5649 80.6835 73.5728 80.6856 73.5806Z" fill="#FBAE2C"/>
<path d="M80.4245 73.6463C80.4833 73.633 80.5403 73.6192 80.5957 73.6051V72.7266C80.5957 72.7194 80.5949 72.7122 80.593 72.7056C80.5379 72.7197 80.4812 72.7335 80.4224 72.7468V73.6264C80.4224 73.6333 80.4232 73.64 80.4245 73.6463Z" fill="#FBAE2C"/>
<path d="M80.1642 73.6995C80.2228 73.6886 80.28 73.6771 80.3359 73.6651V72.7835C80.3359 72.7773 80.3354 72.7715 80.3343 72.7656C80.2784 72.7776 80.2212 72.7893 80.1626 72.8005V73.683C80.1626 73.6886 80.1631 73.6942 80.1642 73.6995Z" fill="#FBAE2C"/>
<path d="M79.9039 73.7451C79.9625 73.7358 80.0197 73.726 80.0761 73.7158V72.8326C80.0761 72.8272 80.0756 72.8222 80.0748 72.8174C80.0186 72.8275 79.9614 72.8376 79.9028 72.8472V73.731C79.9028 73.7358 79.9031 73.7406 79.9039 73.7451Z" fill="#FBAE2C"/>
<path d="M79.6434 73.7835C79.7017 73.7755 79.7594 73.7672 79.8159 73.7587V72.8744C79.8159 72.8701 79.8156 72.8656 79.8151 72.8613C79.7586 72.8701 79.7011 72.8789 79.6426 72.8872V73.7715C79.6426 73.7755 79.6428 73.7795 79.6434 73.7835Z" fill="#FBAE2C"/>
<path d="M79.3829 73.8158C79.4412 73.8091 79.4987 73.8022 79.5556 73.7947V72.9104C79.5556 72.9064 79.5554 72.9027 79.5548 72.8989C79.4981 72.9067 79.4406 72.9141 79.3823 72.921V73.8056C79.3823 73.8091 79.3823 73.8123 79.3829 73.8158Z" fill="#FBAE2C"/>
<path d="M79.1231 73.8436C79.1811 73.838 79.2389 73.8322 79.2959 73.8261V72.9417C79.2959 72.9385 79.2959 72.9353 79.2953 72.9321C79.2386 72.9388 79.1809 72.9449 79.1226 72.951V73.8351C79.1226 73.838 79.1228 73.841 79.1231 73.8436Z" fill="#FBAE2C"/>
<path d="M78.8626 73.8659C78.9206 73.8614 78.9784 73.8566 79.0356 73.8513V72.9675C79.0356 72.9648 79.0353 72.9621 79.0351 72.9595C78.9781 72.9648 78.9203 72.9701 78.8623 72.9752V73.859C78.8623 73.8614 78.8623 73.8635 78.8626 73.8659Z" fill="#FBAE2C"/>
<path d="M78.6028 73.8846C78.6608 73.8808 78.7186 73.8771 78.7758 73.8728V72.9896C78.7758 72.9874 78.7758 72.985 78.7756 72.9829C78.7183 72.9874 78.6608 72.992 78.6025 72.9959V73.879C78.6025 73.8808 78.6025 73.8827 78.6028 73.8846Z" fill="#FBAE2C"/>
<path d="M78.343 73.8991C78.4011 73.8962 78.4588 73.893 78.5163 73.8898V73.0217C78.5163 73.0147 78.5155 73.0083 78.5139 73.002C78.4575 73.0057 78.4008 73.0091 78.3433 73.0126C78.343 73.0155 78.3428 73.0185 78.3428 73.0217V73.8946C78.3428 73.8962 78.343 73.8975 78.343 73.8991Z" fill="#FBAE2C"/>
<path d="M78.083 73.9092C78.141 73.9073 78.1988 73.9049 78.2563 73.9025V73.0211C78.2563 73.0195 78.2563 73.0182 78.2563 73.0166C78.1988 73.0198 78.141 73.0225 78.083 73.0249V73.906C78.083 73.9071 78.083 73.9081 78.083 73.9092Z" fill="#FBAE2C"/>
<path d="M77.8223 73.9171C77.8803 73.916 77.9381 73.9144 77.9956 73.9128V73.0322C77.9956 73.0312 77.9956 73.0301 77.9956 73.0293C77.9383 73.0314 77.8806 73.0333 77.8223 73.0352V73.9152C77.8223 73.9158 77.8223 73.9166 77.8223 73.9171Z" fill="#FBAE2C"/>
<path d="M77.5625 73.9211C77.6203 73.9206 77.678 73.9198 77.7358 73.9187V73.0395C77.7358 73.0389 77.7358 73.0381 77.7358 73.0376C77.6783 73.0389 77.6205 73.0403 77.5625 73.0411V73.9201V73.9211Z" fill="#FBAE2C"/>
<path d="M77.3027 73.921C77.3605 73.9213 77.4185 73.9213 77.476 73.9213V73.0428V73.042C77.4185 73.0428 77.3608 73.0433 77.3027 73.0433V73.921Z" fill="#FBAE2C"/>
<path d="M77.043 73.9178C77.1007 73.9188 77.1585 73.9196 77.2163 73.9202V73.9191V73.0433C77.1582 73.0433 77.1005 73.043 77.043 73.0425V73.0433V73.9178Z" fill="#FBAE2C"/>
<path d="M76.7832 73.912C76.841 73.9136 76.8987 73.9152 76.9565 73.9165C76.9565 73.9157 76.9565 73.9152 76.9565 73.9144V73.042C76.8985 73.0412 76.8407 73.0404 76.7832 73.0391V73.0407V73.912Z" fill="#FBAE2C"/>
<path d="M76.5229 73.9025C76.5805 73.9051 76.6382 73.9073 76.696 73.9094C76.6963 73.9083 76.6963 73.9073 76.6963 73.9062V73.0375C76.6379 73.036 76.5802 73.0344 76.5229 73.0322C76.5229 73.0333 76.5229 73.0341 76.5229 73.0352V73.9025Z" fill="#FBAE2C"/>
<path d="M76.2747 73.8891C76.3322 73.8926 76.3899 73.8955 76.448 73.8982C76.448 73.8963 76.448 73.8947 76.448 73.8928L76.436 73.0284C76.378 73.0261 76.3202 73.0237 76.2627 73.021C76.2627 73.0226 76.2627 73.0242 76.2627 73.0261L76.2747 73.8891Z" fill="#FBAE2C"/>
<path d="M76.011 73.8725C76.0685 73.8768 76.1263 73.8805 76.1843 73.8842C76.1843 73.8821 76.1843 73.88 76.1843 73.8778L76.1764 73.0169C76.1181 73.014 76.0603 73.0108 76.003 73.0073C76.003 73.0092 76.0028 73.0111 76.003 73.0132L76.011 73.8725Z" fill="#FBAE2C"/>
<path d="M75.7427 73.8517C75.7999 73.8568 75.8577 73.8616 75.9157 73.8661C75.916 73.8637 75.916 73.8613 75.916 73.8592V73.0023C75.8577 72.9983 75.8002 72.9943 75.7429 72.9897C75.7427 72.9919 75.7427 72.994 75.7427 72.9961V73.8517Z" fill="#FBAE2C"/>
<path d="M75.4829 73.8261C75.5401 73.8322 75.5979 73.8378 75.6559 73.8431C75.6562 73.8405 75.6562 73.8378 75.6562 73.8349V72.9825C75.5982 72.9777 75.5404 72.9726 75.4834 72.9673C75.4832 72.9699 75.4829 72.9726 75.4829 72.975V73.8261Z" fill="#FBAE2C"/>
<path d="M75.2129 73.7962C75.2699 73.8031 75.3276 73.8097 75.3857 73.8164C75.3859 73.8135 75.3859 73.8105 75.3862 73.8076L75.3963 72.9597C75.3383 72.9541 75.2805 72.9483 75.2238 72.9419C75.2235 72.9446 75.2233 72.9475 75.2233 72.9501L75.2129 73.7962Z" fill="#FBAE2C"/>
<path d="M74.9624 73.7622C75.0194 73.7705 75.0769 73.7782 75.1352 73.7857C75.1354 73.7819 75.1357 73.7782 75.1357 73.7742V72.9317C75.0774 72.9248 75.0199 72.9178 74.9632 72.9106C74.9627 72.9141 74.9624 72.9178 74.9624 72.9213V73.7622Z" fill="#FBAE2C"/>
<path d="M74.7036 73.7219C74.7603 73.7314 74.8178 73.7405 74.8759 73.7493C74.8764 73.745 74.8769 73.7405 74.8769 73.736V72.899C74.8183 72.891 74.7608 72.883 74.7044 72.8745C74.7039 72.8785 74.7036 72.8828 74.7036 72.887V73.7219Z" fill="#FBAE2C"/>
<path d="M74.4429 73.6753C74.4993 73.6863 74.5568 73.6966 74.6148 73.7067C74.6156 73.702 74.6162 73.6969 74.6162 73.6916V72.8607C74.5579 72.8517 74.5004 72.8421 74.4442 72.8325C74.4434 72.837 74.4429 72.8418 74.4429 72.8469V73.6753Z" fill="#FBAE2C"/>
<path d="M74.1831 73.6219C74.239 73.6345 74.2962 73.6467 74.3545 73.6584C74.3556 73.6528 74.3564 73.647 74.3564 73.6408V72.8175C74.2978 72.8065 74.2406 72.7956 74.1847 72.7842C74.1836 72.7898 74.1831 72.7954 74.1831 72.8009V73.6219Z" fill="#FBAE2C"/>
<path d="M73.9233 73.5582C73.979 73.5728 74.0359 73.5872 74.0942 73.6008C74.0958 73.5944 74.0966 73.5875 74.0966 73.5803V72.7654C74.0381 72.7526 73.9808 72.7399 73.9257 72.7266C73.9241 72.7329 73.9233 72.7393 73.9233 72.7463V73.5582Z" fill="#FBAE2C"/>
<path d="M73.6636 73.4829C73.7184 73.5005 73.7751 73.5173 73.8334 73.5335C73.8355 73.526 73.8369 73.5178 73.8369 73.5095V72.7045C73.7778 72.6894 73.7211 72.6739 73.6668 72.6582C73.6646 72.6657 73.6636 72.6734 73.6636 72.6816V73.4829Z" fill="#FBAE2C"/>
<path d="M73.4028 73.3915C73.4569 73.4125 73.513 73.433 73.5713 73.4527C73.5745 73.4439 73.5761 73.4341 73.5761 73.4242V72.6309C73.517 72.6126 73.4609 72.5937 73.4076 72.5742C73.4044 72.5833 73.4028 72.5929 73.4028 72.603V73.3915Z" fill="#FBAE2C"/>
<path d="M73.1431 73.2762C73.1952 73.3028 73.2506 73.3284 73.3092 73.3534C73.3137 73.3428 73.3164 73.3308 73.3164 73.3183V72.5393C73.2567 72.5154 73.2016 72.4906 73.1516 72.4653C73.1463 72.4765 73.1431 72.4893 73.1431 72.5026V73.2762Z" fill="#FBAE2C"/>
<path d="M72.8837 73.1158C72.9318 73.1526 72.9854 73.1877 73.0442 73.2218C73.0522 73.2087 73.057 73.193 73.057 73.1765V72.4128C72.9955 72.376 72.9444 72.3382 72.9039 72.2994C72.8914 72.3145 72.8837 72.334 72.8837 72.3553V72.2789C72.8267 72.2176 72.7969 72.1545 72.7969 72.0898V73.0431C72.8174 73.0623 72.8395 73.0812 72.8626 73.0996C72.8757 73.0844 72.8837 73.0647 72.8837 73.0431V73.1158Z" fill="#FBAE2C"/>
<path d="M81.4263 72.3808V73.2023C81.4263 73.2231 81.4335 73.242 81.4457 73.2569C81.5362 73.1904 81.6006 73.1193 81.6358 73.0431V72.0898C81.6358 72.1915 81.5623 72.2892 81.4263 72.3808Z" fill="#FBAE2C"/>
<ellipse cx="77.2158" cy="72.0902" rx="4.41944" ry="0.953215" transform="rotate(180 77.2158 72.0902)" fill="#FEDB35"/>
<path d="M73.7262 71.9797C73.706 71.9882 73.6879 71.9964 73.6719 72.0041C73.6879 72.0119 73.706 72.0201 73.7262 72.0286C73.8969 72.1002 74.1601 72.1708 74.5054 72.2323C75.1914 72.3542 76.1501 72.4311 77.2162 72.4311C78.2824 72.4311 79.2407 72.3542 79.927 72.2323C80.272 72.1708 80.5353 72.1002 80.706 72.0286C80.7262 72.0201 80.7443 72.0119 80.7605 72.0041C80.7443 71.9964 80.7262 71.9882 80.706 71.9797C80.5353 71.908 80.272 71.8375 79.927 71.776C79.2407 71.6541 78.2824 71.5771 77.2162 71.5771C76.1501 71.5771 75.1914 71.6541 74.5054 71.776C74.1601 71.8375 73.8969 71.908 73.7262 71.9797Z" fill="#F9A52A"/>
<path d="M73.5625 71.9352C73.5625 71.9352 73.5628 71.9357 73.5633 71.9363M80.8697 71.9352C80.8697 71.9352 80.8694 71.9357 80.8689 71.9363M80.8697 72.0728C80.8697 72.0728 80.8694 72.0726 80.8689 72.072M73.5633 72.072C73.5628 72.0726 73.5625 72.0728 73.5625 72.0728M73.7262 71.9797C73.706 71.9882 73.6879 71.9964 73.6719 72.0041C73.6879 72.0119 73.706 72.0201 73.7262 72.0286C73.8969 72.1002 74.1601 72.1708 74.5054 72.2323C75.1914 72.3542 76.1501 72.4311 77.2162 72.4311C78.2824 72.4311 79.2407 72.3542 79.927 72.2323C80.272 72.1708 80.5353 72.1002 80.706 72.0286C80.7262 72.0201 80.7443 72.0119 80.7605 72.0041C80.7443 71.9964 80.7262 71.9882 80.706 71.9797C80.5353 71.908 80.272 71.8375 79.927 71.776C79.2407 71.6541 78.2824 71.5771 77.2162 71.5771C76.1501 71.5771 75.1914 71.6541 74.5054 71.776C74.1601 71.8375 73.8969 71.908 73.7262 71.9797Z" stroke="#FBAE2C" stroke-width="0.532418"/>
<path d="M76.9551 76.4346C80.0487 76.4346 82.5567 75.4699 82.5567 74.2799V72.1255C82.5567 73.2814 80.0487 74.2184 76.9551 74.2184C73.8615 74.2184 71.3535 73.2814 71.3535 72.1255V74.2799C71.3535 75.4699 73.8615 76.4346 76.9551 76.4346Z" fill="#FFE29E"/>
<path d="M76.9544 76.4351V74.2189C76.7883 74.2189 76.624 74.2163 76.4619 74.2109V76.4269C76.624 76.4322 76.7883 76.4351 76.9544 76.4351Z" fill="#FFCE5B"/>
<path d="M76.2156 76.4159V74.2002C76.049 74.192 75.8847 74.1811 75.7231 74.1675V76.3821C75.8847 76.3962 76.049 76.4074 76.2156 76.4159Z" fill="#FFCE5B"/>
<path d="M75.4764 76.3589V74.1451C75.3089 74.128 75.1447 74.1081 74.9839 74.0854V76.2976C75.1447 76.3208 75.3089 76.3413 75.4764 76.3589Z" fill="#FFCE5B"/>
<path d="M74.7381 76.2589V74.048C74.5696 74.0209 74.4053 73.9905 74.2456 73.9575V76.166C74.4053 76.1998 74.5696 76.2309 74.7381 76.2589Z" fill="#FFCE5B"/>
<path d="M73.9995 76.1104V73.9035C73.8292 73.8638 73.6649 73.821 73.5073 73.7749V75.9778C73.6649 76.0252 73.8292 76.0696 73.9995 76.1104Z" fill="#FFCE5B"/>
<path d="M73.2606 75.8993V73.6985C73.0864 73.6413 72.9219 73.5803 72.7681 73.5156V75.7111C72.9219 75.7776 73.0864 75.8404 73.2606 75.8993Z" fill="#FFCE5B"/>
<path d="M72.5223 75.5974V73.4054C72.3388 73.3168 72.1738 73.2226 72.0298 73.1235V75.3072C72.1738 75.4092 72.3388 75.5064 72.5223 75.5974Z" fill="#FFCE5B"/>
<path d="M71.7837 75.1095V72.9313C71.5859 72.754 71.4512 72.5645 71.3903 72.3667H71.3535V74.2797C71.3535 74.5738 71.5066 74.8542 71.7837 75.1095Z" fill="#FFCE5B"/>
<path d="M77.6924 76.4156C77.5306 76.4238 77.3663 76.4294 77.2002 76.4321V74.2162C77.3663 74.2135 77.5306 74.2079 77.6924 74.2002V76.4156Z" fill="#FFCE5B"/>
<path d="M78.4319 76.3588C78.2706 76.3759 78.1064 76.39 77.9395 76.4014V74.1863C78.1064 74.1754 78.2706 74.1615 78.4319 74.145V76.3588Z" fill="#FFCE5B"/>
<path d="M79.1702 76.259C79.0097 76.2856 78.8454 76.3093 78.6777 76.3301V74.1171C78.8454 74.0968 79.0097 74.0737 79.1702 74.0479V76.259Z" fill="#FFCE5B"/>
<path d="M79.9095 76.1107C79.7505 76.1487 79.586 76.1836 79.417 76.2156V74.0058C79.586 73.9749 79.7505 73.9408 79.9095 73.9038V76.1107Z" fill="#FFCE5B"/>
<path d="M80.6478 75.9C80.491 75.9529 80.3267 76.0025 80.1553 76.0482V73.8435C80.3267 73.7988 80.491 73.7506 80.6478 73.6992V75.9Z" fill="#FFCE5B"/>
<path d="M81.3863 75.5982C81.2345 75.6738 81.07 75.7452 80.894 75.8122V73.6139C81.07 73.5489 81.2345 73.4795 81.3863 73.4062V75.5982Z" fill="#FFCE5B"/>
<path d="M82.1248 75.1105C81.9893 75.2351 81.824 75.3541 81.6323 75.4656V73.2771C81.824 73.1688 81.9893 73.0535 82.1248 72.9321V75.1105Z" fill="#FFCE5B"/>
<path d="M82.5559 72.3667V74.2797C82.5559 74.4706 82.4915 74.6553 82.3706 74.8313V72.6611C82.4382 72.5656 82.4883 72.4671 82.5192 72.3667H82.5559Z" fill="#FFCE5B"/>
<path d="M76.9547 76.4342C73.861 76.4342 71.3531 75.4697 71.3531 74.2798C71.351 74.362 71.3531 74.526 71.3962 74.7108C71.4747 74.8705 71.5959 75.022 71.7519 75.1641C72.0431 75.4287 72.4608 75.6643 72.9716 75.8608C73.9942 76.254 75.4024 76.496 76.9547 76.496C78.5072 76.496 79.9154 76.254 80.9379 75.8608C81.4488 75.6643 81.8665 75.4287 82.1577 75.1641C82.265 75.0664 82.3558 74.9642 82.4274 74.858C82.4724 74.7914 82.556 74.6134 82.556 74.3365C82.5435 74.517 82.4828 74.6442 82.4274 74.7417C81.8779 75.7096 79.6364 76.4342 76.9547 76.4342Z" fill="#FFC234"/>
<path d="M82.4952 72.5802C82.4164 72.7229 82.3016 72.8586 82.1571 72.9864C81.8661 73.2436 81.4484 73.4722 80.9376 73.6631C79.9153 74.0451 78.5074 74.2799 76.9551 74.2799C75.4028 74.2799 73.9948 74.0451 72.9726 73.6631C72.4617 73.4722 72.0441 73.2436 71.7528 72.9864C71.6085 72.8586 71.4938 72.7229 71.415 72.5802C71.3676 72.409 71.3546 72.2184 71.3535 72.1353C71.3535 72.1321 71.3535 72.1287 71.3535 72.1255C71.3535 72.1287 71.3535 72.1319 71.3535 72.1353C71.3548 72.2378 71.3756 72.3385 71.415 72.4369C71.8175 73.4451 74.1445 74.2184 76.9551 74.2184C79.7655 74.2184 82.0927 73.4451 82.4952 72.4369C82.5356 72.3353 82.5567 72.2314 82.5567 72.1255C82.5567 72.203 82.5567 72.4026 82.4952 72.5802Z" fill="white"/>
<path d="M82.556 72.1257C82.556 73.2815 80.048 74.2186 76.9541 74.2186C73.8605 74.2186 71.3525 73.2815 71.3525 72.1257C71.3525 70.9698 73.8605 70.0327 76.9541 70.0327C80.048 70.0327 82.556 70.9698 82.556 72.1257Z" fill="#FFCE5B"/>
<path d="M82.5522 72.2026C82.5546 72.177 82.556 72.1515 82.556 72.1257C82.556 70.9698 80.048 70.0327 76.9541 70.0327C73.8605 70.0327 71.3525 70.9698 71.3525 72.1257C71.3525 72.1496 71.3536 72.173 71.3557 72.1967C71.4638 71.06 73.9286 70.1509 76.9536 70.1509C79.9838 70.1509 82.4519 71.0629 82.5522 72.2026Z" fill="#FFF8EA"/>
<path d="M81.5096 72.126C81.5096 73.0777 79.4702 73.8495 76.9545 73.8495C74.4388 73.8495 72.3994 73.0777 72.3994 72.126C72.3994 71.1741 74.4388 70.4023 76.9545 70.4023C79.4702 70.4023 81.5096 71.1741 81.5096 72.126Z" fill="#FFCE5B"/>
<path d="M81.5086 72.0864C81.4684 72.9915 79.4446 73.721 76.954 73.721C74.4729 73.721 72.4553 72.9971 72.4 72.0968C72.3997 72.1064 72.3994 72.116 72.3994 72.1256C72.3994 73.0773 74.4388 73.849 76.9545 73.849C79.4702 73.849 81.5096 73.0773 81.5096 72.1256C81.5096 72.1123 81.5094 72.0992 81.5086 72.0864Z" fill="#FFC234"/>
<path d="M78.0634 72.0094C77.892 72.0158 77.7586 72.044 77.6628 72.0938C77.5667 72.1433 77.4778 72.2277 77.3952 72.3467C77.313 72.4656 77.2291 72.5759 77.1439 72.677C77.0585 72.7784 76.9587 72.8668 76.8445 72.9419C76.73 73.0172 76.5964 73.0766 76.4438 73.1203C76.2913 73.1639 76.1055 73.1897 75.8864 73.198C75.5198 73.2118 75.2158 73.1559 74.9743 73.03C74.7308 72.9046 74.5851 72.7303 74.5378 72.5074L73.8515 72.5333L73.8408 72.2516L74.5402 72.2253C74.5907 72.0072 74.7481 71.8315 75.0124 71.6987C75.2744 71.5645 75.6114 71.49 76.0235 71.4743L76.0461 72.073C75.8206 72.0815 75.6478 72.1116 75.5283 72.1632C75.4085 72.2151 75.3502 72.2846 75.3537 72.3722C75.3566 72.4499 75.4045 72.509 75.4972 72.5492C75.5877 72.5886 75.712 72.6051 75.8704 72.599C76.0309 72.5932 76.1579 72.5636 76.2513 72.5104C76.3429 72.4571 76.43 72.3741 76.5125 72.2612C76.5929 72.1481 76.6781 72.0416 76.7675 71.9412C76.8548 71.8398 76.956 71.7514 77.0702 71.6761C77.1847 71.601 77.3194 71.5403 77.474 71.4943C77.6287 71.4482 77.8153 71.421 78.0344 71.4128C78.4052 71.399 78.7103 71.4519 78.9494 71.5717C79.1884 71.6905 79.3317 71.8595 79.379 72.0786L80.0328 72.0541L80.0435 72.3357L79.3862 72.3605C79.346 72.6195 79.1919 72.8234 78.9238 72.972C78.6536 73.1192 78.294 73.2012 77.8451 73.2182L77.8225 72.6214C78.0698 72.6121 78.2575 72.5756 78.3853 72.5114C78.5109 72.4465 78.5719 72.3592 78.5676 72.2492C78.5647 72.1691 78.5189 72.1076 78.4305 72.0647C78.3398 72.0221 78.2176 72.0035 78.0634 72.0094Z" fill="white"/>
<path d="M81.4926 72.2762C81.504 72.2267 81.5096 72.1766 81.5096 72.126C81.5096 71.1741 79.4702 70.4023 76.9545 70.4023C74.4388 70.4023 72.3994 71.1741 72.3994 72.126C72.3994 72.1766 72.4053 72.2267 72.4165 72.2762C72.6177 71.5364 74.5727 70.9563 76.9545 70.9563C79.3363 70.9563 81.2913 71.5364 81.4926 72.2762Z" fill="#FFC234"/>
<path d="M76.9551 74.1067C80.0487 74.1067 82.5567 73.1422 82.5567 71.9523V69.7979C82.5567 70.9537 80.0487 71.8908 76.9551 71.8908C73.8615 71.8908 71.3535 70.9537 71.3535 69.7979V71.9523C71.3535 73.1422 73.8615 74.1067 76.9551 74.1067Z" fill="#FFE29E"/>
<path d="M76.9544 74.1065V71.8906C76.7883 71.8903 76.624 71.8877 76.4619 71.8823V74.0983C76.624 74.1036 76.7883 74.1065 76.9544 74.1065Z" fill="#FFCE5B"/>
<path d="M76.2156 74.088V71.8726C76.049 71.8643 75.8847 71.8534 75.7231 71.8398V74.0544C75.8847 74.0683 76.049 74.0795 76.2156 74.088Z" fill="#FFCE5B"/>
<path d="M75.4764 74.0308V71.817C75.3089 71.7999 75.1447 71.78 74.9839 71.7573V73.9695C75.1447 73.9927 75.3089 74.0132 75.4764 74.0308Z" fill="#FFCE5B"/>
<path d="M74.7381 73.9313V71.7201C74.5696 71.693 74.4053 71.6629 74.2456 71.6299V73.8381C74.4053 73.8722 74.5696 73.903 74.7381 73.9313Z" fill="#FFCE5B"/>
<path d="M73.9995 73.7827V71.5761C73.8292 71.5364 73.6649 71.4933 73.5073 71.4473V73.6504C73.6649 73.6978 73.8292 73.742 73.9995 73.7827Z" fill="#FFCE5B"/>
<path d="M73.2606 73.5721V71.3714C73.0864 71.3144 72.9219 71.2532 72.7681 71.1885V73.3839C72.9219 73.4505 73.0864 73.5133 73.2606 73.5721Z" fill="#FFCE5B"/>
<path d="M72.5223 73.27V71.0778C72.3388 70.9892 72.1738 70.8949 72.0298 70.7959V72.9799C72.1738 73.0818 72.3388 73.1787 72.5223 73.27Z" fill="#FFCE5B"/>
<path d="M71.7837 72.7818V70.6037C71.5859 70.4264 71.4512 70.2371 71.3903 70.0391H71.3535V71.9523C71.3535 72.2462 71.5066 72.5265 71.7837 72.7818Z" fill="#FFCE5B"/>
<path d="M77.6924 74.0884C77.5306 74.0967 77.3663 74.1023 77.2002 74.1049V71.889C77.3663 71.8864 77.5306 71.881 77.6924 71.873V74.0884Z" fill="#FFCE5B"/>
<path d="M78.4319 74.031C78.2706 74.0477 78.1064 74.0621 77.9395 74.0733V71.8584C78.1064 71.8472 78.2706 71.8334 78.4319 71.8169V74.031Z" fill="#FFCE5B"/>
<path d="M79.1702 73.9316C79.0097 73.9582 78.8454 73.9822 78.6777 74.0029V71.7899C78.8454 71.7697 79.0097 71.7465 79.1702 71.7207V73.9316Z" fill="#FFCE5B"/>
<path d="M79.9095 73.7828C79.7505 73.8208 79.586 73.856 79.417 73.8879V71.6781C79.586 71.647 79.7505 71.6129 79.9095 71.5762V73.7828Z" fill="#FFCE5B"/>
<path d="M80.6478 73.5723C80.491 73.6253 80.3267 73.6748 80.1553 73.7209V71.5159C80.3267 71.4711 80.491 71.423 80.6478 71.3716V73.5723Z" fill="#FFCE5B"/>
<path d="M81.3863 73.2704C81.2345 73.3457 81.07 73.417 80.894 73.4841V71.2858C81.07 71.2208 81.2345 71.1513 81.3863 71.0781V73.2704Z" fill="#FFCE5B"/>
<path d="M82.1248 72.7826C81.9893 72.9075 81.824 73.0262 81.6323 73.1377V70.9492C81.824 70.8409 81.9893 70.7256 82.1248 70.6045V72.7826Z" fill="#FFCE5B"/>
<path d="M82.5559 70.0391V71.9523C82.5559 72.1429 82.4915 72.3277 82.3706 72.5039V70.3335C82.4382 70.2379 82.4883 70.1397 82.5192 70.0391H82.5559Z" fill="#FFCE5B"/>
<path d="M76.9547 74.1066C73.861 74.1066 71.3531 73.1418 71.3531 71.9521C71.351 72.0341 71.3531 72.1984 71.3962 72.3829C71.4747 72.5426 71.5959 72.6943 71.7519 72.8362C72.0431 73.1008 72.4608 73.3364 72.9716 73.5329C73.9942 73.9261 75.4024 74.1681 76.9547 74.1681C78.5072 74.1681 79.9154 73.9261 80.9379 73.5329C81.4488 73.3364 81.8665 73.1008 82.1577 72.8362C82.265 72.7385 82.3558 72.6366 82.4274 72.5301C82.4724 72.4638 82.556 72.2854 82.556 72.0086C82.5435 72.1891 82.4828 72.3163 82.4274 72.4138C81.8779 73.3817 79.6364 74.1066 76.9547 74.1066Z" fill="#FFC234"/>
<path d="M82.4952 70.2523C82.4164 70.395 82.3016 70.531 82.1571 70.6585C81.8661 70.9157 81.4484 71.1443 80.9376 71.3352C79.9153 71.7172 78.5074 71.9523 76.9551 71.9523C75.4028 71.9523 73.9948 71.7172 72.9726 71.3352C72.4617 71.1443 72.0441 70.9157 71.7528 70.6585C71.6085 70.531 71.4938 70.395 71.415 70.2523C71.3676 70.0811 71.3546 69.8908 71.3535 69.8074C71.3535 69.8042 71.3535 69.8011 71.3535 69.7979C71.3535 69.8008 71.3535 69.804 71.3535 69.8074C71.3548 69.9099 71.3756 70.0106 71.415 70.1091C71.8175 71.1175 74.1445 71.8908 76.9551 71.8908C79.7655 71.8908 82.0927 71.1175 82.4952 70.1091C82.5356 70.0076 82.5567 69.9035 82.5567 69.7979C82.5567 69.8751 82.5567 70.0747 82.4952 70.2523Z" fill="white"/>
<path d="M82.556 69.798C82.556 70.9539 80.048 71.8909 76.9541 71.8909C73.8605 71.8909 71.3525 70.9539 71.3525 69.798C71.3525 68.6421 73.8605 67.7051 76.9541 67.7051C80.048 67.7051 82.556 68.6421 82.556 69.798Z" fill="#FFCE5B"/>
<path d="M82.5522 69.8749C82.5546 69.8494 82.556 69.8238 82.556 69.798C82.556 68.6421 80.048 67.7051 76.9541 67.7051C73.8605 67.7051 71.3525 68.6421 71.3525 69.798C71.3525 69.8217 71.3536 69.8454 71.3557 69.8688C71.4638 68.7321 73.9286 67.8233 76.9536 67.8233C79.9838 67.8233 82.4519 68.7353 82.5522 69.8749Z" fill="#FFF8EA"/>
<path d="M81.5096 69.7981C81.5096 70.7501 79.4702 71.5219 76.9545 71.5219C74.4388 71.5219 72.3994 70.7501 72.3994 69.7981C72.3994 68.8462 74.4388 68.0747 76.9545 68.0747C79.4702 68.0747 81.5096 68.8462 81.5096 69.7981Z" fill="#FFCE5B"/>
<path d="M81.5086 69.7588C81.4684 70.6642 79.4446 71.3933 76.954 71.3933C74.4729 71.3933 72.4553 70.6698 72.4 69.7692C72.3997 69.7787 72.3994 69.7883 72.3994 69.7979C72.3994 70.7499 74.4388 71.5216 76.9545 71.5216C79.4702 71.5216 81.5096 70.7499 81.5096 69.7979C81.5096 69.7849 81.5094 69.7718 81.5086 69.7588Z" fill="#FFC234"/>
<path d="M78.0634 69.6815C77.892 69.6882 77.7586 69.7161 77.6628 69.7659C77.5667 69.8157 77.4778 69.9001 77.3952 70.0188C77.313 70.1378 77.2291 70.248 77.1439 70.3495C77.0585 70.4506 76.9587 70.539 76.8445 70.6143C76.73 70.6894 76.5964 70.749 76.4438 70.7924C76.2913 70.8361 76.1055 70.8619 75.8864 70.8702C75.5198 70.884 75.2158 70.8281 74.9743 70.7025C74.7308 70.5768 74.5851 70.4024 74.5378 70.1796L73.8515 70.2054L73.8408 69.9241L74.5402 69.8977C74.5907 69.6794 74.7481 69.5037 75.0124 69.3709C75.2744 69.237 75.6114 69.1622 76.0235 69.1467L76.0461 69.7452C75.8206 69.7537 75.6478 69.7838 75.5283 69.8357C75.4085 69.8873 75.3502 69.9571 75.3537 70.0444C75.3566 70.1224 75.4045 70.1815 75.4972 70.2217C75.5877 70.2608 75.712 70.2773 75.8704 70.2715C76.0309 70.2653 76.1579 70.2358 76.2513 70.1825C76.3429 70.1296 76.43 70.0465 76.5125 69.9334C76.5929 69.8205 76.6781 69.7138 76.7675 69.6134C76.8548 69.512 76.956 69.4236 77.0702 69.3485C77.1847 69.2732 77.3194 69.2125 77.474 69.1664C77.6287 69.1204 77.8153 69.0935 78.0344 69.0852C78.4052 69.0711 78.7103 69.1241 78.9494 69.2439C79.1884 69.3626 79.3317 69.5317 79.379 69.751L80.0328 69.7263L80.0435 70.0079L79.3862 70.0327C79.346 70.292 79.1919 70.4956 78.9238 70.6442C78.6536 70.7914 78.294 70.8736 77.8451 70.8904L77.8225 70.2936C78.0698 70.2845 78.2575 70.2478 78.3853 70.1839C78.5109 70.1189 78.5719 70.0313 78.5676 69.9217C78.5647 69.8413 78.5189 69.7798 78.4305 69.7369C78.3398 69.6943 78.2176 69.6759 78.0634 69.6815Z" fill="white"/>
<path d="M81.4926 69.9486C81.504 69.8988 81.5096 69.849 81.5096 69.7981C81.5096 68.8462 79.4702 68.0747 76.9545 68.0747C74.4388 68.0747 72.3994 68.8462 72.3994 69.7981C72.3994 69.849 72.4053 69.8988 72.4165 69.9486C72.6177 69.2085 74.5727 68.6287 76.9545 68.6287C79.3363 68.6287 81.2913 69.2085 81.4926 69.9486Z" fill="#FFC234"/>
<path d="M76.9541 71.7786C80.048 71.7786 82.556 70.8141 82.556 69.6242V67.4697C82.556 68.6256 80.048 69.5627 76.9541 69.5627C73.8605 69.5627 71.3525 68.6256 71.3525 67.4697V69.6242C71.3525 70.8141 73.8605 71.7786 76.9541 71.7786Z" fill="#FFE29E"/>
<path d="M76.9539 71.7784V69.5625C76.7881 69.5622 76.6238 69.5595 76.4614 69.5542V71.7701C76.6238 71.7754 76.7881 71.7784 76.9539 71.7784Z" fill="#FFCE5B"/>
<path d="M76.2154 71.7594V69.544C76.049 69.5357 75.8847 69.5248 75.7231 69.5112V71.7258C75.8847 71.7397 76.049 71.7508 76.2154 71.7594Z" fill="#FFCE5B"/>
<path d="M75.4764 71.7026V69.4888C75.3089 69.4718 75.1447 69.4518 74.9839 69.4292V71.6414C75.1447 71.6646 75.3089 71.6851 75.4764 71.7026Z" fill="#FFCE5B"/>
<path d="M74.7381 71.6031V69.392C74.5693 69.3648 74.4051 69.3348 74.2456 69.3018V71.51C74.4051 71.544 74.5693 71.5749 74.7381 71.6031Z" fill="#FFCE5B"/>
<path d="M73.9993 71.4546V69.248C73.829 69.2083 73.6644 69.1652 73.5068 69.1191V71.3223C73.6644 71.3697 73.829 71.4139 73.9993 71.4546Z" fill="#FFCE5B"/>
<path d="M73.2606 71.2435V69.0427C73.0865 68.9858 72.9222 68.9245 72.7681 68.8599V71.0553C72.9222 71.1218 73.0865 71.1847 73.2606 71.2435Z" fill="#FFCE5B"/>
<path d="M72.522 70.9409V68.7487C72.3386 68.6601 72.1738 68.5658 72.0298 68.4668V70.6508C72.1738 70.7527 72.3386 70.8496 72.522 70.9409Z" fill="#FFCE5B"/>
<path d="M71.783 70.4537V68.2756C71.5849 68.0983 71.4502 67.909 71.3895 67.7109H71.3525V69.6242C71.3525 69.9181 71.5056 70.1984 71.783 70.4537Z" fill="#FFCE5B"/>
<path d="M77.6927 71.7598C77.5306 71.7681 77.3663 71.7737 77.2002 71.7763V69.5604C77.3663 69.5577 77.5306 69.5524 77.6927 69.5444V71.7598Z" fill="#FFCE5B"/>
<path d="M78.4319 71.7028C78.2706 71.7196 78.1064 71.734 77.9395 71.7452V69.5303C78.1064 69.5191 78.2706 69.5053 78.4319 69.4888V71.7028Z" fill="#FFCE5B"/>
<path d="M79.1702 71.603C79.0097 71.6296 78.8454 71.6535 78.6777 71.6743V69.4613C78.8454 69.4411 79.0097 69.4179 79.1702 69.3921V71.603Z" fill="#FFCE5B"/>
<path d="M79.9085 71.4546C79.7496 71.4927 79.5853 71.5279 79.416 71.5598V69.35C79.5853 69.3189 79.7496 69.2848 79.9085 69.248V71.4546Z" fill="#FFCE5B"/>
<path d="M80.6478 71.2442C80.4912 71.2972 80.3267 71.3467 80.1553 71.3928V69.1877C80.3267 69.143 80.4912 69.0948 80.6478 69.0435V71.2442Z" fill="#FFCE5B"/>
<path d="M81.386 70.9417C81.2343 71.0171 81.0695 71.0884 80.8936 71.1555V68.9572C81.0695 68.8922 81.2343 68.8227 81.386 68.7495V70.9417Z" fill="#FFCE5B"/>
<path d="M82.1248 70.4545C81.989 70.5793 81.8237 70.6981 81.6323 70.8096V68.6211C81.8237 68.5128 81.989 68.3975 82.1248 68.2764V70.4545Z" fill="#FFCE5B"/>
<path d="M82.5559 67.7109V69.6242C82.5559 69.8148 82.4915 69.9995 82.3706 70.1758V68.0054C82.4382 67.9098 82.488 67.8116 82.5189 67.7109H82.5559Z" fill="#FFCE5B"/>
<path d="M76.9547 71.778C73.861 71.778 71.3531 70.8135 71.3531 69.6235C71.351 69.7055 71.3531 69.8698 71.3962 70.0543C71.4747 70.214 71.5959 70.3657 71.7519 70.5076C72.0431 70.7722 72.4608 71.0078 72.9716 71.2043C73.9942 71.5975 75.4024 71.8395 76.9547 71.8395C78.5072 71.8395 79.9154 71.5975 80.9379 71.2043C81.4488 71.0078 81.8665 70.7722 82.1577 70.5076C82.265 70.4102 82.3558 70.308 82.4274 70.2017C82.4724 70.1352 82.556 69.9571 82.556 69.68C82.5435 69.8605 82.4828 69.9877 82.4274 70.0851C81.8779 71.0531 79.6364 71.778 76.9547 71.778Z" fill="#FFC234"/>
<path d="M82.4942 67.9241C82.4154 68.0671 82.3009 68.2029 82.1564 68.3304C81.8651 68.5875 81.4475 68.8165 80.9366 69.0074C79.9144 69.3891 78.5064 69.6242 76.9541 69.6242C75.4018 69.6242 73.9939 69.3891 72.9716 69.0074C72.4608 68.8165 72.0431 68.5875 71.7521 68.3304C71.6076 68.2029 71.4931 68.0671 71.414 67.9241C71.3669 67.7532 71.3536 67.5626 71.3525 67.4793C71.3525 67.4761 71.3525 67.4729 71.3525 67.4697C71.3525 67.4727 71.3525 67.4758 71.3525 67.4793C71.3539 67.5818 71.3749 67.6824 71.414 67.7809C71.8165 68.7893 74.1437 69.5627 76.9541 69.5627C79.7647 69.5627 82.092 68.7893 82.4942 67.7809C82.5349 67.6795 82.556 67.5754 82.556 67.4697C82.556 67.5469 82.556 67.7466 82.4942 67.9241Z" fill="white"/>
<path d="M82.556 67.4689C82.556 68.6248 80.048 69.5619 76.9541 69.5619C73.8605 69.5619 71.3525 68.6248 71.3525 67.4689C71.3525 66.313 73.8605 65.376 76.9541 65.376C80.048 65.376 82.556 66.313 82.556 67.4689Z" fill="#FFCE5B"/>
<path d="M82.5522 67.5456C82.5546 67.5203 82.556 67.4947 82.556 67.4689C82.556 66.313 80.048 65.376 76.9541 65.376C73.8605 65.376 71.3525 66.313 71.3525 67.4689C71.3525 67.4926 71.3536 67.5163 71.3557 67.5397C71.4638 66.403 73.9286 65.4942 76.9536 65.4942C79.9838 65.4942 82.4519 66.4062 82.5522 67.5456Z" fill="#FFF8EA"/>
<path d="M81.5099 67.4695C81.5099 68.4215 79.4705 69.1932 76.9548 69.1932C74.4388 69.1932 72.3994 68.4215 72.3994 67.4695C72.3994 66.5176 74.4388 65.7461 76.9548 65.7461C79.4705 65.7461 81.5099 66.5176 81.5099 67.4695Z" fill="#FFCE5B"/>
<path d="M81.5086 67.4297C81.4684 68.3351 79.4446 69.0642 76.9543 69.0642C74.4732 69.0642 72.4553 68.3407 72.4002 67.4401C72.3997 67.4497 72.3994 67.4592 72.3994 67.4688C72.3994 68.4208 74.4388 69.1925 76.9548 69.1925C79.4705 69.1925 81.5099 68.4208 81.5099 67.4688C81.5099 67.4558 81.5094 67.4427 81.5086 67.4297Z" fill="#FFC234"/>
<path d="M78.0634 67.3537C77.892 67.3601 77.7586 67.388 77.6628 67.4378C77.5667 67.4876 77.4778 67.572 77.3952 67.691C77.313 67.8097 77.2291 67.9199 77.1439 68.0213C77.0585 68.1228 76.9587 68.2109 76.8445 68.2862C76.73 68.3615 76.5964 68.4209 76.4438 68.4643C76.2913 68.508 76.1055 68.5338 75.8864 68.542C75.5198 68.5559 75.2158 68.5 74.9743 68.3743C74.7308 68.2487 74.5851 68.0746 74.5378 67.8518L73.8515 67.8776L73.8408 67.5959L74.5402 67.5696C74.5907 67.3513 74.7481 67.1759 75.0124 67.0428C75.2744 66.9088 75.6114 66.834 76.0235 66.8186L76.0461 67.417C75.8206 67.4256 75.6478 67.4556 75.5283 67.5076C75.4085 67.5595 75.3502 67.6289 75.3537 67.7163C75.3566 67.7943 75.4045 67.8534 75.4972 67.8936C75.5877 67.9327 75.712 67.9492 75.8704 67.9433C76.0309 67.9372 76.1579 67.9077 76.2513 67.8544C76.3429 67.8014 76.43 67.7184 76.5125 67.6053C76.5929 67.4924 76.6781 67.3856 76.7675 67.2853C76.8548 67.1838 76.956 67.0955 77.0702 67.0204C77.1847 66.9451 77.3194 66.8844 77.474 66.8386C77.6287 66.7925 77.8153 66.7654 78.0344 66.7571C78.4052 66.743 78.7103 66.796 78.9494 66.9158C79.1884 67.0345 79.3317 67.2035 79.379 67.4229L80.0328 67.3981L80.0435 67.6798L79.3862 67.7045C79.346 67.9638 79.1919 68.1677 78.9238 68.316C78.6536 68.4632 78.294 68.5455 77.8451 68.5623L77.8225 67.9657C78.0698 67.9564 78.2575 67.9196 78.3853 67.8558C78.5109 67.7908 78.5719 67.7032 78.5676 67.5935C78.5647 67.5131 78.5189 67.4517 78.4305 67.4091C78.3398 67.3662 78.2176 67.3478 78.0634 67.3537Z" fill="white"/>
<path d="M81.4929 67.6199C81.504 67.5704 81.5099 67.5204 81.5099 67.4695C81.5099 66.5176 79.4705 65.7461 76.9548 65.7461C74.4388 65.7461 72.3994 66.5176 72.3994 67.4695C72.3994 67.5204 72.4053 67.5704 72.4167 67.6199C72.618 66.8799 74.5727 66.3001 76.9548 66.3001C79.3366 66.3001 81.2913 66.8799 81.4929 67.6199Z" fill="#FFC234"/>
<path d="M80.6843 74.7014C82.6809 76.5819 85.5535 76.7747 87.101 75.1322C88.6485 73.4891 88.3269 70.6905 86.3303 68.81C83.7343 66.3646 81.4193 66.6792 79.8718 68.322C78.3241 69.9648 78.688 72.8209 80.6843 74.7014Z" fill="#FFC234"/>
<path d="M81.2351 74.5612C83.2314 76.4417 86.1044 76.6344 87.6518 74.9919C89.1993 73.3489 88.8354 70.4927 86.8391 68.6122C84.8425 66.7317 81.9701 66.539 80.4224 68.1818C78.8749 69.8245 79.2388 72.6807 81.2351 74.5612Z" fill="#FFCE5B"/>
<path d="M81.5852 68.2422L87.338 73.9585L86.55 74.7829L80.834 68.9751L81.5852 68.2422Z" fill="#FFC234"/>
<path d="M82.0615 68.1325L87.576 73.5555C88.6023 72.2364 86.7516 69.5432 86.1838 69.1218C84.5128 67.5096 82.7393 67.7904 82.0615 68.1325Z" fill="#FFC234"/>
<path fill-rule="evenodd" clip-rule="evenodd" d="M86.8978 74.2821C85.7614 75.4883 83.5231 75.431 81.8766 73.8798C80.2301 72.3289 80.0392 70.0978 81.1754 68.8916C82.3119 67.6854 84.5501 67.7426 86.1966 69.2938C87.8431 70.8448 88.034 73.0759 86.8978 74.2821ZM87.2444 74.6084C85.8713 76.0665 83.3216 75.8953 81.55 74.2267C79.7783 72.5576 79.4552 70.023 80.8288 68.565C82.2019 67.1069 84.7514 67.2781 86.5233 68.947C88.2949 70.6158 88.6178 73.1507 87.2444 74.6084Z" fill="#FFE7AD"/>
<path fill-rule="evenodd" clip-rule="evenodd" d="M82.3919 68.8899L82.1734 69.0174C82.1505 69.0308 82.1438 69.06 82.1582 69.0824L82.3371 69.3632C81.8095 69.7612 81.5584 70.3826 81.7629 70.9696C82.1178 71.9894 83.5366 71.8701 83.7504 71.8062C83.793 71.7948 83.8345 71.7842 83.8747 71.7748L84.6108 72.9289C84.2961 73.0356 83.9064 73.0644 83.6032 73.0601C83.5521 73.0596 83.51 73.0984 83.5082 73.149L83.4869 73.671C83.485 73.7206 83.5223 73.7642 83.572 73.7685C84.2796 73.8308 84.7934 73.6399 85.0077 73.5515L85.4267 74.2083C85.4408 74.2304 85.4696 74.2373 85.4914 74.224L85.7257 74.0805C85.7478 74.0672 85.7544 74.0379 85.7401 74.0158L85.3309 73.3793C86.7932 72.3951 85.6522 70.4443 84.1697 70.8567C84.0238 70.8972 83.891 70.928 83.7701 70.9507L83.0492 69.8294C83.3373 69.7253 83.6857 69.6803 83.9586 69.6699C84.0086 69.6681 84.0483 69.6284 84.0491 69.5783C84.051 69.4122 84.0518 69.1758 84.0472 69.0433C84.0456 68.9999 84.0118 68.9642 83.9679 68.9591C83.46 68.8995 83.0016 68.9914 82.6318 69.1796L82.4558 68.9062C82.442 68.8846 82.4138 68.8774 82.3919 68.8899ZM82.5445 70.6227C82.4343 70.3386 82.5346 70.1337 82.7356 69.988L83.3801 70.9991C82.767 71.0284 82.603 70.7739 82.5445 70.6227ZM84.9361 72.7651L84.2599 71.7128C84.8887 71.6654 85.0873 71.9593 85.1323 72.11C85.2228 72.4108 85.1267 72.6206 84.9361 72.7651Z" fill="white"/>
</svg>
